<?xml version="1.0" standalone="no"?>
<!DOCTYPE svg PUBLIC "-//W3C//DTD SVG 20010904//EN"
 "http://www.w3.org/TR/2001/REC-SVG-20010904/DTD/svg10.dtd">
<svg version="1.0" xmlns="http://www.w3.org/2000/svg"
 width="440.000000pt" height="471.000000pt" viewBox="0 0 440.000000 471.000000"
 preserveAspectRatio="xMidYMid meet">

<g transform="translate(0.000000,471.000000) scale(0.100000,-0.100000)"
fill="#000000" stroke="none">
<path d="M2018 4383 c-10 -2 -18 -8 -18 -13 0 -5 8 -11 18 -13 9 -3 3 -5 -15
-6 -93 -3 -206 -80 -254 -173 -32 -60 -32 -174 -1 -235 22 -43 22 -43 2 -55
-26 -16 -26 -49 0 -71 l21 -18 -21 -27 c-28 -36 -107 -104 -147 -127 -20 -12
-37 -32 -44 -52 -6 -18 -37 -62 -70 -99 -33 -36 -58 -72 -55 -79 6 -16 -11
-91 -29 -132 -8 -17 -15 -41 -15 -52 0 -12 -10 -35 -21 -51 -18 -24 -21 -38
-16 -82 4 -47 2 -56 -20 -80 -21 -22 -26 -37 -25 -75 0 -26 1 -59 1 -73 0 -14
-2 -58 -5 -97 -5 -70 -7 -73 -29 -67 -12 3 -26 0 -30 -6 -14 -22 -7 -127 19
-270 15 -87 27 -201 30 -285 3 -77 3 -130 0 -117 -3 12 -9 22 -13 22 -21 0
-115 -126 -105 -141 3 -5 -8 -9 -25 -9 -16 0 -37 -3 -47 -7 -12 -5 -15 -3 -9
6 5 10 2 11 -12 7 -13 -4 -28 3 -49 25 -16 18 -22 28 -14 24 12 -7 13 -6 3 6
-6 8 -14 31 -18 52 -4 20 -12 37 -17 37 -5 0 -30 -14 -54 -31 l-46 -31 5 -64
c2 -36 7 -67 10 -70 3 -3 16 1 29 10 31 22 69 20 109 -7 35 -23 74 -88 59 -97
-5 -3 -14 -28 -20 -55 -7 -28 -14 -59 -17 -70 -30 -123 -18 -325 28 -465 29
-87 89 -200 110 -208 5 -2 9 -9 9 -14 0 -6 7 -18 15 -27 8 -9 49 -59 92 -111
81 -98 185 -186 263 -221 25 -12 59 -28 75 -36 17 -8 60 -17 97 -20 62 -5 72
-3 140 32 40 20 96 54 123 75 68 51 100 66 169 79 33 6 62 13 64 16 3 3 0 16
-6 30 -19 41 -15 62 29 149 22 44 38 88 36 98 -7 24 31 4 378 -197 154 -89
334 -190 400 -223 203 -101 439 -192 499 -192 17 0 16 4 -10 31 -39 42 -154
126 -282 208 -245 156 -478 294 -494 293 -10 0 -18 6 -18 15 0 10 -6 13 -16 9
-8 -3 -13 -2 -9 3 7 12 -63 55 -87 54 -10 -1 -23 6 -30 16 -7 10 -44 37 -83
61 -38 23 -92 58 -118 77 -39 29 -45 37 -34 47 7 6 30 34 50 62 20 29 55 68
77 88 60 54 278 155 368 171 69 12 77 11 170 -15 133 -38 155 -43 148 -31 -4
6 22 -3 56 -18 146 -66 240 -43 300 73 27 52 20 132 -16 204 -23 45 -26 63
-26 150 0 138 -26 327 -53 381 -14 28 -71 90 -157 172 -262 247 -365 323 -390
288 -3 -5 -12 -4 -20 1 -13 8 -12 12 3 27 18 17 19 17 33 -1 7 -11 16 -17 19
-14 3 2 -4 13 -16 24 -21 19 -22 19 -63 -26 -22 -25 -48 -51 -57 -58 -24 -18
-92 -44 -84 -33 8 14 -2 13 -45 -5 -19 -7 -26 -13 -15 -11 21 2 67 -42 58 -56
-3 -5 -12 1 -20 12 -8 12 -25 21 -39 21 -15 0 -34 10 -45 23 -26 31 -24 44 4
21 l22 -19 -19 23 c-11 12 -26 20 -33 18 -7 -3 -13 1 -13 8 0 8 -5 16 -11 18
-7 2 -7 12 -1 29 6 16 7 31 1 42 -7 12 -6 17 3 17 7 1 0 11 -16 24 -18 15 -26
28 -21 36 5 8 4 11 -2 7 -17 -11 -22 30 -6 52 12 18 12 20 -2 15 -11 -4 -15 0
-15 16 0 13 4 19 12 14 7 -4 8 -3 4 5 -4 6 -3 18 4 26 8 10 8 15 -4 22 -10 5
-18 29 -21 63 -4 30 -9 64 -12 75 -4 14 9 7 46 -24 29 -24 53 -42 55 -40 8 8
25 230 20 244 -3 8 -11 12 -17 8 -6 -3 -7 -1 -3 5 4 6 -7 35 -23 63 l-30 52 5
-44 c4 -42 3 -41 -17 21 -16 48 -23 60 -28 47 -6 -17 -8 -16 -19 8 -14 31 -7
49 17 40 13 -5 14 -4 4 6 -7 7 -13 40 -14 74 -1 54 -2 57 -10 28 -9 -30 -29
-46 -29 -24 0 5 -3 17 -7 27 -5 13 -3 16 9 11 14 -5 15 -1 6 29 -5 19 -6 39
-2 46 4 6 3 8 -3 5 -6 -4 -15 5 -22 19 -6 14 -28 32 -48 40 -31 14 -34 17 -20
25 9 6 17 15 17 21 0 6 7 20 16 29 15 17 15 21 0 54 -15 32 -24 85 -28 168 -1
15 -6 27 -10 27 -5 0 -8 -8 -6 -17 2 -13 -3 -17 -20 -16 -21 3 -23 0 -20 -41
2 -31 6 -41 14 -35 15 12 34 -32 27 -60 -5 -21 -6 -21 -38 -2 -18 10 -47 22
-64 26 -19 4 -29 11 -24 18 4 6 0 8 -9 4 -11 -4 -15 0 -14 11 2 10 12 17 24
17 12 0 22 3 22 8 1 38 -2 47 -15 47 -9 0 -15 -9 -15 -22 -1 -21 -1 -22 -11
-5 -8 14 -7 23 8 39 13 15 14 19 3 14 -8 -4 -5 1 8 10 14 10 22 27 22 45 0 16
4 29 10 29 5 0 7 -13 3 -31 -5 -25 -3 -31 8 -27 8 2 15 18 17 34 2 16 8 34 14
39 7 7 9 -2 6 -27 -3 -27 0 -38 9 -38 7 0 13 11 13 24 0 14 4 27 9 30 5 4 8
-5 6 -19 -1 -14 2 -28 6 -31 9 -5 13 16 9 50 -1 10 3 22 8 25 5 3 11 31 14 62
4 54 4 55 -20 51 -13 -3 -27 -15 -32 -27 -5 -12 -16 -25 -25 -29 -23 -8 -27
-8 -21 3 4 5 -21 -4 -55 -20 -33 -16 -70 -30 -82 -32 -12 -1 -27 -8 -32 -15
-13 -17 -48 -4 -41 14 3 8 -1 14 -9 14 -8 0 -15 -7 -15 -15 0 -8 -5 -15 -11
-15 -5 0 -9 10 -7 21 2 16 -3 23 -19 25 -27 5 -30 -10 -5 -26 16 -11 16 -11
-1 -6 -10 3 -21 6 -23 6 -2 0 -4 9 -4 21 0 18 39 60 77 82 8 5 27 2 46 -8 49
-26 130 -44 147 -35 11 6 3 11 -27 16 -24 3 -43 11 -43 16 0 5 -4 6 -10 3 -5
-3 -10 -2 -10 3 0 11 -111 63 -131 61 -8 -1 -22 -3 -31 -6z m-8 -73 c-19 -16
-42 -29 -50 -28 -8 0 -22 -1 -30 -5 -8 -3 -27 -8 -42 -11 -15 -4 -44 -21 -65
-39 l-37 -32 21 35 c24 40 93 80 138 80 16 0 39 7 49 15 38 29 52 15 16 -15z
m193 -282 c6 -22 5 -22 -8 -4 -17 22 -20 40 -6 32 5 -3 11 -16 14 -28z m42
-68 c3 -5 -3 -10 -14 -10 -12 0 -21 5 -21 10 0 6 6 10 14 10 8 0 18 -4 21 -10z
m45 -15 c14 -16 10 -18 -14 -9 -9 3 -16 10 -16 15 0 14 16 11 30 -6z m10 -35
c46 -25 24 -25 -31 0 -26 11 -36 19 -24 19 11 0 36 -8 55 -19z m10 -257 c0 -3
-9 2 -20 12 -11 10 -20 22 -20 27 0 4 9 -1 20 -12 11 -11 20 -23 20 -27z m180
-57 c0 -3 -4 -8 -10 -11 -5 -3 -10 -1 -10 4 0 6 5 11 10 11 6 0 10 -2 10 -4z
m-946 -122 c9 -3 16 -10 16 -15 0 -13 -32 -10 -60 6 l-25 14 27 1 c14 0 33 -3
42 -6z m158 -112 c11 -13 10 -14 -7 -5 -11 6 -32 16 -46 23 -15 6 -38 22 -52
35 -13 13 -28 21 -31 17 -4 -3 -4 1 0 11 5 15 14 11 65 -25 32 -22 65 -48 71
-56z m53 -60 c-11 -11 -34 8 -28 24 6 15 7 15 20 -1 7 -10 11 -21 8 -23z m754
-95 c-2 -3 -15 10 -28 27 l-24 31 28 -27 c16 -15 27 -29 24 -31z m-77 13 c-11
-11 -23 -16 -27 -11 -3 5 4 12 15 16 11 3 20 11 20 17 0 6 3 8 7 5 3 -4 -3
-16 -15 -27z m-672 -4 c0 -3 -4 -8 -10 -11 -5 -3 -10 -1 -10 4 0 6 5 11 10 11
6 0 10 -2 10 -4z m-39 -39 c-6 -8 -8 -17 -4 -20 3 -4 -1 -7 -10 -7 -15 0 -15
3 -5 20 7 11 17 20 22 20 4 0 3 -6 -3 -13z m693 -73 c5 -14 4 -15 -9 -4 -17
14 -19 20 -6 20 5 0 12 -7 15 -16z m-694 -10 c33 -7 34 -8 10 -14 -14 -4 -31
-3 -37 3 -7 5 -22 7 -33 4 -10 -3 -24 1 -30 9 -9 10 -5 12 22 10 18 -2 49 -7
68 -12z m-101 -100 c62 -17 82 -34 34 -28 -42 4 -171 57 -201 81 -24 21 -20
20 40 -6 37 -16 94 -37 127 -47z m39 60 c32 -9 28 -28 -5 -19 -32 7 -55 25
-32 25 7 0 24 -3 37 -6z m757 -4 c3 -5 1 -10 -4 -10 -6 0 -11 5 -11 10 0 6 2
10 4 10 3 0 8 -4 11 -10z m-660 -20 l30 -8 -35 -1 c-19 0 -42 4 -50 9 -12 8
-11 10 5 9 11 -1 34 -5 50 -9z m640 -39 c3 -5 1 -12 -5 -16 -5 -3 -10 1 -10 9
0 18 6 21 15 7z m-668 -77 c-3 -3 -12 -4 -19 -1 -8 3 -5 6 6 6 11 1 17 -2 13
-5z m503 -30 c0 -14 -4 -23 -9 -20 -5 3 -7 15 -4 26 7 28 13 25 13 -6z m-750
-40 c0 -2 -13 2 -30 11 -16 9 -30 18 -30 21 0 2 14 -2 30 -11 17 -9 30 -18 30
-21z m203 19 c-3 -7 -9 -13 -14 -13 -5 0 -9 6 -9 13 0 8 6 14 14 14 8 0 12 -6
9 -14z m-123 -77 c0 -16 -27 -29 -42 -20 -7 5 14 23 40 33 1 1 2 -5 2 -13z
m620 -17 c-7 -11 -14 -19 -16 -16 -7 7 7 37 17 37 6 0 5 -9 -1 -21z m30 -39
c0 -5 -5 -10 -11 -10 -5 0 -7 5 -4 10 3 6 8 10 11 10 2 0 4 -4 4 -10z m790 -9
c0 -5 -7 -12 -16 -15 -14 -5 -15 -4 -4 9 14 17 20 19 20 6z m-583 -23 c-3 -8
-6 -5 -6 6 -1 11 2 17 5 13 3 -3 4 -12 1 -19z m113 -108 c0 -5 6 -10 14 -10
26 0 28 -20 5 -56 -27 -45 -55 -71 -82 -78 -19 -4 -20 -3 -6 7 22 17 41 56 35
72 -6 18 13 75 25 75 5 0 9 -4 9 -10z m80 -30 c0 -5 -4 -10 -9 -10 -6 0 -13 5
-16 10 -3 6 1 10 9 10 9 0 16 -4 16 -10z m160 -5 c20 -24 6 -28 -15 -5 -10 11
-13 20 -8 20 6 0 16 -7 23 -15z m-150 -38 c14 -13 33 -28 43 -33 17 -10 15
-13 -18 -38 -40 -31 -61 -27 -27 5 30 27 18 42 -29 36 -41 -5 -46 1 -29 34 14
25 30 24 60 -4z m-340 -7 c0 -5 -5 -10 -11 -10 -5 0 -7 5 -4 10 3 6 8 10 11
10 2 0 4 -4 4 -10z m430 -124 c0 -2 -7 -7 -16 -10 -8 -3 -12 -2 -9 4 6 10 25
14 25 6z m-40 -20 c0 -2 -7 -7 -16 -10 -8 -3 -12 -2 -9 4 6 10 25 14 25 6z
m-126 -254 c14 -17 22 -20 30 -12 8 8 2 17 -20 35 -17 13 -39 37 -49 52 -10
16 8 3 43 -31 44 -42 58 -63 54 -78 -3 -13 6 -31 29 -56 l34 -36 -42 34 c-27
23 -39 41 -36 53 2 9 -1 17 -7 17 -6 0 -8 -4 -5 -10 14 -23 -14 -7 -40 23 -15
17 -46 52 -69 77 l-41 44 50 -44 c28 -25 58 -55 69 -68z m526 29 c-5 -11 -15
-23 -20 -26 -6 -3 -10 -14 -10 -23 0 -15 2 -15 11 -2 9 13 10 13 6 0 -2 -8
-10 -14 -18 -13 -8 1 -26 -15 -41 -36 -32 -45 -38 -84 -11 -74 12 5 14 3 8 -7
-5 -8 -1 -18 10 -27 11 -7 14 -13 8 -13 -7 0 -19 7 -27 16 -9 8 -20 13 -25 9
-38 -23 -4 77 44 130 15 17 34 42 43 58 18 30 38 38 22 8z m-435 -71 c3 -5 1
-10 -4 -10 -6 0 -11 5 -11 10 0 6 2 10 4 10 3 0 8 -4 11 -10z m499 -15 c-9
-14 -19 -23 -22 -20 -5 4 26 45 35 45 2 0 -4 -11 -13 -25z m-95 -28 c13 4 13
3 2 -5 -16 -12 -41 -5 -41 11 0 8 3 8 11 0 6 -6 19 -9 28 -6z m47 -16 c22 18
16 -6 -6 -26 -20 -18 -21 -18 -14 1 7 17 6 17 -9 5 -19 -15 -23 -1 -5 17 9 9
14 9 16 2 3 -8 8 -7 18 1z m23 -64 c0 -9 -2 -8 -6 1 -2 6 -10 9 -15 6 -7 -4
-8 -2 -4 5 9 13 26 5 25 -12z m-57 -9 c-7 -7 -12 -8 -12 -2 0 14 12 26 19 19
2 -3 -1 -11 -7 -17z m-311 -5 c13 -15 12 -15 -8 -4 -24 12 -29 21 -14 21 5 0
15 -7 22 -17z m315 -34 c19 -22 19 -22 -3 -10 -13 6 -23 16 -23 21 0 15 5 12
26 -11z m-856 -31 c0 -6 -7 -5 -15 2 -8 7 -15 17 -15 22 0 6 7 5 15 -2 8 -7
15 -17 15 -22z m-1040 7 c-7 -8 -17 -15 -22 -15 -6 0 -5 7 2 15 7 8 17 15 22
15 6 0 5 -7 -2 -15z m1007 -37 c-3 -7 -5 -2 -5 12 0 14 2 19 5 13 2 -7 2 -19
0 -25z m35 -16 c-10 -3 -10 -7 0 -20 12 -15 11 -15 -4 -4 -18 14 -13 47 5 35
8 -5 7 -8 -1 -11z m-35 -24 c-3 -8 -6 -5 -6 6 -1 11 2 17 5 13 3 -3 4 -12 1
-19z m41 -43 c-3 -3 -15 -7 -27 -10 -16 -3 -21 1 -20 18 0 12 3 16 6 10 8 -20
26 -15 19 5 -7 16 -6 16 10 0 10 -10 15 -20 12 -23z m-35 -77 c-4 -30 -3 -39
5 -34 7 4 12 3 12 -3 0 -5 -5 -11 -11 -13 -6 -2 -13 -33 -16 -68 -3 -36 -8
-71 -13 -79 -8 -16 -2 115 7 139 3 8 5 37 3 64 -1 32 2 46 9 41 7 -4 9 -22 4
-47z m34 -65 c-4 -3 -2 -12 4 -20 9 -9 8 -13 0 -13 -6 0 -11 5 -11 11 0 5 -4
7 -10 4 -5 -3 -10 -2 -10 3 0 12 11 22 23 22 6 0 7 -3 4 -7z m-2 -63 c3 -5 1
-10 -4 -10 -6 0 -11 5 -11 10 0 6 2 10 4 10 3 0 8 -4 11 -10z m-253 -90 c45
-27 128 -79 183 -115 55 -36 114 -72 131 -80 17 -7 37 -22 45 -32 9 -12 -2 -8
-36 11 -71 41 -249 151 -325 201 -36 24 -74 48 -85 54 -11 6 -15 11 -8 11 6 0
49 -22 95 -50z m238 25 c0 -7 -7 -15 -15 -19 -12 -4 -13 -2 -6 13 6 10 7 22 3
26 -4 5 -1 5 6 1 6 -4 12 -13 12 -21z m-43 -47 c-3 -8 -6 -5 -6 6 -1 11 2 17
5 13 3 -3 4 -12 1 -19z m-1 -34 c-4 -12 -2 -15 9 -10 20 7 19 3 -3 -18 -18
-16 -19 -15 -20 14 0 16 4 30 10 30 5 0 7 -7 4 -16z m44 -39 c-6 -8 -9 -19 -5
-25 4 -7 -1 -6 -14 2 l-21 13 23 12 c29 16 32 16 17 -2z m-443 -11 c-3 -3 -12
-4 -19 -1 -8 3 -5 6 6 6 11 1 17 -2 13 -5z m298 -174 c3 -5 1 -10 -4 -10 -6 0
-11 5 -11 10 0 6 2 10 4 10 3 0 8 -4 11 -10z m680 -205 l20 -16 -20 10 c-11 5
-29 17 -40 26 l-20 16 20 -10 c11 -5 29 -17 40 -26z"/>
<path d="M2575 2519 c-10 -15 3 -25 16 -12 7 7 7 13 1 17 -6 3 -14 1 -17 -5z"/>
<path d="M2120 4296 c0 -2 7 -7 16 -10 8 -3 12 -2 9 4 -6 10 -25 14 -25 6z"/>
<path d="M2288 4085 c-11 -11 5 -65 19 -65 11 0 14 6 9 23 -3 12 -6 28 -6 35
0 12 -12 16 -22 7z"/>
</g>
</svg>
