<?xml version="1.0" standalone="no"?>
<!DOCTYPE svg PUBLIC "-//W3C//DTD SVG 20010904//EN"
 "http://www.w3.org/TR/2001/REC-SVG-20010904/DTD/svg10.dtd">
<svg version="1.0" xmlns="http://www.w3.org/2000/svg"
 width="360.000000pt" height="464.000000pt" viewBox="0 0 360.000000 464.000000"
 preserveAspectRatio="xMidYMid meet">

<g transform="translate(0.000000,464.000000) scale(0.100000,-0.100000)"
fill="#000000" stroke="none">
<path d="M1760 4508 c-28 -12 -133 -130 -139 -156 -2 -9 -7 -22 -12 -28 -5 -6
-10 -50 -11 -97 -2 -61 -7 -87 -15 -87 -7 0 -13 -5 -13 -11 0 -5 5 -7 12 -3 7
5 8 3 4 -5 -5 -7 -19 -16 -33 -22 -13 -5 -21 -14 -18 -19 7 -12 -20 -42 -29
-33 -3 4 -6 -6 -6 -20 0 -15 -4 -27 -10 -27 -5 0 -16 -16 -25 -36 -12 -30 -17
-34 -34 -25 -41 22 -43 16 -39 -109 1 -66 0 -120 -3 -120 -3 0 -10 44 -15 97
l-9 98 -35 -35 c-52 -52 -78 -93 -85 -134 -5 -24 -22 -50 -52 -79 l-45 -44 26
-26 c26 -26 35 -57 16 -57 -5 0 -10 5 -10 11 0 5 -5 7 -11 3 -8 -4 -7 -9 2
-15 11 -8 9 -13 -10 -29 -30 -26 -45 -26 -29 0 7 11 16 20 21 20 4 0 6 4 3 9
-3 5 1 14 9 21 8 7 15 17 15 23 0 16 -41 -25 -51 -50 -5 -13 -15 -23 -23 -23
-13 0 -31 -29 -22 -37 2 -3 20 0 40 5 24 7 36 7 36 0 0 -6 7 -8 15 -4 18 6 21
-19 3 -30 -7 -5 -8 -3 -3 7 8 12 6 12 -8 0 -18 -14 -24 -36 -7 -26 6 3 7 -1 4
-9 -3 -9 -12 -16 -20 -16 -8 0 -14 -4 -14 -10 0 -5 9 -10 20 -10 13 0 18 -5
14 -15 -4 -9 0 -15 10 -15 22 0 37 -33 30 -72 -10 -58 -25 -88 -46 -88 -28 0
-33 -28 -11 -53 11 -12 23 -29 27 -37 4 -8 -5 -1 -21 17 l-28 31 -29 -23 c-28
-22 -29 -25 -24 -94 3 -39 2 -74 -3 -76 -4 -3 -5 -22 -2 -42 4 -26 3 -34 -5
-29 -8 5 -12 -2 -12 -18 0 -14 -4 -26 -8 -26 -5 0 -9 -15 -9 -32 0 -33 -8 -82
-38 -233 -22 -110 -34 -146 -57 -172 -11 -12 -17 -26 -13 -33 3 -6 1 -9 -5 -8
-7 2 -20 -12 -30 -29 -21 -39 -14 -101 15 -133 23 -26 83 -27 101 -2 20 26 18
82 -3 82 -13 0 -15 2 -5 8 7 5 10 16 7 25 -4 9 -2 24 5 34 9 15 10 14 4 -7 -9
-34 -3 -26 41 55 21 39 48 83 61 98 13 16 24 38 24 50 0 30 42 80 68 82 12 1
19 -2 16 -6 -3 -5 0 -18 6 -29 8 -15 5 -30 -15 -70 -14 -28 -37 -99 -51 -158
-14 -59 -34 -129 -44 -157 -41 -113 -80 -267 -74 -293 4 -22 3 -24 -6 -12 -9
12 -10 11 -5 -8 4 -12 0 -41 -8 -65 -35 -100 -60 -206 -62 -262 -1 -33 -5 -70
-9 -82 -6 -19 -4 -23 16 -23 13 0 43 -6 68 -14 26 -8 57 -10 77 -6 l32 8 12
-56 c6 -32 9 -83 5 -118 -3 -34 -2 -95 4 -135 26 -184 -2 -404 -64 -495 -20
-30 -23 -41 -14 -58 10 -20 10 -20 -8 -4 -19 16 -22 15 -78 -32 -32 -28 -61
-50 -65 -50 -15 0 -61 -53 -61 -70 0 -26 20 -30 113 -24 81 6 163 26 202 49
11 7 52 22 92 34 48 14 73 27 76 39 3 9 5 105 6 212 0 139 5 211 15 250 8 30
29 106 45 168 17 63 32 143 33 180 3 106 25 151 74 152 12 0 28 10 37 23 14
20 16 21 29 6 10 -13 28 -17 73 -15 l60 1 1 106 c1 59 4 111 7 116 3 5 11 48
17 96 6 48 19 107 30 133 11 25 23 64 26 85 7 41 26 49 32 13 2 -10 7 -28 12
-39 16 -37 21 -79 27 -204 3 -69 9 -133 14 -143 5 -9 9 -30 9 -47 0 -16 5 -33
10 -36 6 -3 10 -25 10 -49 0 -53 19 -81 49 -73 26 7 88 -26 95 -51 3 -9 6 -39
7 -67 2 -60 34 -239 53 -292 8 -21 28 -68 45 -105 17 -37 43 -113 58 -168 23
-88 25 -105 14 -138 -9 -27 -10 -48 -2 -77 5 -22 14 -58 20 -80 6 -22 11 -70
12 -108 1 -55 7 -75 30 -113 36 -55 76 -74 162 -74 77 0 97 13 104 68 5 37 2
47 -31 89 -20 26 -41 64 -48 85 -6 21 -15 38 -20 38 -5 0 -6 11 -2 25 3 14 2
25 -2 25 -5 0 -10 35 -12 78 -2 42 -8 97 -14 122 -6 25 -12 137 -14 250 -3
117 -11 242 -19 290 -17 97 -19 156 -6 164 5 3 29 8 52 11 24 3 53 8 64 12
l20 6 -20 9 c-14 6 -10 7 15 3 25 -4 31 -2 20 5 -13 8 -12 10 3 10 9 0 17 6
17 14 0 8 6 16 12 18 9 3 7 13 -7 34 -11 16 -18 32 -17 37 1 4 -9 30 -23 59
-14 28 -23 53 -20 56 2 2 -6 25 -19 51 -22 43 -43 121 -32 121 7 0 50 -73 53
-88 2 -18 13 -29 13 -13 0 7 5 9 10 6 18 -11 10 12 -11 31 -20 18 -49 65 -49
80 0 3 12 -1 28 -10 24 -15 23 -13 -6 12 -19 17 -42 54 -57 92 -34 86 -31 98
6 27 28 -55 99 -156 99 -141 0 3 -18 32 -39 64 -80 117 -139 274 -161 427 -10
77 -40 184 -49 178 -3 -2 -5 15 -5 38 l1 41 64 3 c63 2 64 1 86 -32 23 -35 28
-94 11 -128 -7 -14 -5 -24 8 -39 20 -21 29 -88 13 -88 -5 0 -9 -10 -9 -22 0
-19 2 -20 10 -8 8 13 10 12 10 -2 0 -11 -8 -18 -19 -18 -26 0 -33 -13 -22 -42
l10 -23 0 24 c1 32 11 21 15 -15 2 -16 4 -33 5 -38 0 -4 10 -6 21 -3 11 3 18
2 15 -3 -3 -4 8 -10 23 -13 18 -4 44 3 79 20 69 34 75 60 44 203 -12 58 -24
119 -27 135 -8 51 -9 233 -1 228 4 -2 7 3 7 11 0 21 -2 20 -36 -9 -33 -28 -94
-54 -75 -31 6 7 8 15 5 19 -3 3 4 3 17 0 14 -4 20 -2 16 4 -4 6 11 29 33 51
22 22 40 36 40 31 0 -6 -16 -24 -35 -41 -20 -17 -34 -33 -31 -35 8 -8 74 47
78 65 7 26 -2 42 -19 35 -10 -4 -14 -2 -10 5 4 6 10 42 13 80 6 74 -4 109 -44
145 -11 11 -24 36 -27 58 -5 28 -12 39 -24 39 -31 0 -89 81 -95 133 -1 12 -7
33 -13 47 -16 39 -23 90 -13 90 5 0 11 -4 14 -9 7 -11 84 -23 97 -15 5 3 -4
24 -21 47 -33 45 -38 62 -15 53 18 -7 20 5 3 22 -9 9 -9 12 3 12 12 0 12 2 -1
10 -8 5 -10 10 -5 10 14 -1 38 -22 51 -45 6 -11 20 -21 30 -23 16 -3 15 0 -6
18 l-25 21 30 -6 c25 -5 22 -2 -17 20 -27 14 -48 31 -48 37 0 9 -3 9 -11 1 -9
-9 -16 -30 -18 -57 -1 -10 -16 1 -16 12 -2 20 -37 72 -46 66 -6 -4 -3 -14 8
-27 17 -19 16 -19 -13 2 -16 12 -38 35 -48 52 -9 16 -21 29 -27 29 -5 0 -9 8
-8 18 0 10 3 12 6 5 2 -7 12 -13 21 -12 11 0 12 2 5 6 -7 2 -13 9 -13 14 0 6
6 7 13 3 6 -4 4 1 -5 12 -17 18 -18 18 -33 -1 -19 -26 -19 -72 0 -91 16 -16 7
-54 -20 -80 -17 -18 -20 -34 -5 -34 6 0 10 -5 10 -11 0 -5 -4 -7 -10 -4 -5 3
-10 -3 -10 -14 0 -11 -4 -22 -9 -26 -6 -3 -6 6 -1 24 4 16 6 32 4 34 -3 3 5
23 17 46 17 34 19 45 9 54 -10 9 -11 9 -6 0 4 -7 2 -13 -3 -13 -6 0 -11 -9
-11 -19 0 -11 -5 -23 -11 -27 -8 -4 -9 3 -4 26 5 23 3 35 -6 42 -11 7 -9 8 6
6 21 -3 35 30 17 41 -14 9 -25 51 -13 51 6 0 10 -3 10 -7 -4 -23 3 -24 21 -3
14 16 17 27 10 40 -7 13 -5 21 5 30 11 10 12 16 4 26 -6 7 -14 13 -17 12 -4
-1 -19 2 -35 7 -22 6 -25 10 -16 21 9 11 13 11 26 -1 8 -8 20 -15 26 -15 7 0
25 -12 41 -27 26 -24 27 -27 11 -33 -17 -6 -17 -7 -1 -13 9 -4 14 -12 11 -18
-4 -6 3 -22 16 -35 19 -21 21 -27 9 -34 -8 -5 -18 -6 -23 -3 -5 3 -1 -9 8 -27
9 -17 19 -30 22 -27 2 3 0 15 -7 26 -17 33 5 25 43 -14 33 -34 56 -47 41 -24
-4 7 2 9 17 7 13 -2 23 -9 22 -15 -1 -6 7 -13 18 -16 20 -5 20 -5 3 14 -27 30
-2 22 33 -11 45 -42 54 -38 12 6 -20 21 -41 33 -51 31 -9 -3 -30 3 -46 13 -17
10 -33 16 -36 13 -3 -4 -6 -1 -6 5 0 7 -7 12 -16 12 -8 0 -12 5 -8 11 3 6 -6
24 -22 40 -47 49 -17 32 38 -21 28 -27 56 -50 62 -50 6 1 -2 12 -19 25 -16 13
-27 26 -25 29 9 8 61 -44 55 -54 -11 -17 17 -11 30 7 12 15 15 15 49 -1 20 -9
41 -14 48 -10 7 4 -5 14 -28 23 -45 18 -101 56 -126 86 -31 36 -19 40 17 5 40
-39 43 -36 14 17 -27 48 -39 63 -52 63 -5 0 -2 -9 8 -20 11 -12 13 -20 6 -20
-6 0 -21 16 -32 35 -31 52 -42 43 -12 -10 14 -25 22 -52 19 -61 -3 -8 -2 -13
2 -10 5 3 15 -3 24 -12 9 -9 27 -26 41 -37 13 -11 22 -26 19 -33 -3 -9 -15 -4
-37 18 -19 18 -38 29 -43 26 -6 -3 -13 7 -17 24 -4 16 -11 32 -16 35 -5 4 -9
11 -9 17 0 6 7 5 17 -3 15 -13 15 -12 2 8 -8 14 -16 18 -20 11 -4 -6 -14 2
-24 22 -23 45 -83 103 -97 94 -6 -4 -8 -3 -5 3 4 6 -7 16 -23 23 -16 7 -27 16
-25 21 6 9 76 -29 88 -48 13 -21 29 -16 18 6 -6 10 -8 21 -5 23 2 3 -3 11 -12
18 -13 12 -17 11 -25 -1 -5 -9 -9 -10 -9 -2 0 7 -16 15 -36 19 -19 3 -44 15
-54 26 -19 20 -19 20 -47 0 -49 -35 -61 -55 -98 -167 -20 -60 -46 -125 -58
-144 -12 -20 -21 -45 -20 -56 3 -20 3 -20 -6 0 -5 13 -1 33 15 65 13 25 37 86
54 135 41 121 48 133 96 166 41 28 43 28 100 16 33 -6 65 -18 72 -27 11 -13
12 -11 10 10 -3 22 -9 25 -75 35 -49 8 -87 21 -122 43 -28 17 -51 26 -51 20 0
-10 -72 -4 -109 10 -14 5 -14 3 -2 -11 7 -9 16 -15 20 -13 11 7 104 -47 109
-63 3 -10 -5 -7 -26 7 -37 27 -46 28 -38 5 4 -10 -4 -5 -17 11 -13 16 -28 26
-34 23 -11 -7 -44 28 -35 38 4 3 0 10 -8 15 -19 12 -4 12 38 1 20 -6 32 -6 32
0 0 5 -6 9 -13 9 -7 0 -25 5 -39 12 -21 10 -27 22 -32 63 -3 27 -10 73 -15
100 -5 28 -8 51 -7 52 2 2 74 -47 128 -86 18 -13 18 -13 8 10 -11 23 -67 65
-82 61 -5 -1 -8 6 -9 16 0 11 -2 13 -6 4 -4 -10 -13 -6 -34 14 -16 15 -29 33
-29 38 0 14 -85 106 -96 105 -5 -1 -20 -6 -34 -11z m7 -28 c-1 -22 -17 -28
-17 -7 0 12 9 27 16 27 2 0 2 -9 1 -20z m3 -40 c0 -13 -11 -13 -30 0 -12 8
-11 10 8 10 12 0 22 -4 22 -10z m-53 -42 c0 -20 -1 -24 -4 -10 -2 12 -10 22
-16 22 -9 0 4 14 18 20 1 0 1 -15 2 -32z m43 -12 c0 -32 -15 -56 -34 -56 -6 0
-3 5 6 11 14 8 17 19 13 50 -4 26 -2 38 5 34 5 -3 10 -21 10 -39z m-70 -16
c-20 -13 -33 -13 -25 0 3 6 14 10 23 10 15 0 15 -2 2 -10z m-26 -46 c3 -8 2
-12 -4 -9 -6 3 -10 10 -10 16 0 14 7 11 14 -7z m96 -14 c0 -5 -5 -10 -11 -10
-5 0 -7 5 -4 10 3 6 8 10 11 10 2 0 4 -4 4 -10z m3 -160 c-2 -78 0 -130 6
-130 5 0 12 6 14 13 3 7 6 4 6 -6 1 -14 -5 -18 -26 -15 -14 2 -28 10 -30 18
-4 13 -3 13 6 0 7 -11 10 20 9 108 -1 115 -10 153 -24 97 -6 -24 -24 -35 -24
-15 0 13 45 60 57 60 5 0 7 -58 6 -130z m62 120 c3 -6 -1 -7 -9 -4 -18 7 -21
14 -7 14 6 0 13 -4 16 -10z m-33 -42 c-9 -9 -12 -7 -12 12 0 19 3 21 12 12 9
-9 9 -15 0 -24z m78 -8 c0 -5 -2 -10 -4 -10 -3 0 -8 5 -11 10 -3 6 -1 10 4 10
6 0 11 -4 11 -10z m-34 -30 c0 -23 -12 -17 -19 9 -3 12 0 18 7 15 6 -2 12 -13
12 -24z m-108 9 c14 0 13 -2 -3 -9 -30 -13 -42 -12 -42 5 0 10 6 14 14 10 8
-3 22 -5 31 -6z m1 -75 c2 -13 -2 -11 -20 8 -13 14 -34 28 -46 32 -13 4 -23
11 -23 17 0 16 85 -38 89 -57z m68 44 c-3 -8 -6 -5 -6 6 -1 11 2 17 5 13 3 -3
4 -12 1 -19z m-60 -2 c0 -8 -6 -12 -14 -9 -7 3 -13 9 -13 14 0 5 6 9 13 9 8 0
14 -6 14 -14z m120 -18 c-3 -8 -6 -5 -6 6 -1 11 2 17 5 13 3 -3 4 -12 1 -19z
m-27 0 c0 -6 -3 -8 -7 -5 -3 4 -13 1 -22 -6 -14 -11 -14 -10 -2 6 15 20 31 22
31 5z m-243 -70 c-3 -8 -6 -5 -6 6 -1 11 2 17 5 13 3 -3 4 -12 1 -19z m-17 -6
c0 -3 -11 -20 -25 -38 -29 -38 -31 -46 -8 -37 11 4 14 3 9 -6 -4 -7 -13 -10
-19 -8 -7 2 -20 -2 -29 -11 -11 -9 -18 -11 -18 -4 0 6 6 15 13 19 8 4 22 23
32 41 11 17 23 32 28 32 5 0 4 7 -3 15 -11 13 -10 14 4 9 9 -3 16 -9 16 -12z
m341 -5 c-10 -9 -11 -8 -5 6 3 10 9 15 12 12 3 -3 0 -11 -7 -18z m226 1 c32
-22 42 -38 24 -38 -5 0 -11 7 -15 15 -3 8 -14 15 -25 15 -10 0 -21 7 -25 15
-8 21 2 19 41 -7z m-2 -28 c3 -5 2 -10 -4 -10 -5 0 -13 5 -16 10 -3 6 -2 10 4
10 5 0 13 -4 16 -10z m-551 -55 c3 -8 1 -15 -4 -15 -6 0 -10 7 -10 15 0 8 2
15 4 15 2 0 6 -7 10 -15z m-70 -38 c-3 -9 -17 -23 -30 -32 -21 -14 -24 -14
-24 0 0 8 6 15 13 15 7 0 18 9 25 21 15 23 26 21 16 -4z m691 -2 c-16 -14 -33
-25 -36 -25 -4 0 -14 -19 -23 -42 -33 -84 -70 -158 -78 -158 -5 0 -2 10 7 23
8 12 26 54 40 92 18 51 35 79 63 102 20 18 42 32 47 32 6 0 -3 -11 -20 -24z
m-616 -30 c0 -5 -4 -3 -9 5 -5 8 -9 22 -9 30 0 16 17 -16 18 -35z m334 28
c-10 -10 -26 -27 -36 -38 -18 -20 -18 -20 -6 5 12 25 37 49 52 50 5 0 0 -8
-10 -17z m-295 -18 c-3 -3 -9 2 -12 12 -6 14 -5 15 5 6 7 -7 10 -15 7 -18z
m431 -9 c-7 -14 -16 -26 -20 -26 -5 0 0 13 9 29 20 36 27 34 11 -3z m72 7
c-12 -20 -14 -14 -5 12 4 9 9 14 11 11 3 -2 0 -13 -6 -23z m-291 7 c0 -5 -5
-10 -11 -10 -5 0 -7 5 -4 10 3 6 8 10 11 10 2 0 4 -4 4 -10z m368 -35 c-27
-24 -48 -48 -48 -54 0 -5 -4 -13 -10 -16 -5 -3 -10 -1 -10 5 0 15 91 110 105
109 6 0 -11 -19 -37 -44z m-634 -63 c10 -19 15 -36 12 -40 -3 -3 -6 -1 -6 5 0
5 -13 30 -30 54 -16 24 -30 48 -30 53 0 13 34 -33 54 -72z m35 25 c1 -5 -3 -5
-9 -2 -5 3 -10 16 -9 28 0 21 1 21 9 2 5 -11 9 -24 9 -28z m728 18 c16 -10 42
-37 56 -62 32 -51 32 -53 11 -53 -8 0 -12 5 -9 11 4 5 0 18 -8 27 -7 9 -17 25
-20 34 -4 11 -13 15 -27 11 -16 -4 -23 0 -27 15 -3 14 -10 19 -21 15 -11 -5
-13 -3 -7 7 5 8 3 11 -6 8 -8 -3 -14 -10 -14 -17 0 -6 -6 -15 -13 -20 -10 -6
-6 -15 19 -34 25 -19 37 -23 46 -15 15 12 17 0 4 -20 -6 -11 -11 -10 -25 3
-15 15 -16 14 -10 -22 l5 -38 -24 28 c-13 15 -27 27 -31 27 -4 0 -1 -12 7 -27
8 -16 21 -41 28 -58 8 -16 18 -33 24 -38 6 -4 0 -10 -13 -13 -19 -6 -22 -11
-17 -35 4 -17 2 -29 -3 -29 -14 0 -23 30 -17 51 4 11 2 19 -4 19 -6 0 -11 -7
-11 -16 0 -8 -4 -13 -10 -9 -5 3 -7 12 -3 21 3 8 -4 23 -16 33 -11 10 -21 28
-21 41 0 20 2 21 17 9 15 -12 16 -12 10 4 -4 9 -2 17 4 17 7 0 9 -12 7 -29 -3
-20 -1 -28 8 -24 8 3 16 -6 20 -21 3 -14 10 -26 15 -26 13 0 11 14 -6 36 -8
10 -15 29 -15 40 0 12 -11 29 -25 38 -14 9 -26 26 -26 39 l-2 22 -4 -23 c-2
-12 -9 -20 -14 -17 -5 3 -6 -1 -3 -9 3 -9 2 -16 -3 -16 -12 0 -9 -26 6 -63 15
-37 14 -42 -4 -27 -8 7 -15 19 -15 26 0 8 -4 14 -10 14 -32 0 19 121 69 163
35 29 81 30 128 2z m-900 -1 c-3 -3 -12 -4 -19 -1 -8 3 -5 6 6 6 11 1 17 -2
13 -5z m403 -7 c0 -2 -12 -14 -27 -28 l-28 -24 24 28 c23 25 31 32 31 24z
m168 -23 c-7 -15 -14 -21 -16 -15 -2 7 2 18 8 26 18 22 21 18 8 -11z m-565
-54 c-8 -9 -23 25 -22 50 0 22 2 20 13 -10 7 -19 11 -37 9 -40z m-110 23 c3
-16 8 -37 12 -48 4 -14 2 -13 -9 5 -8 14 -16 21 -16 15 -1 -5 -5 1 -11 13 -9
24 -5 42 10 42 5 0 11 -12 14 -27z m137 -8 c0 -5 -5 -3 -10 5 -5 8 -10 20 -10
25 0 6 5 3 10 -5 5 -8 10 -19 10 -25z m170 10 c7 -8 8 -15 2 -15 -5 0 -15 7
-22 15 -7 8 -8 15 -2 15 5 0 15 -7 22 -15z m183 -6 c-18 -18 -25 -20 -49 -10
l-29 11 31 -6 c21 -3 35 0 44 11 7 8 15 15 18 15 4 0 -3 -10 -15 -21z m143 -7
c-18 -16 -18 -16 -6 6 6 13 14 21 18 18 3 -4 -2 -14 -12 -24z m158 -37 c-8
-21 -13 -48 -10 -60 4 -15 -1 -28 -14 -40 -21 -19 -28 -7 -8 13 7 7 8 12 3 12
-5 0 -24 -16 -42 -36 -18 -20 -33 -33 -33 -28 1 13 58 74 70 74 5 0 10 9 10
20 0 20 31 92 37 86 2 -1 -4 -20 -13 -41z m-634 15 c0 -5 -4 -10 -10 -10 -5 0
-10 5 -10 10 0 6 5 10 10 10 6 0 10 -4 10 -10z m145 0 c3 -5 1 -10 -4 -10 -6
0 -11 5 -11 10 0 6 2 10 4 10 3 0 8 -4 11 -10z m37 -70 c4 0 8 -5 8 -10 0 -13
-49 18 -72 45 -32 37 -18 39 19 2 20 -20 40 -37 45 -37z m58 66 c0 -2 -8 -10
-17 -17 -16 -13 -17 -12 -4 4 13 16 21 21 21 13z m135 -6 c-3 -5 -16 -15 -28
-21 -19 -9 -19 -8 3 10 28 23 34 26 25 11z m19 -21 c-10 -12 -35 -29 -55 -40
-20 -10 -39 -25 -42 -34 -4 -8 -14 -15 -24 -15 -15 0 -16 2 -3 10 12 7 8 10
-15 11 -27 0 -25 2 15 14 25 8 65 28 90 44 55 36 58 37 34 10z m-410 -39 c10
-13 9 -13 -6 -1 -10 7 -17 23 -17 35 1 20 2 20 6 1 3 -11 10 -27 17 -35z m844
25 c-3 -3 -9 2 -12 12 -6 14 -5 15 5 6 7 -7 10 -15 7 -18z m-1039 -15 c-7 -5
-9 -18 -5 -34 4 -15 2 -26 -4 -26 -5 0 -10 18 -10 40 0 32 3 38 16 33 12 -4
12 -8 3 -13z m279 -2 c7 -7 12 -16 12 -22 0 -5 -6 -2 -13 8 -14 20 -47 12 -47
-11 0 -8 5 -11 10 -8 6 3 10 1 10 -5 0 -7 7 -9 16 -6 14 5 15 4 5 -8 -11 -13
-15 -13 -32 2 -10 9 -19 21 -19 27 0 14 21 35 35 35 6 0 16 -5 23 -12z m423
-31 c-10 -9 -11 -8 -5 6 3 10 9 15 12 12 3 -3 0 -11 -7 -18z m-684 -9 c-3 -8
-6 -5 -6 6 -1 11 2 17 5 13 3 -3 4 -12 1 -19z m112 -11 c0 -21 -1 -21 -9 -2
-12 28 -12 37 0 30 6 -3 10 -16 9 -28z m-173 -3 c-11 -7 -17 -17 -13 -20 4 -4
13 -1 22 6 11 9 15 9 15 1 0 -7 5 -9 10 -6 6 4 10 -6 9 -22 0 -27 -1 -27 -11
-5 -12 24 -23 28 -33 12 -4 -6 -15 -8 -26 -5 -12 4 -19 2 -19 -6 0 -7 -3 -9
-7 -6 -4 4 9 23 27 42 18 19 36 32 39 29 3 -3 -3 -12 -13 -20z m409 5 c6 -4
31 -9 55 -12 l45 -4 -45 -1 c-25 0 -62 8 -85 18 -35 17 -36 19 -10 13 17 -3
35 -9 40 -14z m249 -4 c-7 -16 -24 -21 -24 -6 0 8 7 13 27 20 1 1 0 -6 -3 -14z
m286 -25 c5 0 11 5 13 10 3 6 4 5 3 -2 -4 -21 -50 -16 -54 6 -4 18 -3 19 13 3
9 -9 20 -17 25 -17z m-873 -7 c1 -22 -1 -24 -8 -10 -6 9 -7 22 -4 27 9 14 10
13 12 -17z m258 8 c-3 -6 -11 -11 -17 -11 -6 0 -6 6 2 15 14 17 26 13 15 -4z
m55 2 c0 -3 -7 -3 -15 1 -19 7 -20 -8 -1 -23 10 -8 16 -8 25 3 14 16 54 9 44
-8 -4 -6 1 -5 10 2 9 8 21 11 27 7 5 -3 10 -1 10 6 0 8 4 7 13 -3 6 -9 21 -19
32 -22 11 -3 -1 -3 -27 0 -39 4 -48 2 -57 -15 -6 -11 -11 -28 -11 -38 0 -10
-5 -35 -11 -56 -10 -36 -11 -38 -25 -20 -14 17 -15 16 -8 -7 4 -18 -4 -12 -28
23 -20 27 -34 57 -32 70 1 12 3 31 3 41 1 27 12 14 17 -23 3 -20 1 -31 -7 -31
-8 0 -8 -4 1 -15 7 -9 16 -12 19 -8 13 17 31 12 31 -9 1 -22 1 -23 15 -4 18
24 20 85 3 88 -7 0 -17 2 -23 3 -5 2 -15 3 -21 4 -14 1 -26 29 -19 41 6 9 35
3 35 -7z m190 -8 c0 -10 6 -12 18 -8 16 6 16 6 -1 -11 -21 -21 -22 -21 -31 17
-4 19 -3 26 4 22 5 -3 10 -13 10 -20z m306 10 c-3 -8 0 -15 6 -15 6 0 9 -3 5
-6 -3 -4 -13 -4 -22 0 -13 5 -14 8 -3 20 17 20 22 20 14 1z m261 -30 c13 -19
17 -32 10 -30 -9 4 -11 -8 -9 -44 3 -34 -1 -57 -12 -73 -9 -12 -16 -20 -17
-18 0 3 -3 16 -5 30 -3 14 0 49 7 78 9 40 10 55 1 64 -14 14 -16 28 -4 28 4 0
17 -16 29 -35z m-449 -28 c-11 -34 -48 -70 -44 -42 1 8 10 22 19 33 9 10 17
24 17 30 0 7 4 12 9 12 5 0 5 -14 -1 -33z m270 14 c2 -6 10 -11 18 -11 8 0 14
-7 14 -15 0 -8 6 -12 14 -9 9 3 19 -4 26 -18 10 -19 10 -21 -1 -10 -21 20 -30
14 -23 -15 7 -25 6 -26 -8 -12 -10 10 -29 14 -52 13 -28 -2 -38 2 -47 17 -6
12 -8 23 -6 26 3 2 8 -4 11 -15 5 -13 15 -19 31 -18 l25 1 -23 17 c-12 10 -17
18 -11 18 6 0 24 -10 40 -22 24 -19 27 -20 21 -4 -4 10 -7 22 -7 27 0 5 -3 8
-7 7 -14 -4 -73 21 -73 30 0 13 54 6 58 -7z m-175 -11 c3 -11 1 -20 -4 -20 -5
0 -9 9 -9 20 0 11 2 20 4 20 2 0 6 -9 9 -20z m-494 -11 c-22 -13 -31 -11 -17
5 7 8 17 12 22 9 4 -3 2 -9 -5 -14z m349 -1 c-19 -18 -41 -21 -36 -6 3 7 10
13 16 13 5 0 14 3 18 8 4 4 9 5 12 2 2 -2 -2 -10 -10 -17z m-538 2 c0 -5 -2
-10 -4 -10 -3 0 -8 5 -11 10 -3 6 -1 10 4 10 6 0 11 -4 11 -10z m-50 -9 c0 -6
-4 -13 -10 -16 -5 -3 -10 1 -10 9 0 9 5 16 10 16 6 0 10 -4 10 -9z m345 -1 c3
-6 -1 -7 -9 -4 -18 7 -21 14 -7 14 6 0 13 -4 16 -10z m190 1 c3 -5 1 -12 -5
-16 -5 -3 -10 1 -10 9 0 18 6 21 15 7z m271 -16 c-5 -20 -3 -23 11 -18 11 4
14 3 9 -5 -10 -17 -36 -15 -36 2 0 18 10 46 17 46 3 0 2 -11 -1 -25z m-546 1
c0 -2 -7 -7 -16 -10 -8 -3 -12 -2 -9 4 6 10 25 14 25 6z m208 -13 c9 -3 26 -5
37 -4 24 4 22 1 -35 -34 -25 -16 -39 -21 -31 -12 8 10 9 17 3 17 -6 0 -14 -4
-17 -10 -3 -5 -12 -10 -18 -9 -9 0 -9 2 1 6 6 2 12 9 12 14 0 16 -30 -3 -31
-20 0 -11 -2 -12 -6 -3 -3 7 2 21 11 31 9 10 13 21 9 25 -4 4 1 4 11 0 13 -5
17 -4 12 4 -7 12 1 11 42 -5z m-531 -15 c-3 -8 -6 -5 -6 6 -1 11 2 17 5 13 3
-3 4 -12 1 -19z m180 0 c-3 -8 -6 -5 -6 6 -1 11 2 17 5 13 3 -3 4 -12 1 -19z
m459 10 c4 -6 3 -8 -3 -5 -6 4 -16 0 -23 -8 -7 -8 -17 -15 -23 -15 -5 0 -2 9
8 20 21 23 31 25 41 8z m-549 -20 c-3 -8 -6 -5 -6 6 -1 11 2 17 5 13 3 -3 4
-12 1 -19z m1123 -3 c7 -8 19 -14 28 -13 8 2 17 -3 19 -10 3 -7 -1 -10 -11 -6
-28 11 -17 -5 17 -26 31 -19 29 -26 -4 -12 -20 9 -84 82 -71 82 5 0 15 -7 22
-15z m-245 -15 c15 -7 9 -9 -23 -8 -24 1 -46 6 -48 10 -7 11 46 9 71 -2z
m-1005 -10 c0 -5 -5 -10 -11 -10 -5 0 -7 5 -4 10 3 6 8 10 11 10 2 0 4 -4 4
-10z m120 0 c8 -5 12 -12 9 -15 -8 -8 -39 5 -39 16 0 11 11 11 30 -1z m480 0
c-20 -13 -33 -13 -25 0 3 6 14 10 23 10 15 0 15 -2 2 -10z m-548 -22 c-7 -7
-12 -8 -12 -2 0 14 12 26 19 19 2 -3 -1 -11 -7 -17z m115 15 c-4 -3 -2 -12 4
-20 9 -9 8 -13 0 -13 -6 0 -11 2 -11 4 0 2 -3 11 -6 20 -4 10 -1 16 7 16 7 0
9 -3 6 -7z m1040 -15 c-3 -8 -6 -5 -6 6 -1 11 2 17 5 13 3 -3 4 -12 1 -19z
m-687 9 c0 -2 -10 -12 -22 -23 l-23 -19 19 23 c18 21 26 27 26 19z m146 -56
l-27 -26 23 42 c15 28 24 37 26 27 2 -9 -8 -28 -22 -43z m324 55 c0 -3 -4 -8
-10 -11 -5 -3 -10 -1 -10 4 0 6 5 11 10 11 6 0 10 -2 10 -4z m53 -19 c13 -20
13 -25 1 -42 -12 -15 -18 -17 -32 -9 -19 12 -23 42 -9 62 14 17 23 15 40 -11z
m-418 -6 c-3 -6 -11 -11 -17 -11 -6 0 -6 6 2 15 14 17 26 13 15 -4z m-501 -11
c3 -11 9 -29 12 -40 3 -11 1 -20 -4 -20 -6 0 -13 11 -16 24 -3 13 -9 31 -12
40 -3 9 -1 16 4 16 6 0 13 -9 16 -20z m440 8 c-4 -7 -15 -22 -25 -33 -10 -11
-25 -33 -33 -50 -11 -21 -16 -24 -16 -12 0 10 17 38 37 63 37 44 51 56 37 32z
m149 -8 c-3 -11 -10 -23 -16 -27 -7 -4 -8 0 -4 11 4 10 7 22 7 27 0 5 4 9 9 9
5 0 7 -9 4 -20z m483 -32 l-16 -22 0 26 c0 14 6 28 13 31 19 6 20 -10 3 -35z
m-986 17 c0 -8 -2 -15 -4 -15 -2 0 -6 7 -10 15 -3 8 -1 15 4 15 6 0 10 -7 10
-15z m-53 -17 c-3 -8 -6 -5 -6 6 -1 11 2 17 5 13 3 -3 4 -12 1 -19z m256 -8
c3 -11 2 -18 -3 -15 -4 3 -10 14 -13 25 -3 11 -2 18 3 15 4 -3 10 -14 13 -25z
m207 19 c0 8 3 12 6 8 3 -3 1 -14 -5 -24 -7 -13 -10 -14 -11 -3 0 11 -3 11
-12 2 -21 -21 -32 -13 -13 8 14 16 20 17 27 8 6 -10 8 -10 8 1z m508 -39 c-1
-32 -4 -38 -15 -29 -16 14 -18 33 -1 23 8 -5 9 2 5 25 -4 20 -3 30 3 26 5 -3
9 -24 8 -45z m-558 36 c0 -2 -8 -10 -17 -17 -16 -13 -17 -12 -4 4 13 16 21 21
21 13z m520 -16 c0 -5 -4 -11 -10 -15 -5 -3 -7 -13 -4 -23 5 -14 4 -14 -4 -3
-8 12 -13 12 -25 2 -9 -7 -18 -8 -21 -3 -3 6 5 13 19 16 24 6 35 26 14 26 -5
0 -8 4 -4 10 6 10 35 2 35 -10z m70 -2 c0 -16 -3 -19 -11 -11 -6 6 -8 16 -5
22 11 17 16 13 16 -11z m-681 -22 c-7 -14 -16 -26 -21 -26 -12 0 -10 8 8 36
21 31 29 25 13 -10z m234 4 c3 -11 1 -18 -4 -14 -5 3 -9 12 -9 20 0 20 7 17
13 -6z m-645 -26 c-13 -29 -29 -35 -36 -14 -2 6 0 9 5 8 4 -2 9 0 10 5 4 11
27 36 31 32 2 -2 -2 -16 -10 -31z m569 -3 c0 -11 -5 -18 -9 -15 -4 3 -5 11 -1
19 7 21 12 19 10 -4z m33 5 c0 -3 -4 -8 -10 -11 -5 -3 -10 -1 -10 4 0 6 5 11
10 11 6 0 10 -2 10 -4z m-110 -59 c0 -5 -4 -5 -10 -2 -5 3 -10 14 -10 23 0 15
2 15 10 2 5 -8 10 -19 10 -23z m640 25 c0 -8 -53 -42 -66 -42 -5 0 7 11 26 25
40 28 40 28 40 17z m-540 -14 c0 -11 -31 -10 -50 2 -10 6 -5 9 18 8 18 -1 32
-5 32 -10z m-160 -3 c0 -2 -5 -15 -11 -29 -14 -29 -39 -24 -38 8 0 20 1 20 9
1 6 -14 9 -16 10 -5 2 8 2 18 1 23 0 4 6 7 14 7 8 0 15 -2 15 -5z m724 -14 c3
-4 -22 -28 -57 -51 -34 -24 -57 -37 -50 -30 6 7 9 18 7 25 -5 12 51 45 75 45
6 0 11 5 11 10 0 12 7 13 14 1z m-671 -69 c4 -5 0 -9 -8 -9 -8 0 -13 3 -10 5
3 3 0 11 -5 17 -6 7 -7 21 -3 31 6 16 8 15 14 -8 4 -15 9 -31 12 -36z m505
-32 c39 -64 46 -85 52 -149 6 -57 13 -79 27 -91 28 -22 43 -54 43 -89 0 -16 6
-36 13 -43 41 -41 21 -78 -45 -85 -44 -5 -47 -4 -62 25 -9 17 -16 36 -16 42 0
5 -23 58 -51 117 -49 104 -50 108 -51 200 0 92 15 157 35 150 5 -1 30 -36 55
-77z m-603 14 c-3 -40 -35 -85 -35 -49 0 25 22 85 31 85 4 0 6 -16 4 -36z
m186 9 c-12 -20 -14 -14 -5 12 4 9 9 14 11 11 3 -2 0 -13 -6 -23z m-132 -63
c0 -3 -8 11 -18 30 -11 19 -17 39 -14 44 5 7 33 -58 32 -74z m713 65 c1 -10
-70 -54 -87 -54 -5 0 8 11 30 25 22 13 39 29 37 35 -1 6 2 9 8 7 7 -2 12 -8
12 -13z m-33 1 c-2 -2 -15 -9 -29 -15 -24 -11 -24 -11 -6 3 16 13 49 24 35 12z
m-639 -26 c5 8 10 11 10 5 0 -5 -4 -16 -9 -24 -11 -17 -31 -6 -31 17 0 15 2
15 10 2 9 -13 11 -13 20 0z m-326 -17 c2 -10 8 -56 11 -103 6 -80 5 -87 -18
-112 -13 -15 -30 -28 -37 -30 -8 -2 -21 -9 -28 -16 -8 -7 -18 -10 -23 -7 -14
9 -11 31 6 45 8 7 15 22 15 34 0 11 11 52 25 90 14 38 25 80 25 92 0 28 16 32
24 7z m266 -48 c7 -35 8 -60 2 -71 -9 -15 -10 -15 -17 6 -4 12 -3 25 2 29 5 3
6 20 2 36 -4 19 -7 23 -8 10 -1 -11 -6 -27 -11 -35 -10 -14 -7 11 7 63 7 27
11 21 23 -38z m95 45 c-3 -5 -11 -10 -16 -10 -6 0 -7 5 -4 10 3 6 11 10 16 10
6 0 7 -4 4 -10z m650 -10 c-17 -19 -17 -20 0 -26 12 -5 23 -1 31 11 8 10 14
13 14 7 0 -13 -57 -52 -75 -52 -5 0 -1 6 9 12 19 10 19 11 0 27 -11 9 -17 15
-15 14 2 -1 13 4 25 12 28 21 32 19 11 -5z m-668 -41 c2 -11 -1 -18 -6 -14 -6
3 -9 14 -8 25 2 23 10 17 14 -11z m26 6 c-3 -9 -8 -14 -10 -11 -3 3 -2 9 2 15
9 16 15 13 8 -4z m577 11 c0 -2 -7 -7 -16 -10 -8 -3 -12 -2 -9 4 6 10 25 14
25 6z m141 -70 c-43 -89 -97 -130 -141 -106 -12 7 -19 14 -17 17 3 2 14 0 25
-6 14 -8 27 -6 52 8 37 19 37 20 76 104 14 32 28 56 31 53 3 -2 -9 -34 -26
-70z m69 44 c0 -5 -7 -7 -15 -4 -8 4 -15 8 -15 10 0 2 7 4 15 4 8 0 15 -4 15
-10z m-20 -27 c-1 -5 -12 -21 -26 -38 -15 -19 -22 -23 -18 -11 4 11 15 27 23
37 19 20 21 22 21 12z m-1365 -15 c5 4 5 1 1 -6 -6 -10 -11 -10 -22 -1 -8 6
-14 14 -14 16 0 3 6 0 13 -6 8 -6 18 -7 22 -3z m541 -26 c-17 -16 -18 -16 -5
5 7 12 15 20 18 17 3 -2 -3 -12 -13 -22z m882 3 c26 -29 28 -39 7 -31 -10 3
-14 -1 -13 -12 1 -9 0 -26 -1 -37 -1 -18 -3 -18 -14 -4 -17 22 -43 29 -57 16
-10 -9 -11 -9 -8 3 3 8 14 14 26 13 11 -1 26 5 33 14 12 14 11 15 -11 8 -24
-7 -24 -7 -5 9 11 8 15 16 8 16 -6 0 -18 -7 -27 -15 -28 -29 -30 -15 -1 15 16
17 32 30 35 30 4 0 16 -11 28 -25z m-1505 -39 c-3 -4 -9 -2 -14 5 -13 22 -11
31 5 17 8 -7 12 -17 9 -22z m742 14 c3 -5 1 -10 -4 -10 -6 0 -11 5 -11 10 0 6
2 10 4 10 3 0 8 -4 11 -10z m-720 -40 c3 -5 1 -10 -4 -10 -6 0 -11 5 -11 10 0
6 2 10 4 10 3 0 8 -4 11 -10z m50 -30 c13 -6 15 -9 5 -9 -8 0 -22 4 -30 9 -18
12 -2 12 25 0z m1295 -23 c0 -1 -21 -21 -47 -42 -35 -30 -42 -33 -28 -14 11
15 31 34 45 42 29 17 30 18 30 14z m-1348 -77 c57 -64 99 -121 80 -109 -12 8
-25 21 -27 30 -7 20 -53 64 -61 57 -3 -3 10 -23 28 -44 24 -28 26 -34 8 -19
-45 36 -61 58 -49 65 8 5 6 17 -6 41 -12 26 -12 29 -1 14 8 -11 21 -27 28 -35z
m283 32 c-3 -3 -11 0 -18 7 -9 10 -8 11 6 5 10 -3 15 -9 12 -12z m642 2 c-3
-3 -12 -4 -19 -1 -8 3 -5 6 6 6 11 1 17 -2 13 -5z m-44 -11 c-7 -2 -19 -2 -25
0 -7 3 -2 5 12 5 14 0 19 -2 13 -5z m620 -8 c-3 -9 -8 -14 -10 -11 -3 3 -2 9
2 15 9 16 15 13 8 -4z m-673 -5 c-8 -5 -19 -10 -25 -10 -5 0 -3 5 5 10 8 5 20
10 25 10 6 0 3 -5 -5 -10z m590 -3 c0 -2 -9 -12 -20 -22 -24 -21 -27 -14 -4 9
15 15 24 20 24 13z m-990 -21 c0 -2 -7 -7 -16 -10 -8 -3 -12 -2 -9 4 6 10 25
14 25 6z m1034 -11 c-10 -8 -23 -14 -29 -14 -5 0 -1 6 9 14 11 8 24 15 30 15
5 0 1 -7 -10 -15z m-839 -5 c-19 -8 -19 -8 5 -18 17 -7 19 -11 8 -11 -9 -1
-20 4 -23 9 -3 6 -16 10 -28 11 -20 1 -20 2 3 9 34 11 61 11 35 0z m795 -14
c0 -2 -8 -10 -17 -17 -16 -13 -17 -12 -4 4 13 16 21 21 21 13z m50 -10 c0 -3
-4 -8 -10 -11 -5 -3 -10 -1 -10 4 0 6 5 11 10 11 6 0 10 -2 10 -4z m-33 -28
c-3 -8 -6 -5 -6 6 -1 11 2 17 5 13 3 -3 4 -12 1 -19z m-667 -43 c0 -5 -5 -3
-10 5 -5 8 -10 20 -10 25 0 6 5 3 10 -5 5 -8 10 -19 10 -25z m-822 0 c-3 -3
-9 2 -12 12 -6 14 -5 15 5 6 7 -7 10 -15 7 -18z m1222 -10 c11 -13 10 -14 -4
-9 -9 3 -16 10 -16 15 0 13 6 11 20 -6z m85 5 c3 -5 1 -10 -4 -10 -6 0 -11 5
-11 10 0 6 2 10 4 10 3 0 8 -4 11 -10z m145 0 c-8 -5 -19 -10 -25 -10 -5 0 -3
5 5 10 8 5 20 10 25 10 6 0 3 -5 -5 -10z m100 5 c0 -12 -46 -45 -62 -45 -13 0
-17 -4 -12 -12 5 -10 4 -10 -6 -1 -8 7 -12 14 -9 15 5 3 83 45 87 47 1 1 2 -1
2 -4z m-1535 -54 c-6 -5 -25 10 -25 20 0 5 6 4 14 -3 8 -7 12 -15 11 -17z m81
-8 c-6 -6 -36 9 -36 18 0 5 9 4 20 -3 10 -7 18 -14 16 -15z m1464 23 c0 -2 -8
-10 -17 -17 -16 -13 -17 -12 -4 4 13 16 21 21 21 13z m-733 -48 c-3 -8 -6 -5
-6 6 -1 11 2 17 5 13 3 -3 4 -12 1 -19z m-240 -110 c-2 -13 -4 -5 -4 17 -1 22
1 32 4 23 2 -10 2 -28 0 -40z m930 46 c-3 -3 -12 -4 -19 -1 -8 3 -5 6 6 6 11
1 17 -2 13 -5z m-895 -31 c-3 -16 -7 -22 -10 -15 -4 13 4 42 11 42 2 0 2 -12
-1 -27z m48 -46 c4 -5 10 3 14 17 3 14 11 26 16 26 8 0 -6 -56 -17 -69 -9 -11
-32 37 -31 64 l1 30 4 -30 c3 -16 8 -34 13 -38z m107 41 c-3 -8 -6 -5 -6 6 -1
11 2 17 5 13 3 -3 4 -12 1 -19z m40 -10 c-3 -8 -6 -5 -6 6 -1 11 2 17 5 13 3
-3 4 -12 1 -19z m31 -29 c-3 -8 -7 -3 -11 10 -4 17 -3 21 5 13 5 -5 8 -16 6
-23z m-211 -21 c-3 -7 -5 -2 -5 12 0 14 2 19 5 13 2 -7 2 -19 0 -25z m-100 0
c-3 -8 -6 -5 -6 6 -1 11 2 17 5 13 3 -3 4 -12 1 -19z m63 12 c-8 -5 -19 -10
-25 -10 -5 0 -3 5 5 10 8 5 20 10 25 10 6 0 3 -5 -5 -10z m897 -6 c-3 -3 -12
-4 -19 -1 -8 3 -5 6 6 6 11 1 17 -2 13 -5z m-667 -14 c0 -5 -2 -10 -4 -10 -3
0 -8 5 -11 10 -3 6 -1 10 4 10 6 0 11 -4 11 -10z m-240 -10 c0 -5 -5 -10 -11
-10 -5 0 -7 5 -4 10 3 6 8 10 11 10 2 0 4 -4 4 -10z m47 -32 c-3 -8 -6 -5 -6
6 -1 11 2 17 5 13 3 -3 4 -12 1 -19z m-61 -36 c-11 -10 -15 4 -8 28 l7 25 3
-23 c2 -13 1 -26 -2 -30z m94 44 c0 -3 -4 -8 -10 -11 -5 -3 -10 -1 -10 4 0 6
5 11 10 11 6 0 10 -2 10 -4z m194 -12 c3 -8 2 -12 -4 -9 -6 3 -10 10 -10 16 0
14 7 11 14 -7z m-257 -16 c-3 -8 -6 -5 -6 6 -1 11 2 17 5 13 3 -3 4 -12 1 -19z
m924 14 c9 -4 15 -17 14 -29 -1 -13 3 -23 9 -23 6 0 0 -9 -14 -19 l-24 -19
-13 36 c-21 61 -15 72 28 54z m-761 -12 c0 -5 -5 -10 -11 -10 -5 0 -7 5 -4 10
3 6 8 10 11 10 2 0 4 -4 4 -10z m-253 -22 c-3 -8 -6 -5 -6 6 -1 11 2 17 5 13
3 -3 4 -12 1 -19z m128 12 c3 -5 1 -10 -4 -10 -6 0 -11 5 -11 10 0 6 2 10 4
10 3 0 8 -4 11 -10z m147 -24 c2 -19 0 -32 -4 -30 -8 5 -12 64 -4 64 2 0 6
-15 8 -34z m-515 2 c-3 -8 -6 -5 -6 6 -1 11 2 17 5 13 3 -3 4 -12 1 -19z m550
-10 c-3 -8 -6 -5 -6 6 -1 11 2 17 5 13 3 -3 4 -12 1 -19z m-857 8 c0 -3 -4 -8
-10 -11 -5 -3 -10 -1 -10 4 0 6 5 11 10 11 6 0 10 -2 10 -4z m564 -22 c3 -8 2
-12 -4 -9 -6 3 -10 10 -10 16 0 14 7 11 14 -7z m202 -10 c9 3 12 1 9 -4 -12
-19 -35 -10 -34 13 1 18 2 18 6 4 3 -11 11 -16 19 -13z m181 4 c-3 -8 -6 -5
-6 6 -1 11 2 17 5 13 3 -3 4 -12 1 -19z m528 12 c3 -5 1 -10 -4 -10 -6 0 -11
5 -11 10 0 6 2 10 4 10 3 0 8 -4 11 -10z m-1148 -32 c-3 -7 -5 -2 -5 12 0 14
2 19 5 13 2 -7 2 -19 0 -25z m353 2 c-6 -11 -13 -20 -16 -20 -2 0 0 9 6 20 6
11 13 20 16 20 2 0 0 -9 -6 -20z m60 -31 c0 -5 -4 -9 -10 -9 -5 0 -10 7 -10
16 0 8 5 12 10 9 6 -3 10 -10 10 -16z m187 -11 c-3 -7 -5 -2 -5 12 0 14 2 19
5 13 2 -7 2 -19 0 -25z m-610 -10 c-3 -7 -5 -2 -5 12 0 14 2 19 5 13 2 -7 2
-19 0 -25z m1271 -31 c-10 -34 -28 -51 -28 -27 0 19 -21 10 -29 -12 -5 -15 -4
-26 3 -31 7 -6 6 -7 -4 -4 -31 8 -8 67 26 67 15 0 24 6 24 16 0 14 -3 14 -15
4 -13 -11 -14 -10 -9 3 5 13 32 27 41 22 1 0 -3 -18 -9 -38z m-854 18 c-4 -8
-8 -15 -10 -15 -2 0 -4 7 -4 15 0 8 4 15 10 15 5 0 7 -7 4 -15z m904 -2 c-2
-9 -10 -19 -18 -21 -12 -4 -13 -3 -3 10 7 8 10 18 6 21 -3 4 -1 7 6 7 7 0 11
-8 9 -17z m-1100 -28 c-3 -3 -9 2 -12 12 -6 14 -5 15 5 6 7 -7 10 -15 7 -18z
m312 9 c0 -8 -4 -12 -10 -9 -5 3 -10 10 -10 16 0 5 5 9 10 9 6 0 10 -7 10 -16z
m72 -29 c-2 -19 -6 -35 -8 -35 -2 0 -4 16 -4 35 0 19 4 35 8 35 4 0 6 -16 4
-35z m-615 3 c-3 -8 -6 -5 -6 6 -1 11 2 17 5 13 3 -3 4 -12 1 -19z m610 -70
c-3 -8 -6 -5 -6 6 -1 11 2 17 5 13 3 -3 4 -12 1 -19z m-80 -70 c-2 -13 -4 -3
-4 22 0 25 2 35 4 23 2 -13 2 -33 0 -45z m90 -40 c-2 -13 -4 -3 -4 22 0 25 2
35 4 23 2 -13 2 -33 0 -45z m15 -125 c2 -23 0 -39 -4 -37 -5 3 -7 29 -7 57 1
56 6 48 11 -20z m-767 -60 c-16 -62 -41 -124 -33 -83 10 47 43 158 47 155 2
-3 -4 -35 -14 -72z m1010 -164 c9 -37 15 -76 12 -86 -3 -13 -5 -11 -6 7 0 14
-10 57 -21 95 -22 78 -24 86 -10 65 5 -8 16 -45 25 -81z m-715 77 c0 -3 -4 -8
-10 -11 -5 -3 -10 -1 -10 4 0 6 5 11 10 11 6 0 10 -2 10 -4z m955 -75 c-11 -9
-75 -23 -75 -16 0 2 15 9 33 14 43 12 53 13 42 2z m-1365 -31 c24 -15 7 -18
-25 -4 -23 10 -25 13 -10 13 11 1 27 -3 35 -9z m57 -22 c-3 -8 -6 -5 -6 6 -1
11 2 17 5 13 3 -3 4 -12 1 -19z m1180 6 c-3 -3 -12 -4 -19 -1 -8 3 -5 6 6 6
11 1 17 -2 13 -5z m-1190 -56 c-3 -7 -5 -2 -5 12 0 14 2 19 5 13 2 -7 2 -19 0
-25z m117 7 c11 -8 17 -17 14 -20 -3 -3 -16 3 -29 14 -27 23 -14 28 15 6z
m-163 -12 c13 -15 12 -15 -6 -6 -11 6 -27 13 -35 16 -10 4 -8 6 6 6 12 1 28
-6 35 -16z m31 -78 c-7 -62 -6 -61 -57 -56 -8 0 -15 6 -15 12 0 5 5 7 10 4 7
-4 8 3 4 22 -7 26 -6 27 9 11 10 -10 14 -23 10 -34 -4 -11 -3 -15 5 -10 6 3
16 31 22 62 15 71 20 66 12 -11z m139 48 c13 -16 12 -17 -3 -4 -10 7 -18 15
-18 17 0 8 8 3 21 -13z m-54 -25 c-3 -7 -5 -2 -5 12 0 14 2 19 5 13 2 -7 2
-19 0 -25z m1120 26 c-3 -3 -12 -4 -19 -1 -8 3 -5 6 6 6 11 1 17 -2 13 -5z
m153 -4 c0 -5 -8 -10 -17 -10 -15 0 -16 2 -3 10 19 12 20 12 20 0z m49 -21
c13 -17 20 -33 18 -36 -3 -2 -10 4 -16 15 -6 11 -18 28 -27 36 -8 9 -11 16 -7
16 5 0 19 -14 32 -31z m-1244 -9 c3 -6 -1 -7 -9 -4 -18 7 -21 14 -7 14 6 0 13
-4 16 -10z m1152 -12 c-3 -8 -6 -5 -6 6 -1 11 2 17 5 13 3 -3 4 -12 1 -19z
m-1163 -19 c-3 -5 -16 -2 -30 7 -32 22 -30 25 6 13 16 -6 27 -15 24 -20z
m-253 11 c10 -6 19 -16 19 -22 0 -9 -3 -9 -12 0 -17 17 -33 15 -18 -3 13 -16
10 -18 -13 -9 -9 3 -13 13 -10 25 6 22 8 22 34 9z m1329 -18 c0 -15 -2 -15
-10 -2 -13 20 -13 33 0 25 6 -3 10 -14 10 -23z m30 0 c0 -15 -2 -15 -10 -2
-13 20 -13 33 0 25 6 -3 10 -14 10 -23z m-60 -2 c6 -11 7 -20 3 -20 -5 0 -14
9 -21 20 -7 11 -8 20 -2 20 5 0 14 -9 20 -20z m92 -12 c6 -16 39 -19 58 -5 13
10 13 10 2 -5 -7 -9 -21 -17 -30 -16 -9 0 -27 -3 -39 -7 -24 -8 -28 0 -17 29
7 19 21 21 26 4z m-1117 -26 c-3 -3 -11 0 -18 7 -9 10 -8 11 6 5 10 -3 15 -9
12 -12z m1059 6 c-6 -10 -51 -11 -57 0 -3 4 10 7 28 8 19 0 32 -3 29 -8z
m-1107 -4 c-3 -3 -12 -4 -19 -1 -8 3 -5 6 6 6 11 1 17 -2 13 -5z m-42 -14 c3
-5 1 -10 -4 -10 -6 0 -11 5 -11 10 0 6 2 10 4 10 3 0 8 -4 11 -10z m46 -93
c-10 -9 -11 -8 -5 6 3 10 9 15 12 12 3 -3 0 -11 -7 -18z m-36 -67 c-3 -5 -14
-10 -23 -9 -14 0 -13 2 3 9 27 11 27 11 20 0z m109 -490 c-6 -6 -10 -3 -10 10
0 13 4 16 10 10 7 -7 7 -13 0 -20z m-35 -23 c-28 -21 -59 -36 -59 -29 0 9 37
30 54 31 5 1 7 0 5 -2z m46 -107 c-3 -5 -14 -10 -23 -9 -14 0 -13 2 3 9 27 11
27 11 20 0z m1051 -45 c-7 -18 5 -19 24 -2 12 10 12 9 1 -6 -8 -10 -19 -16
-25 -14 -6 3 -20 0 -31 -6 -17 -8 -16 -6 4 17 28 29 36 33 27 11z m-1276 -19
c14 -18 14 -18 -7 -6 -12 8 -19 18 -16 23 3 4 6 7 7 5 1 -2 8 -12 16 -22z
m1163 -16 c4 0 5 5 2 10 -8 13 5 13 25 0 13 -8 12 -10 -4 -10 -12 0 -16 -5
-12 -15 8 -21 3 -19 -25 13 -13 15 -17 21 -9 15 8 -7 18 -13 23 -13z m98 -14
l24 5 -24 -11 c-27 -12 -51 -7 -51 11 0 8 4 8 13 1 7 -6 24 -9 38 -6z m74 -6
c-3 -5 -12 -10 -18 -10 -7 0 -6 4 3 10 19 12 23 12 15 0z m-164 -28 c-7 -2
-18 1 -23 6 -8 8 -4 9 13 5 13 -4 18 -8 10 -11z m122 11 c-7 -2 -19 -2 -25 0
-7 3 -2 5 12 5 14 0 19 -2 13 -5z m-102 -41 c-13 -2 -27 0 -32 5 -6 6 3 7 23
4 28 -4 29 -6 9 -9z m142 -9 c-7 -2 -21 -2 -30 0 -10 3 -4 5 12 5 17 0 24 -2
18 -5z m-96 -49 c-3 -3 -12 -4 -19 -1 -8 3 -5 6 6 6 11 1 17 -2 13 -5z m100
-20 c-3 -3 -12 -4 -19 -1 -8 3 -5 6 6 6 11 1 17 -2 13 -5z m-66 -43 c-17 -21
-31 -45 -32 -52 0 -10 -2 -11 -6 -2 -6 17 46 92 65 93 2 0 -10 -18 -27 -39z
m49 14 c-10 -12 -10 -15 1 -15 9 -1 8 -5 -5 -15 -27 -20 -45 -19 -20 1 19 15
19 16 0 9 -19 -6 -19 -5 -1 15 21 23 44 28 25 5z m-110 -19 c0 -8 -4 -18 -10
-21 -5 -3 -10 -15 -10 -26 0 -10 -4 -19 -9 -19 -10 0 -3 39 10 56 5 6 6 14 2
17 -3 4 -1 7 5 7 7 0 12 -6 12 -14z m130 -26 c-8 -5 -19 -10 -25 -10 -5 0 -3
5 5 10 8 5 20 10 25 10 6 0 3 -5 -5 -10z m-50 -14 c0 -2 -8 -10 -17 -17 -16
-13 -17 -12 -4 4 13 16 21 21 21 13z m146 -61 c-3 -8 0 -15 6 -15 6 0 9 -3 5
-6 -10 -11 -26 6 -20 21 3 8 7 15 10 15 3 0 3 -7 -1 -15z m-89 -31 c-3 -3 -12
-4 -19 -1 -8 3 -5 6 6 6 11 1 17 -2 13 -5z m-60 -30 c-3 -3 -12 -4 -19 -1 -8
3 -5 6 6 6 11 1 17 -2 13 -5z m80 -10 c-3 -3 -12 -4 -19 -1 -8 3 -5 6 6 6 11
1 17 -2 13 -5z"/>
<path d="M2210 3850 c0 -5 5 -10 10 -10 6 0 10 5 10 10 0 6 -4 10 -10 10 -5 0
-10 -4 -10 -10z"/>
<path d="M2211 3784 c0 -11 3 -14 6 -6 3 7 2 16 -1 19 -3 4 -6 -2 -5 -13z"/>
<path d="M1600 3511 c0 -5 5 -13 10 -16 6 -3 10 -2 10 4 0 5 -4 13 -10 16 -5
3 -10 2 -10 -4z"/>
<path d="M2351 3524 c0 -11 3 -14 6 -6 3 7 2 16 -1 19 -3 4 -6 -2 -5 -13z"/>
<path d="M1714 3529 c-4 -8 1 -9 16 -4 15 5 20 4 16 -4 -4 -6 -3 -11 3 -11 17
0 21 18 5 24 -23 9 -32 7 -40 -5z"/>
<path d="M2205 3450 c3 -6 1 -10 -5 -10 -6 0 -9 -4 -5 -10 6 -10 35 -2 35 10
0 4 -7 11 -16 14 -8 3 -12 2 -9 -4z"/>
<path d="M2340 3250 c-8 -5 -12 -11 -10 -14 3 -2 14 2 24 10 22 15 10 19 -14
4z"/>
<path d="M1627 3193 c-4 -3 -7 -11 -7 -17 0 -6 5 -5 12 2 6 6 9 14 7 17 -3 3
-9 2 -12 -2z"/>
<path d="M2580 2990 c0 -5 5 -10 10 -10 6 0 10 5 10 10 0 6 -4 10 -10 10 -5 0
-10 -4 -10 -10z"/>
<path d="M2581 2404 c0 -11 3 -14 6 -6 3 7 2 16 -1 19 -3 4 -6 -2 -5 -13z"/>
<path d="M1905 4408 c8 -21 95 -59 112 -50 22 13 -5 31 -50 34 -20 1 -39 8
-41 15 -3 7 -10 13 -15 13 -6 0 -8 -6 -6 -12z m100 -38 c3 -5 1 -10 -4 -10 -6
0 -11 5 -11 10 0 6 2 10 4 10 3 0 8 -4 11 -10z"/>
<path d="M2350 4025 c0 -8 73 -36 78 -30 3 2 -11 12 -31 20 -39 16 -47 18 -47
10z"/>
<path d="M2363 3983 c9 -2 14 -9 11 -15 -4 -6 -3 -9 2 -5 11 6 50 -20 42 -29
-4 -3 -16 -1 -27 6 -14 7 -21 7 -21 0 0 -5 8 -10 18 -11 11 0 12 -2 4 -6 -10
-4 -9 -9 4 -24 9 -10 21 -19 26 -19 6 0 21 -9 35 -20 14 -11 30 -17 35 -14 5
3 16 -2 24 -12 10 -12 12 -13 7 -3 -4 9 -24 30 -44 48 -20 17 -40 42 -43 56
-6 24 -52 56 -78 54 -7 -1 -5 -3 5 -6z m97 -97 c36 -41 28 -40 -28 2 -24 18
-29 27 -20 33 7 4 13 7 13 6 0 -1 16 -20 35 -41z"/>
<path d="M2545 3770 c4 -14 7 -33 8 -42 1 -10 4 -18 8 -18 4 0 14 -7 23 -15
13 -14 15 -13 13 5 -1 13 -6 19 -15 15 -7 -2 -10 -1 -7 5 3 5 -4 24 -16 42
-18 28 -20 29 -14 8z"/>
<path d="M2613 3689 c-1 -12 1 -19 4 -16 3 4 18 0 34 -9 36 -18 37 -13 4 21
-31 31 -40 31 -42 4z"/>
<path d="M2650 3550 c0 -11 33 -30 52 -30 7 0 2 9 -12 20 -28 22 -40 25 -40
10z"/>
<path d="M2526 3533 c4 -12 12 -28 20 -34 20 -17 17 2 -6 31 -18 24 -19 24
-14 3z"/>
<path d="M2460 2350 c0 -5 5 -10 11 -10 5 0 7 5 4 10 -3 6 -8 10 -11 10 -2 0
-4 -4 -4 -10z"/>
<path d="M2456 2303 c-6 -14 -5 -15 5 -6 7 7 10 15 7 18 -3 3 -9 -2 -12 -12z"/>
</g>
</svg>
