<?xml version="1.0" standalone="no"?>
<!DOCTYPE svg PUBLIC "-//W3C//DTD SVG 20010904//EN"
 "http://www.w3.org/TR/2001/REC-SVG-20010904/DTD/svg10.dtd">
<svg version="1.0" xmlns="http://www.w3.org/2000/svg"
 width="900.000000pt" height="898.000000pt" viewBox="0 0 900.000000 898.000000"
 preserveAspectRatio="xMidYMid meet">

<g transform="translate(0.000000,898.000000) scale(0.100000,-0.100000)"
fill="#000000" stroke="none">
<path d="M3716 8859 c-5 -26 -8 -29 -21 -19 -12 10 -16 8 -24 -11 -5 -13 -13
-35 -19 -49 l-11 -25 0 29 c-1 16 -3 27 -6 25 -11 -11 -16 -336 -6 -381 6 -26
13 -66 16 -91 5 -44 5 -44 -45 -75 -27 -17 -50 -38 -50 -46 0 -9 -6 -13 -12
-11 -16 6 -78 -30 -78 -45 0 -5 -7 -10 -15 -10 -9 0 -20 -12 -25 -26 -6 -14
-14 -22 -20 -19 -5 3 -10 1 -10 -4 0 -6 -5 -11 -11 -11 -19 0 -94 -70 -94 -88
0 -10 -8 -16 -17 -16 -10 1 -17 -1 -16 -5 0 -3 0 -13 -1 -21 -1 -12 -3 -13
-10 -1 -7 11 -11 9 -20 -8 -14 -25 -9 -25 44 -6 47 17 138 19 166 5 10 -6 19
-21 19 -35 0 -26 -34 -51 -110 -81 -58 -22 -146 -77 -188 -118 -61 -57 -144
-238 -125 -270 4 -5 1 -6 -5 -2 -14 9 -24 -26 -17 -61 5 -19 4 -24 -3 -15 -12
18 -76 -137 -66 -162 5 -14 9 -15 15 -4 6 9 9 9 9 1 0 -18 -21 -27 -30 -13 -6
9 -11 7 -19 -8 -7 -14 -8 -23 -1 -27 15 -9 12 -25 -4 -25 -9 0 -17 -16 -21
-42 -4 -24 -14 -54 -22 -67 -9 -13 -19 -49 -23 -80 -17 -121 -33 -196 -45
-216 -7 -11 -16 -40 -20 -65 -4 -25 -14 -58 -23 -75 -9 -16 -19 -54 -23 -84
-8 -56 -86 -221 -140 -295 -16 -22 -29 -48 -29 -59 0 -34 -19 -57 -48 -57 -16
0 -37 -6 -48 -14 -10 -8 -30 -13 -44 -10 -20 5 -22 3 -10 -5 13 -9 13 -11 -2
-11 -9 0 -19 6 -21 13 -3 7 -6 5 -6 -6 -1 -10 7 -34 18 -55 22 -44 39 -117 45
-190 3 -31 15 -71 30 -98 14 -24 20 -42 14 -38 -5 4 -20 29 -33 56 -20 43 -25
47 -33 32 -5 -11 -12 -64 -15 -119 -3 -55 -10 -122 -16 -150 -6 -27 -18 -93
-27 -145 -9 -52 -30 -130 -46 -174 -21 -57 -26 -82 -18 -91 8 -10 3 -26 -20
-63 -36 -59 -36 -59 -9 -88 19 -20 22 -43 35 -261 7 -131 16 -250 20 -265 4
-20 1 -29 -14 -37 -22 -12 -46 -45 -56 -79 -6 -17 -3 -24 13 -30 19 -7 18 -9
-13 -77 -29 -61 -40 -73 -84 -98 -54 -29 -87 -28 -77 4 8 26 -34 52 -71 43
l-27 -7 24 44 c29 52 73 84 128 93 24 3 55 19 74 36 52 46 91 162 71 214 -10
26 -70 20 -99 -9 -26 -25 -34 -70 -13 -77 18 -6 0 -57 -32 -89 -25 -26 -31
-28 -60 -18 -29 11 -34 9 -69 -25 -76 -75 -130 -228 -131 -369 0 -66 -2 -71
-41 -115 -23 -26 -50 -64 -60 -84 -10 -20 -23 -39 -29 -43 -20 -12 -11 -73 12
-89 31 -22 59 -20 65 4 3 11 13 20 23 20 10 0 25 3 34 6 9 4 16 1 16 -6 0 -6
9 -19 20 -28 21 -18 20 -29 -17 -147 -3 -11 -7 -47 -8 -80 -3 -66 -48 -231
-70 -255 -8 -9 -19 -49 -25 -90 -8 -58 -16 -79 -34 -95 -30 -25 -58 -126 -61
-218 -2 -46 -7 -73 -19 -86 -22 -24 -33 -116 -17 -135 17 -20 -77 -342 -135
-461 -56 -116 -58 -152 -8 -193 63 -52 150 -65 214 -32 36 18 40 24 40 58 0
68 28 199 82 377 49 165 54 178 80 187 17 6 28 17 28 29 0 10 3 19 6 19 11 0
43 -41 49 -64 4 -11 12 -37 20 -56 7 -19 16 -47 19 -61 3 -16 19 -33 40 -44
33 -18 36 -18 95 0 33 10 62 23 64 29 2 6 -1 66 -7 132 l-9 121 31 66 c21 46
33 89 37 139 4 40 12 102 20 138 7 36 17 110 21 164 6 90 9 102 33 124 14 13
27 29 27 36 3 30 17 77 25 82 4 2 6 11 2 19 -3 9 1 22 8 31 11 14 11 18 -4 29
-21 15 -21 29 -2 59 9 13 21 61 27 107 13 98 13 115 3 191 -9 66 1 74 34 30
17 -23 22 -25 31 -12 16 25 12 35 -26 55 -32 17 -35 22 -30 49 4 16 8 31 10
33 2 2 23 -8 47 -22 52 -29 100 -32 120 -7 42 50 57 110 95 382 14 102 41 244
60 315 51 198 114 385 130 385 7 0 0 -33 -32 -163 -13 -54 -30 -172 -39 -270
-8 -94 -29 -237 -45 -317 -17 -80 -38 -181 -46 -225 -37 -190 -61 -275 -146
-530 -83 -248 -173 -465 -219 -523 -13 -18 -15 -30 -9 -53 8 -27 4 -37 -30
-83 -22 -29 -40 -55 -40 -58 0 -3 10 -8 22 -12 20 -5 54 -34 103 -88 17 -19
19 -73 4 -137 -5 -24 -8 -46 -6 -48 3 -2 19 15 36 39 31 43 44 37 15 -7 -9
-13 -14 -31 -12 -40 2 -12 13 -3 35 29 18 25 37 46 43 46 5 0 10 11 10 25 0
26 24 35 33 13 3 -7 5 -4 4 8 -1 27 23 85 33 79 4 -3 11 6 14 20 4 14 18 50
31 80 14 29 25 57 25 61 0 4 14 38 32 76 30 65 33 69 59 63 15 -4 44 -2 63 4
26 7 36 6 36 -2 1 -7 15 -19 33 -28 102 -50 105 -52 111 -98 10 -76 7 -106
-14 -124 -15 -13 -26 -14 -45 -7 -35 13 -52 4 -65 -36 -16 -46 -6 -68 35 -83
l35 -12 2 -222 c4 -477 4 -488 -21 -535 -18 -36 -28 -86 -31 -158 0 -6 -23
-36 -51 -65 -58 -60 -80 -100 -104 -183 -23 -79 -14 -117 42 -177 61 -66 87
-73 246 -64 160 9 188 21 211 93 17 52 27 170 15 177 -4 3 -10 41 -14 84 -9
99 6 193 50 326 43 127 82 322 89 445 3 53 12 113 21 134 9 21 15 50 13 64 -3
28 18 142 32 177 4 11 11 28 14 38 6 18 7 17 32 -2 15 -12 31 -21 36 -21 5 0
22 -10 38 -21 15 -12 40 -22 54 -22 14 1 33 -8 42 -18 11 -12 25 -16 43 -13
18 4 32 0 40 -10 19 -23 45 -21 38 4 -3 11 -1 38 4 61 5 23 11 58 14 78 2 20
8 68 13 106 6 39 11 132 11 208 1 77 6 148 12 159 6 10 7 33 4 49 -9 40 4 112
18 106 9 -3 12 25 12 99 1 96 14 154 36 154 4 0 10 -39 14 -86 6 -68 11 -88
26 -97 24 -15 25 -29 2 -25 -11 2 -17 -2 -15 -11 2 -8 5 -65 7 -125 3 -61 9
-131 14 -156 6 -25 12 -62 15 -84 2 -21 9 -43 15 -49 6 -6 11 -33 11 -60 0
-29 4 -46 10 -42 11 7 14 -8 4 -18 -4 -3 -8 -28 -10 -54 -1 -26 -7 -88 -12
-138 -5 -49 -7 -92 -4 -95 2 -3 11 5 19 17 9 13 25 23 37 23 11 1 39 9 61 20
22 11 50 19 63 20 12 0 22 5 22 10 0 6 9 10 20 10 21 0 55 16 78 37 7 7 25 15
40 19 15 3 35 9 44 15 10 5 21 9 26 9 9 0 43 -134 48 -185 19 -223 36 -312 81
-424 55 -137 73 -228 79 -380 4 -122 8 -153 29 -206 17 -41 25 -81 25 -121 0
-72 32 -173 64 -203 20 -19 36 -23 92 -23 87 -1 238 18 273 35 43 21 63 113
41 197 -21 81 -57 160 -92 199 -21 22 -38 47 -38 54 0 7 -11 33 -25 59 -14 27
-29 69 -33 95 -11 71 -4 520 8 578 6 28 14 76 17 108 3 31 10 60 15 63 5 4 32
8 59 10 27 2 61 10 76 17 16 8 53 17 84 21 l55 7 1 -58 c0 -84 18 -146 52
-184 17 -18 31 -37 31 -41 0 -5 5 -8 10 -8 6 0 10 9 10 20 0 11 -4 20 -10 20
-14 0 -7 33 10 52 8 8 22 13 32 10 15 -4 18 2 18 32 0 26 6 40 23 51 13 8 30
27 38 43 27 52 57 91 64 84 4 -4 5 10 2 30 -3 23 -1 38 5 40 7 3 4 15 -8 34
-120 179 -225 464 -279 754 -15 80 -35 177 -45 215 -9 39 -25 115 -34 170 -10
55 -26 132 -37 171 -41 154 -124 552 -116 560 2 3 29 -4 58 -15 30 -10 66 -22
82 -25 27 -6 27 -7 27 -86 0 -49 4 -82 12 -86 7 -4 8 -3 4 4 -4 7 -2 12 3 12
6 0 11 -21 11 -49 0 -28 5 -53 10 -56 6 -4 10 13 10 44 l0 51 31 -7 c16 -3 46
-14 65 -24 20 -10 42 -15 49 -13 15 6 26 -8 41 -56 11 -31 12 -32 14 -10 2 38
8 61 15 68 4 4 31 -19 60 -51 60 -66 68 -94 83 -287 l9 -115 1 124 c2 102 4
121 15 112 8 -6 22 -48 32 -93 10 -46 27 -121 37 -168 20 -88 36 -338 24 -384
-4 -17 -18 -31 -41 -40 -62 -26 -105 -66 -99 -90 3 -14 -2 -28 -15 -40 -12
-11 -21 -24 -21 -30 0 -6 -7 -24 -15 -40 -24 -45 -27 -96 -12 -160 15 -69 40
-92 62 -62 22 29 28 13 14 -34 -12 -39 -11 -43 10 -59 37 -28 47 -84 40 -227
-4 -71 -6 -130 -4 -132 1 -1 32 2 68 7 37 5 78 6 93 2 23 -6 26 -12 29 -51 1
-25 6 -112 10 -195 11 -193 23 -149 17 63 -3 117 -1 162 7 162 37 0 191 -109
191 -135 0 -8 7 -18 15 -22 11 -7 15 -29 16 -85 2 -100 14 -118 26 -37 9 59
10 62 21 38 6 -15 29 -46 52 -70 22 -23 43 -54 47 -68 4 -14 15 -39 25 -56 12
-21 18 -50 18 -96 0 -40 6 -78 15 -95 8 -16 15 -46 15 -66 0 -21 5 -38 10 -38
6 0 10 20 10 45 0 25 4 45 9 45 15 0 107 -281 140 -430 12 -52 33 -126 48
-163 22 -60 25 -84 26 -196 1 -113 -2 -133 -23 -177 -13 -27 -32 -59 -44 -72
-29 -32 -7 -45 64 -36 64 7 84 16 125 54 17 16 53 50 81 77 28 26 62 57 75 68
14 11 30 27 35 36 19 32 163 141 179 135 9 -3 15 0 15 8 0 8 16 24 35 36 31
19 35 27 35 63 0 57 9 87 26 87 22 0 17 9 -27 57 -35 39 -40 49 -37 86 2 27 7
41 16 39 22 -4 13 24 -23 65 -35 42 -44 80 -24 100 9 9 2 21 -25 49 -38 39
-48 81 -21 89 53 17 52 15 30 31 -11 9 -32 18 -47 21 -43 9 -55 45 -52 155 2
92 1 97 -19 100 -17 2 -27 19 -47 75 -14 39 -28 75 -32 79 -15 15 -9 93 8 102
25 14 7 32 -30 32 -27 0 -36 6 -51 33 -17 33 -18 80 0 119 5 14 2 18 -14 18
-11 0 -28 12 -38 26 -16 25 -16 28 5 65 25 44 18 54 -32 45 -33 -6 -34 -5 -49
40 -14 43 -14 47 3 64 22 22 16 30 -25 30 -59 0 -73 47 -29 99 23 27 24 32 9
37 -10 4 -21 1 -25 -6 -6 -10 -16 -9 -46 6 -33 16 -39 24 -38 49 0 17 2 37 5
45 3 11 -6 16 -35 18 -37 3 -38 4 -32 35 3 17 14 39 23 49 23 25 9 34 -22 14
-15 -10 -32 -15 -38 -12 -9 3 -9 5 1 5 6 1 12 5 12 9 0 5 -13 7 -28 4 -55 -8
-79 50 -47 112 18 35 19 39 3 29 -7 -4 -19 -8 -26 -9 -8 -2 -17 -6 -20 -10 -4
-4 1 -4 11 -1 19 7 23 -3 6 -20 -14 -14 -42 -5 -33 9 4 6 -1 8 -14 4 -18 -6
-22 0 -31 45 -8 36 -8 56 -1 63 15 15 12 22 -10 23 -14 1 -61 -39 -144 -123
-68 -68 -129 -124 -134 -124 -5 0 -7 14 -3 33 5 22 13 32 25 32 14 0 24 16 39
57 20 55 20 64 8 216 -13 162 -9 236 15 284 12 23 11 27 -3 33 -41 15 -47 -23
-43 -301 1 -69 -3 -125 -8 -128 -14 -9 -30 15 -29 44 0 14 -12 84 -27 155 -16
72 -32 150 -36 175 -24 134 -125 414 -159 440 -4 3 -20 28 -35 55 -16 28 -42
64 -59 82 l-30 32 17 41 c23 59 20 103 -13 163 -15 28 -36 80 -46 114 l-18 63
26 21 c34 26 34 53 1 97 -17 21 -28 51 -30 77 -2 23 -10 58 -18 77 -28 66 -74
294 -85 423 -11 125 -33 215 -52 215 -13 0 0 82 27 174 29 98 29 96 0 96 -13
0 -26 7 -30 15 -3 8 -18 21 -33 27 -15 7 -52 32 -80 56 -51 43 -53 46 -53 96
0 39 -9 66 -36 116 -35 63 -64 151 -64 191 0 11 -9 37 -19 57 -39 75 -55 126
-57 181 -3 95 -16 185 -30 213 -9 16 -14 59 -14 108 0 76 -12 136 -46 220 -7
19 -16 53 -20 75 -8 58 -24 105 -34 105 -5 0 -7 8 -4 18 5 14 3 14 -11 -3 -17
-20 -17 -20 -12 3 4 15 1 22 -10 22 -13 0 -13 3 -3 15 11 13 10 14 -4 9 -9 -3
-16 -1 -16 6 0 6 -6 18 -12 25 -31 34 -36 43 -31 49 3 3 12 1 20 -6 24 -20 22
-3 -3 21 -13 13 -24 18 -24 12 0 -6 -4 -11 -10 -11 -5 0 -10 7 -10 15 0 8 5
15 11 15 5 0 7 4 4 10 -4 6 -11 5 -19 -3 -8 -6 -11 -16 -8 -21 3 -5 -1 -6 -8
-1 -7 4 -16 2 -21 -6 -5 -8 -9 -9 -9 -3 0 6 9 19 19 28 23 21 17 46 -11 46
-10 0 -16 5 -13 10 4 6 11 8 16 5 5 -4 9 1 9 9 0 18 -16 21 -25 5 -4 -6 -14
-8 -22 -5 -8 3 -11 1 -8 -5 4 -6 -1 -19 -11 -30 -20 -23 -36 -25 -28 -4 7 16
-11 21 -21 5 -10 -16 -57 11 -52 30 3 13 -1 16 -19 12 -13 -2 -24 0 -24 5 0
16 39 47 62 50 36 6 34 13 -3 13 -19 0 -51 4 -72 9 -36 9 -39 8 -34 -11 3 -11
3 -17 0 -14 -3 3 -14 1 -24 -5 -15 -7 -17 -6 -13 6 3 8 11 12 17 8 6 -3 7 -1
3 5 -5 9 -13 9 -27 1 -12 -6 -23 -8 -27 -5 -3 3 0 6 6 6 7 0 12 5 12 11 0 5
-3 8 -8 5 -4 -2 -16 3 -27 11 -19 15 -19 15 10 10 30 -6 30 -6 -4 9 -38 17
-47 14 -32 -13 8 -15 7 -20 -5 -20 -8 0 -14 10 -14 24 0 13 -8 26 -17 30 -10
3 -26 15 -36 25 -15 15 -22 16 -33 7 -10 -8 -14 -8 -14 0 0 20 49 23 95 6 25
-10 45 -22 45 -28 0 -6 3 -8 6 -4 4 3 23 -2 43 -12 38 -19 121 -18 121 2 0 6
-3 7 -7 4 -8 -9 -43 22 -43 37 0 19 -50 86 -62 83 -7 -1 -15 12 -19 28 -4 17
-7 25 -8 19 0 -6 -8 -11 -16 -11 -14 0 -19 9 -16 33 2 16 -37 25 -42 10 -2 -6
3 -22 11 -36 l14 -25 -20 25 c-15 18 -18 29 -11 42 10 18 -1 50 -27 75 -14 15
-24 226 -21 455 1 115 -1 160 -10 169 -11 11 -13 10 -13 -1 0 -7 -7 -21 -15
-29 -8 -9 -15 -34 -17 -54 -1 -21 -6 -41 -10 -43 -5 -3 -6 -10 -3 -15 4 -5 1
-9 -4 -9 -6 0 -11 9 -11 20 0 12 -7 20 -16 20 -12 0 -15 7 -12 24 3 15 0 27
-8 30 -16 6 -24 -15 -24 -63 0 -21 -3 -40 -6 -43 -3 -3 -28 9 -55 27 -60 39
-150 69 -184 61 -14 -4 -39 -19 -57 -35 -18 -15 -47 -36 -65 -45 -17 -8 -42
-34 -54 -56 -13 -22 -26 -40 -30 -40 -12 0 -22 93 -20 203 2 109 -2 131 -13
76z m-19 -81 c-3 -8 -6 -5 -6 6 -1 11 2 17 5 13 3 -3 4 -12 1 -19z m639 -19
c-1 -13 -8 -23 -19 -25 -9 -1 -15 2 -11 7 3 5 10 7 15 3 6 -3 8 5 5 20 -3 15
-1 24 3 21 5 -2 8 -14 7 -26z m-114 -75 c-6 -35 -12 -29 -10 11 1 20 4 31 8
25 4 -6 5 -22 2 -36z m118 32 c0 -1 -7 -21 -14 -46 l-14 -45 1 46 c1 29 7 46
15 46 6 0 12 -1 12 -1z m-50 -68 c0 -16 -3 -19 -11 -11 -6 6 -19 9 -28 6 -13
-4 -14 -3 -1 5 8 6 18 8 22 6 4 -3 8 0 8 5 0 6 2 11 5 11 3 0 5 -10 5 -22z
m13 -45 c-3 -7 -9 -10 -14 -7 -14 8 -11 21 5 21 8 0 12 -6 9 -14z m13 -29 c-4
-9 -9 -15 -11 -12 -3 3 -3 13 1 22 4 9 9 15 11 12 3 -3 3 -13 -1 -22z m-280
-187 c3 -2 -28 -5 -68 -6 -84 -2 -167 -14 -233 -36 -11 -3 -8 1 7 9 48 28 274
53 294 33z m71 -23 c-3 -3 -12 -4 -19 -1 -8 3 -5 6 6 6 11 1 17 -2 13 -5z
m102 -20 c28 -9 58 -26 68 -37 18 -20 18 -20 -10 -2 -16 10 -56 26 -90 36 -34
10 -52 18 -41 18 12 1 45 -6 73 -15z m-219 -143 c0 -5 -11 -8 -25 -8 -13 0
-22 3 -19 8 3 5 14 9 25 9 10 0 19 -4 19 -9z m35 -1 c3 -5 1 -10 -5 -10 -14 0
-3 -41 14 -52 6 -5 19 1 29 13 17 21 17 21 17 1 0 -30 -20 -39 -78 -34 l-53 4
26 24 c14 13 23 29 20 34 -3 6 -1 10 5 10 6 0 8 5 5 10 -3 6 -2 10 4 10 5 0
13 -4 16 -10z m-112 -22 c-13 -6 -23 -18 -24 -27 0 -13 -2 -13 -6 -2 -6 14 22
42 41 40 6 0 1 -5 -11 -11z m67 -2 c0 -11 -19 -15 -25 -6 -3 5 1 10 9 10 9 0
16 -2 16 -4z m70 -6 c0 -5 -4 -10 -10 -10 -5 0 -10 5 -10 10 0 6 5 10 10 10 6
0 10 -4 10 -10z m-114 -37 c-3 -3 -12 -3 -21 1 -13 5 -14 8 -3 20 11 12 14 12
21 -1 5 -8 6 -17 3 -20z m449 19 c-3 -3 -11 0 -18 7 -9 10 -8 11 6 5 10 -3 15
-9 12 -12z m-518 -7 c0 -8 -4 -15 -9 -15 -10 0 -11 14 -1 23 9 10 10 9 10 -8z
m28 -25 c3 -5 1 -10 -4 -10 -6 0 -11 5 -11 10 0 6 2 10 4 10 3 0 8 -4 11 -10z
m240 -22 c7 -7 0 -8 -23 -3 -18 4 -38 2 -45 -3 -17 -14 -170 -21 -156 -7 5 5
40 10 77 10 45 0 70 4 75 13 10 15 54 9 72 -10z m-115 -39 c0 -7 -9 -9 -21 -6
-28 8 -49 -2 -49 -22 0 -11 3 -12 8 -4 4 6 21 11 37 11 17 0 48 2 70 6 47 8
81 -9 65 -34 -6 -10 -10 -11 -10 -2 0 6 -6 12 -14 12 -8 0 -17 6 -19 13 -3 7
-6 5 -6 -5 -1 -11 6 -18 17 -19 13 0 14 -2 2 -6 -24 -10 -37 -27 -33 -43 3
-10 2 -11 -4 -4 -6 9 -58 13 -58 5 0 -8 -86 -10 -106 -2 -20 8 -17 9 24 9 49
-1 80 11 36 13 -13 1 -27 1 -31 0 -5 0 -8 4 -8 9 0 6 5 10 10 10 6 0 10 7 10
15 0 11 -7 14 -27 10 l-28 -5 30 14 c25 12 26 15 10 17 -14 1 -11 4 10 9 46
12 85 11 85 -1z m-155 -85 c3 -28 1 -29 -39 -32 -33 -2 -43 1 -43 13 0 8 4 15
9 15 4 0 8 -4 8 -10 0 -15 17 -12 35 6 12 13 13 19 4 24 -6 4 -8 13 -4 20 10
17 25 -1 30 -36z m20 36 c3 -5 1 -10 -4 -10 -6 0 -11 5 -11 10 0 6 2 10 4 10
3 0 8 -4 11 -10z m318 3 c-7 -2 -19 -2 -25 0 -7 3 -2 5 12 5 14 0 19 -2 13 -5z
m-384 -30 c0 -10 -3 -13 -5 -7 -4 9 -16 8 -48 -1 -26 -8 -48 -10 -57 -4 -10 6
-6 9 16 10 17 0 39 4 50 9 32 14 45 11 44 -7z m491 7 c0 -5 -5 -10 -11 -10 -5
0 -7 5 -4 10 3 6 8 10 11 10 2 0 4 -4 4 -10z m-610 -31 c13 -9 12 -10 -2 -5
-15 4 -18 -1 -19 -27 -1 -18 -1 -37 0 -42 0 -6 -14 -11 -32 -12 -17 -1 -24 1
-14 4 18 4 17 6 -4 29 -22 24 -22 24 -3 39 10 8 25 12 32 10 6 -2 12 0 12 5 0
13 11 12 30 -1z m450 -6 c0 -9 -62 -53 -73 -53 -4 0 -1 11 5 25 7 16 15 22 21
16 6 -6 15 -5 24 5 16 16 23 18 23 7z m48 -13 c11 -18 10 -22 -10 -30 -15 -6
-18 -9 -7 -9 9 -1 22 6 29 14 20 24 29 17 20 -14 -7 -24 -5 -29 6 -24 8 3 14
0 14 -6 0 -17 -37 -13 -44 4 -3 8 -15 15 -26 15 -23 0 -27 28 -5 36 12 5 13
10 4 20 -6 8 -7 14 -3 14 5 0 15 -9 22 -20z m-443 0 c3 -5 -3 -10 -14 -10 -12
0 -21 5 -21 10 0 6 6 10 14 10 8 0 18 -4 21 -10z m-162 -17 c-7 -2 -9 -12 -6
-21 3 -11 2 -13 -4 -5 -6 8 -18 7 -48 -4 -69 -26 -92 -25 -40 1 28 14 58 25
67 25 9 1 20 6 23 12 4 6 10 7 14 3 3 -4 1 -9 -6 -11z m117 7 c0 -5 -4 -10
-10 -10 -5 0 -10 5 -10 10 0 6 5 10 10 10 6 0 10 -4 10 -10z m373 -60 c4 0 15
9 24 20 21 24 33 26 33 5 0 -9 9 -15 25 -15 14 0 25 -4 25 -8 0 -5 -13 -7 -30
-4 -16 2 -38 1 -47 -4 -10 -4 -20 -8 -23 -8 -3 -1 -10 -5 -17 -9 -6 -4 -13 -2
-15 4 -2 6 -10 -2 -18 -17 -12 -21 -12 -28 -2 -31 6 -3 12 -9 12 -14 0 -6 -4
-8 -9 -4 -5 3 -12 -3 -14 -12 -3 -10 -5 -1 -6 20 -1 28 -5 37 -18 38 -12 1
-10 4 7 9 17 5 19 8 8 9 -10 1 -18 5 -18 10 0 5 8 7 18 5 23 -6 47 11 37 25
-5 9 -11 7 -21 -6 -14 -18 -15 -12 -5 47 1 3 11 -10 24 -27 12 -18 25 -33 30
-33z m244 23 c10 -14 11 -23 4 -28 -7 -3 -11 2 -11 14 0 13 -7 22 -17 23 -10
0 -22 2 -28 3 -5 2 -14 3 -18 4 -5 0 -6 5 -3 10 9 15 58 -3 73 -26z m-592 17
c3 -5 1 -10 -4 -10 -6 0 -11 5 -11 10 0 6 2 10 4 10 3 0 8 -4 11 -10z m270
-10 c-3 -5 -14 -10 -23 -9 -14 0 -13 2 3 9 27 11 27 11 20 0z m-224 -17 c13
-16 12 -17 -3 -4 -10 7 -18 15 -18 17 0 8 8 3 21 -13z m96 -5 c-3 -8 -6 -5 -6
6 -1 11 2 17 5 13 3 -3 4 -12 1 -19z m401 -2 c-7 -8 -15 -12 -17 -11 -5 6 10
25 20 25 5 0 4 -6 -3 -14z m-560 -14 c-10 -2 -18 -8 -18 -14 0 -6 -2 -9 -5 -6
-12 12 7 37 23 30 16 -6 15 -7 0 -10z m107 8 c3 -6 -1 -7 -9 -4 -18 7 -21 14
-7 14 6 0 13 -4 16 -10z m133 -9 c12 -10 22 -23 22 -29 0 -5 7 -12 15 -16 8
-3 15 -13 14 -23 0 -12 -2 -13 -6 -5 -3 8 -20 29 -39 47 -31 31 -40 45 -31 45
2 0 14 -8 25 -19z m-318 -16 c0 -8 -7 -15 -16 -15 -14 0 -14 3 -4 15 7 8 14
15 16 15 2 0 4 -7 4 -15z m119 8 c-6 -39 1 -46 46 -41 24 3 42 2 39 -3 -3 -5
0 -9 5 -9 6 0 11 7 11 15 0 8 -4 15 -10 15 -5 0 -10 5 -10 10 0 18 18 11 25
-9 5 -15 15 -19 50 -19 24 0 52 -5 62 -11 14 -7 2 -9 -46 -8 -62 3 -169 -5
-241 -17 -30 -5 -33 -4 -19 7 9 7 19 21 22 32 4 17 5 17 6 -3 1 -21 3 -22 16
-9 8 9 20 18 27 21 10 5 10 7 -1 12 -11 5 -11 8 0 15 17 11 19 11 18 2z m-189
-27 c0 -2 -9 -6 -20 -9 -11 -3 -18 -1 -14 4 5 9 34 13 34 5z m1005 -6 c-3 -5
-14 -10 -23 -9 -14 0 -13 2 3 9 27 11 27 11 20 0z m-925 -15 c0 -8 -2 -15 -4
-15 -2 0 -6 7 -10 15 -3 8 -1 15 4 15 6 0 10 -7 10 -15z m585 5 c3 -5 -1 -10
-10 -10 -9 0 -13 5 -10 10 3 6 8 10 10 10 2 0 7 -4 10 -10z m199 3 c-5 -5 -12
-12 -16 -18 -4 -6 -8 -2 -8 8 0 9 7 17 17 17 9 0 12 -3 7 -7z m-250 -9 c27
-10 18 -23 -21 -30 -21 -3 -47 -15 -58 -25 -11 -10 -42 -23 -69 -29 -27 -6
-57 -15 -67 -20 -11 -6 -20 -6 -24 -1 -3 5 3 11 12 14 13 3 8 7 -14 12 -22 5
-30 12 -26 22 3 8 9 11 12 5 14 -21 45 -30 70 -20 15 5 39 10 55 11 16 1 31 8
34 15 2 7 -2 10 -12 6 -22 -8 -20 -2 6 20 18 15 20 16 15 2 -4 -10 -1 -16 9
-16 9 0 12 5 8 12 -5 7 -2 9 7 6 8 -3 23 -1 34 4 18 8 18 8 -2 4 -13 -2 -26 0
-29 5 -6 10 36 12 60 3z m341 -4 c-3 -5 -14 -10 -23 -9 -14 0 -13 2 3 9 27 11
27 11 20 0z m-941 -28 c-6 -4 -14 -14 -17 -22 -4 -10 -6 -8 -6 7 -1 12 5 23
12 26 16 6 24 -2 11 -11z m1046 -21 c20 -17 22 -21 8 -21 -10 0 -18 -4 -18 -8
0 -11 32 -12 45 -2 12 9 55 -5 55 -18 0 -5 -7 -16 -17 -23 -13 -11 -17 -11
-20 -1 -3 6 -9 10 -14 6 -5 -3 -9 -1 -9 5 0 5 -10 11 -22 13 -17 2 -23 9 -22
26 0 12 -4 21 -10 19 -6 -3 -10 -10 -8 -16 3 -14 0 -14 -48 5 l-40 16 32 18
c35 19 43 17 88 -19z m-625 10 c3 -5 1 -12 -5 -16 -5 -3 -10 1 -10 9 0 18 6
21 15 7z m-705 -5 c0 -11 -19 -15 -25 -6 -3 5 1 10 9 10 9 0 16 -2 16 -4z
m-50 -28 c0 -16 -3 -19 -11 -11 -6 6 -8 16 -5 22 11 17 16 13 16 -11z m1540
12 c0 -5 -5 -10 -11 -10 -5 0 -7 5 -4 10 3 6 8 10 11 10 2 0 4 -4 4 -10z
m-1606 -25 c-4 -8 -10 -15 -15 -15 -4 0 -5 -8 -2 -17 6 -15 5 -16 -8 -3 -14
12 -14 16 0 32 19 22 33 24 25 3z m36 6 c0 -6 -4 -12 -8 -15 -5 -3 -9 1 -9 9
0 8 4 15 9 15 4 0 8 -4 8 -9z m82 2 c-6 -2 -9 -10 -6 -15 4 -7 2 -8 -5 -4 -13
9 -5 26 12 25 9 0 8 -2 -1 -6z m568 -1 c0 -5 -7 -9 -15 -9 -8 0 -12 4 -9 9 3
4 9 8 15 8 5 0 9 -4 9 -8z m683 -7 c4 -8 2 -17 -4 -20 -5 -4 -7 -11 -3 -16 3
-6 -5 -7 -23 -4 -26 6 -27 6 -9 -9 21 -17 22 -16 -32 -32 -15 -4 -13 -65 3
-76 6 -5 4 -8 -6 -8 -10 0 -19 11 -22 29 -7 32 1 71 14 71 6 0 13 8 17 18 22
55 54 77 65 47z m211 -18 c-3 -9 -10 -17 -15 -17 -11 0 -12 34 -2 43 11 12 24
-8 17 -26z m-947 9 c-3 -8 -3 -17 1 -19 4 -2 1 -2 -7 0 -8 2 -19 -2 -24 -9 -6
-9 -7 -8 -3 4 2 9 0 19 -7 21 -7 2 -2 2 11 0 12 -2 22 1 22 7 0 5 3 10 6 10 3
0 4 -6 1 -14z m326 -1 c-3 -9 -8 -14 -10 -11 -3 3 -2 9 2 15 9 16 15 13 8 -4z
m-213 -5 c0 -5 -4 -10 -10 -10 -5 0 -10 5 -10 10 0 6 5 10 10 10 6 0 10 -4 10
-10z m696 -31 c9 -15 -23 -10 -35 5 -10 12 -8 13 9 9 11 -3 23 -9 26 -14z
m-1436 -4 c0 -8 -4 -15 -10 -15 -5 0 -7 7 -4 15 4 8 8 15 10 15 2 0 4 -7 4
-15z m1629 -6 c-16 -10 -23 -4 -14 10 3 6 11 8 17 5 6 -4 5 -9 -3 -15z m-704
-9 c3 -5 1 -10 -4 -10 -6 0 -11 5 -11 10 0 6 2 10 4 10 3 0 8 -4 11 -10z m406
-41 c-28 -28 -31 -29 -31 -10 0 12 6 21 15 21 8 0 20 9 27 20 7 11 14 16 16
10 2 -5 -10 -24 -27 -41z m99 29 c0 6 5 12 12 12 22 0 -16 -30 -51 -40 -24 -7
-31 -6 -28 3 2 7 14 12 26 11 13 0 21 6 21 15 0 14 2 14 10 1 6 -10 10 -11 10
-2z m210 -8 c0 -5 -2 -10 -4 -10 -3 0 -8 5 -11 10 -3 6 -1 10 4 10 6 0 11 -4
11 -10z m-80 -14 c0 -3 -4 -8 -10 -11 -5 -3 -10 -1 -10 4 0 6 5 11 10 11 6 0
10 -2 10 -4z m-324 -15 c-8 -12 -55 -20 -61 -10 -3 4 7 10 22 12 16 2 32 5 36
6 5 0 6 -3 3 -8z m193 -18 c-40 -47 -42 -49 -34 -33 10 19 47 60 53 60 3 0 -5
-12 -19 -27z m-1402 -5 c-3 -8 -6 -5 -6 6 -1 11 2 17 5 13 3 -3 4 -12 1 -19z
m1533 4 c0 -22 -33 -128 -42 -137 -8 -7 -9 -4 -3 10 4 11 12 46 18 78 7 31 15
57 19 57 5 0 8 -4 8 -8z m-1485 -44 c5 -18 3 -28 -4 -28 -6 0 -11 9 -11 19 0
11 -3 28 -6 38 -5 12 -4 15 4 8 6 -5 14 -22 17 -37z m1140 2 c-10 -11 -20 -18
-23 -15 -3 3 3 14 13 25 10 11 20 18 23 15 3 -3 -3 -14 -13 -25z m5 -45 c-14
-15 -20 -31 -16 -42 5 -16 4 -16 -9 1 -12 16 -12 22 -2 28 6 4 9 8 5 8 -3 0 3
11 15 25 12 13 24 19 26 14 2 -6 -7 -21 -19 -34z m-1018 13 c-7 -7 -12 -8 -12
-2 0 14 12 26 19 19 2 -3 -1 -11 -7 -17z m-143 -31 c1 -5 -3 -5 -9 -2 -5 3
-10 16 -9 28 0 21 1 21 9 2 5 -11 9 -24 9 -28z m-159 29 c0 -3 -4 -8 -10 -11
-5 -3 -10 -1 -10 4 0 6 5 11 10 11 6 0 10 -2 10 -4z m1271 -29 c-7 -7 -7 -15
2 -26 9 -11 9 -13 0 -8 -6 4 -14 3 -18 -3 -4 -6 -11 -8 -16 -4 -6 3 -13 -3
-16 -15 -3 -12 -9 -21 -14 -21 -5 0 -8 -5 -6 -11 1 -6 -4 -14 -12 -16 -20 -8
-12 9 39 78 24 33 46 56 48 49 2 -6 -1 -17 -7 -23z m599 12 c0 -6 -4 -7 -10
-4 -5 3 -10 11 -10 16 0 6 5 7 10 4 6 -3 10 -11 10 -16z m-356 -56 c-22 -23
-36 -11 -18 16 12 17 19 20 24 10 5 -7 2 -18 -6 -26z m278 -40 c-7 -20 -22
-15 -22 6 0 10 -7 21 -15 25 -8 3 -15 10 -15 16 0 7 13 1 29 -12 15 -13 26
-29 23 -35z m-1596 27 c13 0 25 -4 29 -10 3 -5 13 -7 23 -4 14 5 14 4 2 -4 -8
-6 -21 -7 -28 -3 -8 5 -23 6 -33 4 -11 -3 -22 3 -29 19 -10 19 -10 21 1 11 7
-7 23 -13 35 -13z m639 10 c3 -5 1 -10 -4 -10 -6 0 -11 5 -11 10 0 6 2 10 4
10 3 0 8 -4 11 -10z m140 0 c3 -5 -1 -10 -9 -10 -9 0 -16 5 -16 10 0 6 4 10 9
10 6 0 13 -4 16 -10z m894 -14 c21 -12 21 -14 6 -20 -17 -6 -17 -7 1 -22 18
-14 18 -15 -3 -4 -22 10 -41 32 -26 29 25 -4 24 4 -2 16 -16 7 -23 14 -15 14
8 0 26 -6 39 -13z m-1919 0 c0 -3 -4 -8 -10 -11 -5 -3 -10 -1 -10 4 0 6 5 11
10 11 6 0 10 -2 10 -4z m1620 1 c0 -2 -10 -12 -21 -23 -22 -19 -22 -19 -8 4
12 19 29 30 29 19z m40 -7 c0 -5 -8 -10 -17 -10 -15 0 -16 2 -3 10 19 12 20
12 20 0z m218 -25 c-3 -3 -9 2 -12 12 -6 14 -5 15 5 6 7 -7 10 -15 7 -18z
m-1481 9 c-3 -3 -12 -4 -19 -1 -8 3 -5 6 6 6 11 1 17 -2 13 -5z m223 -4 c0 -5
-2 -10 -4 -10 -3 0 -8 5 -11 10 -3 6 -1 10 4 10 6 0 11 -4 11 -10z m120 -16
c0 -2 -7 -4 -15 -4 -8 0 -15 4 -15 10 0 5 7 7 15 4 8 -4 15 -8 15 -10z m160
12 c0 -2 -7 -7 -16 -10 -8 -3 -12 -2 -9 4 6 10 25 14 25 6z m964 -12 c3 -8 2
-12 -4 -9 -6 3 -10 10 -10 16 0 14 7 11 14 -7z m-1540 -10 c6 -15 4 -15 -11
-3 -10 7 -20 15 -22 16 -2 2 3 3 11 3 9 0 19 -7 22 -16z m479 7 c17 -6 17 -8
3 -20 -13 -11 -16 -11 -16 2 0 9 -10 18 -22 20 -19 4 -20 4 -3 5 11 0 28 -3
38 -7z m337 0 c0 -5 -7 -12 -16 -15 -14 -5 -15 -4 -4 9 14 17 20 19 20 6z
m360 -1 c0 -5 -2 -10 -4 -10 -3 0 -8 5 -11 10 -3 6 -1 10 4 10 6 0 11 -4 11
-10z m-400 -20 c0 -5 -7 -10 -16 -10 -8 0 -12 5 -9 10 3 6 10 10 16 10 5 0 9
-4 9 -10z m88 -35 c-18 -20 -33 -40 -33 -43 0 -4 -10 -18 -22 -32 -12 -14 -31
-36 -43 -50 -15 -18 -18 -19 -11 -5 5 11 23 34 39 52 17 17 28 34 26 36 -2 2
12 23 32 46 20 23 39 40 41 37 3 -2 -10 -21 -29 -41z m-258 19 c0 -2 -7 -4
-15 -4 -8 0 -15 4 -15 10 0 5 7 7 15 4 8 -4 15 -8 15 -10z m240 6 c0 -5 -7
-10 -16 -10 -8 0 -12 5 -9 10 3 6 10 10 16 10 5 0 9 -4 9 -10z m-294 -28 c-12
-2 -33 2 -46 8 -23 9 -22 10 8 4 20 -3 32 -2 32 6 0 7 5 6 14 -2 12 -11 11
-13 -8 -16z m117 1 c-7 -2 -19 -2 -25 0 -7 3 -2 5 12 5 14 0 19 -2 13 -5z
m-933 -18 c0 -3 -9 -15 -20 -27 -11 -12 -20 -30 -20 -40 0 -10 -4 -18 -8 -18
-5 0 -15 -11 -22 -25 -7 -14 -17 -25 -21 -25 -7 0 39 90 51 100 4 3 9 13 13
23 6 15 27 25 27 12z m-126 -60 c-4 -8 -13 -15 -20 -15 -12 0 -12 3 -2 15 17
19 29 19 22 0z m1861 -15 c3 -5 1 -10 -4 -10 -6 0 -11 5 -11 10 0 6 2 10 4 10
3 0 8 -4 11 -10z m5 -83 c0 -4 10 -21 22 -37 12 -16 19 -32 16 -36 -8 -7 -52
61 -63 96 -7 24 -7 24 9 5 8 -11 16 -24 16 -28z m-1900 23 c0 -5 -4 -10 -10
-10 -5 0 -10 5 -10 10 0 6 5 10 10 10 6 0 10 -4 10 -10z m1131 -59 c-6 -10 -7
-22 -3 -26 4 -5 1 -5 -6 -1 -9 5 -9 12 -2 27 6 10 13 19 16 19 2 0 0 -8 -5
-19z m-958 -28 c-6 -39 -32 -88 -41 -79 -3 3 0 11 6 18 5 7 12 27 15 45 5 31
14 53 22 53 2 0 1 -17 -2 -37z m1897 16 c17 -31 7 -33 -20 -4 -19 20 -20 25
-7 25 9 0 21 -9 27 -21z m-2090 -19 c0 -5 -5 -10 -11 -10 -5 0 -7 5 -4 10 3 6
8 10 11 10 2 0 4 -4 4 -10z m140 0 c0 -5 -5 -10 -11 -10 -5 0 -7 5 -4 10 3 6
8 10 11 10 2 0 4 -4 4 -10z m921 -89 c-12 -12 -21 -18 -21 -14 0 10 33 44 37
39 3 -2 -5 -14 -16 -25z m-50 -60 c-11 -15 -18 -31 -16 -35 3 -3 2 -4 -2 -1
-8 6 -34 -15 -28 -24 2 -4 -2 -8 -10 -8 -8 0 4 21 27 49 46 53 60 64 29 19z
m-1050 -4 c-10 -9 -11 -8 -5 6 3 10 9 15 12 12 3 -3 0 -11 -7 -18z m443 -169
c10 -35 20 -85 23 -113 2 -27 11 -68 20 -90 10 -28 12 -52 7 -85 -5 -25 -8
-51 -7 -57 0 -7 -3 -11 -7 -8 -4 3 -15 -12 -23 -33 -8 -21 -31 -57 -50 -79
-19 -23 -39 -61 -46 -85 -19 -76 -22 -77 -97 -40 -66 33 -66 33 -61 70 13 108
77 294 155 447 22 44 43 92 47 108 4 15 10 27 14 27 4 0 16 -28 25 -62z m535
58 c-2 -3 -23 -11 -47 -19 -34 -12 -40 -12 -32 -2 11 13 33 20 69 24 8 0 12
-1 10 -3z m-42 -92 c-3 -3 -12 -4 -19 -1 -8 3 -5 6 6 6 11 1 17 -2 13 -5z
m-117 -28 c0 -2 -7 -7 -16 -10 -8 -3 -12 -2 -9 4 6 10 25 14 25 6z m994 -120
c47 -93 84 -223 100 -355 4 -30 14 -63 22 -75 8 -11 14 -28 14 -38 0 -10 11
-52 25 -95 23 -69 24 -79 10 -89 -31 -23 -7 -92 61 -169 40 -46 90 -136 73
-133 -16 4 -23 -19 -7 -25 7 -2 5 -3 -4 -2 -25 4 -29 -8 -16 -46 15 -47 35
-68 74 -75 27 -5 35 -13 47 -48 8 -22 18 -49 22 -59 5 -12 3 -16 -7 -12 -26
10 -6 -90 24 -123 25 -27 33 -58 44 -175 2 -26 12 -71 22 -100 15 -41 23 -52
40 -51 16 0 23 -7 27 -30 12 -58 17 -67 41 -76 22 -9 36 -50 16 -50 -5 0 -51
18 -102 40 -51 22 -103 40 -114 40 -54 0 -64 10 -80 78 -9 37 -21 99 -26 137
-16 105 -57 320 -95 501 -38 176 -42 210 -22 217 8 3 1 15 -19 34 -17 16 -38
49 -46 73 -61 181 -59 172 -38 165 53 -17 2 94 -117 254 l-48 64 2 91 c4 123
14 226 22 226 4 0 29 -42 55 -94z m-1134 3 c0 -6 -4 -7 -10 -4 -5 3 -10 11
-10 16 0 6 5 7 10 4 6 -3 10 -11 10 -16z m840 -3 c0 -2 -11 -6 -25 -8 -14 -3
-25 -1 -25 3 0 5 11 9 25 9 14 0 25 -2 25 -4z m-849 -33 c13 -16 12 -17 -3 -4
-10 7 -18 15 -18 17 0 8 8 3 21 -13z m42 2 c4 -8 1 -17 -5 -21 -7 -4 -8 -3 -4
4 4 7 2 12 -3 12 -6 0 -11 5 -11 10 0 15 17 12 23 -5z m17 -45 c0 -5 -5 -10
-11 -10 -5 0 -7 5 -4 10 3 6 8 10 11 10 2 0 4 -4 4 -10z m108 -54 c-2 0 -14
-10 -27 -21 l-25 -20 20 26 c10 15 23 25 27 22 5 -3 7 -6 5 -7z m406 -2 c3 -9
5 -28 5 -42 -1 -23 -3 -21 -8 8 -4 24 -11 35 -23 35 -9 0 -20 4 -24 8 -4 4 4
7 18 7 14 0 29 -7 32 -16z m-327 -10 c-3 -3 -12 -4 -19 -1 -8 3 -5 6 6 6 11 1
17 -2 13 -5z m73 -23 c0 -42 -15 -46 -17 -5 -1 19 3 34 8 34 5 0 9 -13 9 -29z
m317 23 c-3 -3 -12 -4 -19 -1 -8 3 -5 6 6 6 11 1 17 -2 13 -5z m107 -2 c2 -4
-18 -8 -45 -8 -30 0 -45 3 -37 7 16 11 75 11 82 1z m-351 -9 c-7 -2 -21 -2
-30 0 -10 3 -4 5 12 5 17 0 24 -2 18 -5z m-283 -27 c0 -2 -7 -7 -16 -10 -8 -3
-12 -2 -9 4 6 10 25 14 25 6z m207 -78 c-3 -8 -6 -5 -6 6 -1 11 2 17 5 13 3
-3 4 -12 1 -19z m263 12 c0 -5 -2 -10 -4 -10 -3 0 -8 5 -11 10 -3 6 -1 10 4
10 6 0 11 -4 11 -10z m-235 -60 c13 -6 15 -9 5 -9 -8 0 -22 4 -30 9 -18 12 -2
12 25 0z m205 0 c-8 -5 -22 -9 -30 -9 -10 0 -8 3 5 9 27 12 43 12 25 0z m-367
-7 c-7 -2 -21 -2 -30 0 -10 3 -4 5 12 5 17 0 24 -2 18 -5z m484 1 c-3 -3 -12
-4 -19 -1 -8 3 -5 6 6 6 11 1 17 -2 13 -5z m-188 -8 c-8 -8 -88 -10 -95 -3 -4
4 17 7 46 7 29 0 51 -2 49 -4z m-1382 -98 c-3 -7 -5 -2 -5 12 0 14 2 19 5 13
2 -7 2 -19 0 -25z m1410 10 c-3 -8 -6 -5 -6 6 -1 11 2 17 5 13 3 -3 4 -12 1
-19z m73 -22 c0 -3 -4 -8 -10 -11 -5 -3 -10 -1 -10 4 0 6 5 11 10 11 6 0 10
-2 10 -4z m-175 -26 c3 -5 -1 -10 -10 -10 -9 0 -13 5 -10 10 3 6 8 10 10 10 2
0 7 -4 10 -10z m110 0 c3 -5 1 -10 -4 -10 -6 0 -11 5 -11 10 0 6 2 10 4 10 3
0 8 -4 11 -10z m-1463 -170 c60 -35 106 -65 104 -68 -5 -5 -32 8 -121 58 -86
48 -124 75 -143 101 -16 22 -15 22 19 -2 18 -14 82 -54 141 -89z m1103 99 c11
-17 -1 -21 -15 -4 -8 9 -8 15 -2 15 6 0 14 -5 17 -11z m658 -51 c-9 -15 -20
-25 -24 -22 -4 2 -10 0 -14 -6 -3 -5 -14 -10 -23 -10 -12 0 -9 6 11 18 15 9
33 29 39 44 8 17 15 23 20 15 4 -6 -1 -23 -9 -39z m-894 -66 c1 -11 -2 -10
-13 1 -8 8 -17 36 -20 63 l-6 49 19 -50 c11 -27 20 -56 20 -63z m355 72 c4
-11 2 -12 -14 -1 -11 6 -20 15 -20 19 0 12 28 -3 34 -18z m-809 -14 c18 -35
18 -64 -1 -110 l-14 -35 5 33 c2 18 0 32 -5 32 -6 0 -8 16 -4 39 5 30 3 39
-10 44 -20 8 -21 27 -1 27 8 0 21 -13 30 -30z m580 -27 c19 -45 19 -59 0 -43
-8 7 -15 19 -15 26 0 8 -4 14 -9 14 -5 0 -11 7 -14 14 -4 11 -1 13 11 9 15 -6
16 -5 2 12 -9 11 -10 16 -2 11 7 -4 19 -23 27 -43z m831 22 c-9 -9 -16 -13
-16 -8 0 12 22 34 28 28 2 -2 -3 -11 -12 -20z m879 4 c-52 -25 -197 -92 -210
-98 -5 -2 -5 2 2 9 12 14 220 108 238 108 6 1 -8 -8 -30 -19z m-2827 -25 c-6
-6 -58 20 -58 29 0 4 14 0 31 -8 17 -9 29 -18 27 -21z m1632 32 c0 -3 -4 -8
-10 -11 -5 -3 -10 -1 -10 4 0 6 5 11 10 11 6 0 10 -2 10 -4z m1310 -10 c0 -2
-21 -11 -47 -20 -51 -17 -51 -8 0 11 35 13 47 15 47 9z m-2319 -33 c13 -16 12
-17 -3 -4 -10 7 -18 15 -18 17 0 8 8 3 21 -13z m1096 -5 c-3 -8 -6 -5 -6 6 -1
11 2 17 5 13 3 -3 4 -12 1 -19z m-1622 -34 c14 -9 24 -19 21 -21 -6 -6 -82 43
-92 59 -5 8 3 6 19 -4 15 -10 38 -25 52 -34z m1605 9 c0 -25 -15 -12 -17 14
-1 19 1 22 8 12 5 -8 9 -20 9 -26z m1110 22 c0 -6 -76 -45 -87 -45 -4 1 12 12
37 25 50 27 50 27 50 20z m141 -12 c13 -17 13 -17 -6 -3 -11 8 -22 16 -24 17
-2 2 0 3 6 3 6 0 17 -8 24 -17z m-2956 -24 c22 -42 15 -44 -12 -3 -12 19 -18
34 -13 34 5 0 17 -14 25 -31z m796 14 c13 -16 12 -17 -3 -4 -10 7 -18 15 -18
17 0 8 8 3 21 -13z m2084 -27 c-19 -21 -35 -33 -35 -28 0 13 59 76 65 70 3 -3
-11 -22 -30 -42z m-2211 18 c5 -14 4 -15 -9 -4 -17 14 -19 20 -6 20 5 0 12 -7
15 -16z m1006 -4 c0 -13 -5 -18 -15 -14 -11 5 -12 9 -2 20 16 18 17 17 17 -6z
m1150 -10 c0 -5 -5 -10 -11 -10 -5 0 -7 5 -4 10 3 6 8 10 11 10 2 0 4 -4 4
-10z m-2715 -30 c3 -6 -1 -7 -9 -4 -10 4 -16 1 -16 -7 0 -7 -3 -10 -6 -6 -7 7
4 27 16 27 5 0 12 -4 15 -10z m263 -33 c23 -12 42 -25 42 -28 0 -4 -21 4 -47
17 -27 13 -60 26 -75 29 -16 3 -28 10 -28 15 0 11 50 -4 108 -33z m141 39 c-2
-2 -22 -6 -44 -9 -28 -5 -34 -4 -20 3 19 8 73 14 64 6z m1051 -6 c0 -5 -5 -10
-11 -10 -5 0 -7 5 -4 10 3 6 8 10 11 10 2 0 4 -4 4 -10z m1194 2 c2 -4 -4 -8
-14 -8 -10 0 -16 4 -14 8 3 4 9 8 14 8 5 0 11 -4 14 -8z m-1914 -22 c0 -5 -4
-10 -10 -10 -5 0 -10 5 -10 10 0 6 5 10 10 10 6 0 10 -4 10 -10z m2048 -10
c-7 -10 -14 -17 -17 -15 -4 4 18 35 25 35 2 0 -1 -9 -8 -20z m-390 -35 c3 -18
2 -19 -8 -2 -6 9 -15 15 -21 12 -5 -4 -9 -1 -9 5 0 20 35 6 38 -15z m122 15
c0 -5 -2 -10 -4 -10 -3 0 -8 5 -11 10 -3 6 -1 10 4 10 6 0 11 -4 11 -10z
m-2515 -10 c3 -6 -1 -7 -9 -4 -18 7 -21 14 -7 14 6 0 13 -4 16 -10z m645 -5
c20 -24 6 -28 -15 -5 -10 11 -13 20 -8 20 6 0 16 -7 23 -15z m-406 -3 c2 -4
-4 -8 -15 -8 -10 0 -19 4 -19 8 0 4 6 8 14 8 8 0 17 -4 20 -8z m2561 -30 c-10
-10 -16 -12 -13 -7 3 6 8 19 13 30 5 14 9 16 12 7 3 -8 -3 -21 -12 -30z
m-2784 8 c17 0 28 -4 24 -9 -7 -13 -65 -5 -79 10 -8 9 -7 10 7 5 10 -3 32 -6
48 -6z m2569 0 c12 -8 11 -10 -7 -10 -12 0 -25 5 -28 10 -8 13 15 13 35 0z
m75 -10 c-3 -5 -11 -10 -16 -10 -6 0 -7 5 -4 10 3 6 11 10 16 10 6 0 7 -4 4
-10z m-2690 -30 c10 -11 16 -20 13 -20 -3 0 -13 9 -23 20 -10 11 -16 20 -13
20 3 0 13 -9 23 -20z m265 17 c0 -2 -10 -12 -22 -23 l-23 -19 19 23 c18 21 26
27 26 19z m-160 -22 c14 -8 21 -14 15 -14 -5 0 -21 6 -35 14 -14 8 -20 14 -15
14 6 0 21 -6 35 -14z m857 -7 c-3 -8 -6 -5 -6 6 -1 11 2 17 5 13 3 -3 4 -12 1
-19z m-577 7 c0 -17 -72 -145 -81 -145 -7 0 -8 7 -4 18 4 9 15 39 25 66 16 44
33 65 53 66 4 0 7 -2 7 -5z m1483 -11 c-3 -9 0 -20 8 -25 9 -6 10 -9 2 -9 -6
0 -15 5 -18 10 -7 11 0 40 9 40 3 0 3 -7 -1 -16z m-364 -26 c0 -27 -2 -29 -8
-13 -5 11 -6 26 -4 33 8 21 13 13 12 -20z m1157 10 c15 -18 16 -20 2 -9 -11 8
-29 11 -45 7 l-28 -6 25 15 c14 8 25 14 26 15 0 0 9 -10 20 -22z m-2587 3 c10
-7 7 -9 -12 -8 -14 1 -23 5 -20 10 6 9 15 9 32 -2z m2431 -22 c12 -16 20 -33
17 -35 -3 -3 -14 7 -23 23 -10 15 -23 31 -29 35 -6 5 -6 8 2 8 6 0 21 -14 33
-31z m289 28 c-2 -1 -15 -11 -29 -22 l-25 -20 19 23 c11 12 24 22 29 22 6 0 8
-1 6 -3z m-2569 -11 c0 -2 -7 -9 -15 -16 -13 -11 -14 -10 -9 4 5 14 24 23 24
12z m758 -27 c-3 -8 -7 -3 -11 10 -4 17 -3 21 5 13 5 -5 8 -16 6 -23z m1602
21 c0 -5 -2 -10 -4 -10 -3 0 -8 5 -11 10 -3 6 -1 10 4 10 6 0 11 -4 11 -10z
m-1173 -32 c-3 -8 -6 -5 -6 6 -1 11 2 17 5 13 3 -3 4 -12 1 -19z m1229 7 c-24
-18 -33 -19 -42 -3 -4 7 -3 8 4 4 7 -4 20 -2 29 3 26 15 31 13 9 -4z m231 -17
c-3 -8 -6 -5 -6 6 -1 11 2 17 5 13 3 -3 4 -12 1 -19z m-2773 0 c-3 -4 -11 -5
-19 -1 -21 7 -19 12 4 10 11 0 18 -5 15 -9z m1947 -12 c-13 -15 -101 -49 -109
-42 -2 3 14 10 37 17 22 7 49 20 58 29 21 20 31 17 14 -4z m-1035 -27 c0 -16
-3 -29 -8 -29 -4 0 -8 17 -8 37 0 42 15 35 16 -8z m894 21 c13 -9 13 -10 0
-10 -8 0 -22 5 -30 10 -13 9 -13 10 0 10 8 0 22 -5 30 -10z m-1830 -14 c-7 -7
-13 -7 -20 0 -6 6 -3 10 10 10 13 0 16 -4 10 -10z m2563 -1 c-3 -9 -8 -14 -10
-11 -3 3 -2 9 2 15 9 16 15 13 8 -4z m113 3 c4 -7 3 -8 -4 -4 -7 4 -12 2 -12
-5 0 -7 -3 -10 -6 -6 -6 5 3 27 11 27 2 0 7 -5 11 -12z m-2689 -44 c2 -13 1
-15 -4 -4 -3 8 -16 23 -27 33 -21 19 -21 19 4 4 14 -8 26 -23 27 -33z m1837
17 c-2 -3 -12 3 -22 13 -16 17 -16 18 5 5 12 -7 20 -15 17 -18z m-1391 -16
c-3 -9 -8 -14 -10 -11 -3 3 -2 9 2 15 9 16 15 13 8 -4z m11 -67 c-7 -40 -24
-108 -38 -150 -13 -42 -30 -114 -36 -160 -18 -130 -29 -168 -61 -215 -48 -70
-100 -202 -154 -395 -13 -49 -19 -58 -39 -58 -12 0 -31 -9 -41 -20 -12 -14
-21 -17 -25 -9 -8 12 31 153 55 201 8 17 15 37 15 45 0 7 4 13 9 13 5 0 12 20
15 45 4 24 11 47 16 50 4 3 11 24 15 48 3 23 10 51 15 62 5 11 16 44 25 72 9
29 21 55 26 58 5 4 9 15 9 25 0 18 7 36 52 136 10 22 18 46 18 54 0 8 8 23 18
34 11 12 26 39 35 61 21 55 77 175 80 175 2 0 -2 -33 -9 -72z m2309 55 c-7 -2
-19 -2 -25 0 -7 3 -2 5 12 5 14 0 19 -2 13 -5z m-838 -13 c-3 -5 -15 -10 -25
-10 -10 0 -21 -6 -23 -12 -3 -8 -6 -7 -6 4 -1 11 9 18 27 21 15 2 28 5 30 6 2
0 0 -3 -3 -9z m52 -14 c-12 -13 -25 -22 -29 -20 -15 9 -8 25 15 34 35 14 37
12 14 -14z m710 18 c-3 -3 -12 -4 -19 -1 -8 3 -5 6 6 6 11 1 17 -2 13 -5z
m-2780 -10 c-3 -3 -12 -4 -19 -1 -8 3 -5 6 6 6 11 1 17 -2 13 -5z m80 -16 c-3
-8 -6 -5 -6 6 -1 11 2 17 5 13 3 -3 4 -12 1 -19z m1863 6 c0 -9 -7 -14 -17
-12 -25 5 -28 28 -4 28 12 0 21 -6 21 -16z m880 -19 c0 -5 -5 -3 -10 5 -5 8
-10 20 -10 25 0 6 5 3 10 -5 5 -8 10 -19 10 -25z m-2685 15 c3 -6 -1 -7 -9 -4
-18 7 -21 14 -7 14 6 0 13 -4 16 -10z m2618 -5 c4 -8 1 -17 -5 -21 -7 -5 -8
-2 -3 6 6 10 3 12 -13 8 -12 -4 -22 -2 -22 2 0 5 8 11 18 13 9 3 18 5 18 6 1
0 4 -6 7 -14z m182 5 c3 -5 1 -10 -4 -10 -6 0 -11 5 -11 10 0 6 2 10 4 10 3 0
8 -4 11 -10z m-916 -14 c9 -10 8 -16 -4 -26 -20 -16 -32 -5 -16 14 10 11 8 15
-6 19 -15 4 -15 5 -2 6 9 0 22 -5 28 -13z m926 -34 c17 -9 17 -11 3 -12 -19 0
-48 26 -48 43 0 6 6 4 13 -5 6 -8 21 -20 32 -26z m-968 13 c0 -17 -13 -20 -21
-6 -4 5 0 12 6 14 7 3 13 6 14 6 0 1 1 -6 1 -14z m90 -10 c0 -8 -4 -12 -9 -9
-4 3 -8 0 -8 -7 0 -10 -3 -10 -12 -1 -10 10 -10 15 2 22 21 13 27 12 27 -5z
m-2052 -5 c3 -5 1 -10 -4 -10 -6 0 -11 5 -11 10 0 6 2 10 4 10 3 0 8 -4 11
-10z m2790 -20 c3 -5 2 -10 -4 -10 -5 0 -13 5 -16 10 -3 6 -2 10 4 10 5 0 13
-4 16 -10z m-2920 -18 c-3 -3 -11 0 -18 7 -9 10 -8 11 6 5 10 -3 15 -9 12 -12z
m2161 5 c8 3 14 1 14 -5 0 -14 -30 -19 -65 -11 -21 5 -24 7 -10 9 11 1 23 2
28 1 4 0 7 5 8 12 0 9 2 9 5 0 3 -7 12 -9 20 -6z m824 -1 c0 -3 -4 -8 -10 -11
-5 -3 -10 -1 -10 4 0 6 5 11 10 11 6 0 10 -2 10 -4z m65 -6 c-11 -5 -29 -9
-40 -9 -17 -1 -17 1 -5 9 8 5 26 9 40 9 23 0 23 -1 5 -9z m-2675 -10 c0 -5 -4
-10 -10 -10 -5 0 -10 5 -10 10 0 6 5 10 10 10 6 0 10 -4 10 -10z m2470 -10 c0
-5 -8 -10 -17 -10 -15 0 -16 2 -3 10 19 12 20 12 20 0z m96 -5 c-11 -8 -25
-15 -30 -15 -6 0 -5 -4 2 -9 10 -6 4 -12 -20 -21 -18 -8 -36 -19 -40 -24 -5
-7 -8 -4 -8 6 0 10 12 19 33 24 18 4 26 9 18 12 -9 3 -3 11 20 23 41 22 51 23
25 4z m43 2 c-2 -1 -13 -9 -24 -17 -19 -14 -19 -14 -6 3 7 9 18 17 24 17 6 0
8 -1 6 -3z m-2889 -28 c-16 -4 -19 -7 -7 -8 9 -1 17 -6 17 -11 0 -6 -13 -4
-30 5 -32 17 -41 29 -13 18 10 -4 14 -2 10 4 -4 6 4 8 21 5 l27 -6 -25 -7z
m60 17 c0 -3 -4 -8 -10 -11 -5 -3 -10 -1 -10 4 0 6 5 11 10 11 6 0 10 -2 10
-4z m2035 -18 c-6 -17 -4 -20 9 -15 24 10 19 -8 -6 -22 -13 -6 -15 -9 -6 -7
10 3 20 0 24 -6 4 -6 3 -8 -3 -5 -5 3 -22 -3 -39 -14 -31 -20 -44 -24 -44 -11
0 5 12 13 28 20 21 9 22 11 4 8 -12 -2 -20 0 -16 5 3 5 11 9 19 9 8 0 17 5 21
11 6 11 -10 8 -55 -9 -9 -3 -12 -1 -7 6 4 7 15 12 25 12 10 0 21 9 24 20 3 11
10 20 17 20 7 0 9 -8 5 -22z m775 -28 c0 -5 -4 -10 -10 -10 -5 0 -10 5 -10 10
0 6 5 10 10 10 6 0 10 -4 10 -10z m-2880 -10 c0 -5 -7 -7 -15 -4 -8 4 -15 8
-15 10 0 2 7 4 15 4 8 0 15 -4 15 -10z m2850 -5 c0 -12 -4 -13 -19 -6 -10 6
-22 7 -26 3 -5 -4 -5 -1 -1 6 10 17 46 15 46 -3z m-2928 -25 c-12 -11 -25 -20
-29 -20 -4 0 4 11 17 24 14 13 27 22 29 20 3 -2 -5 -13 -17 -24z m1618 -22 c0
-23 -2 -39 -5 -37 -8 9 -12 79 -4 79 5 0 9 -19 9 -42z m1470 38 c0 -3 -4 -8
-10 -11 -5 -3 -10 -1 -10 4 0 6 5 11 10 11 6 0 10 -2 10 -4z m-983 -12 c-3 -3
-12 -4 -19 -1 -8 3 -5 6 6 6 11 1 17 -2 13 -5z m784 -11 c12 -16 12 -17 -2 -6
-9 7 -20 9 -24 5 -5 -4 -5 -1 -1 6 9 16 11 15 27 -5z m93 1 c5 -14 4 -15 -9
-4 -17 14 -19 20 -6 20 5 0 12 -7 15 -16z m-798 -9 c-11 -8 -23 -15 -28 -15
-4 0 -7 -5 -5 -12 1 -6 -7 -13 -18 -15 -18 -3 -18 -2 -2 5 10 4 17 11 15 16
-2 4 8 14 22 21 33 19 40 18 16 0z m-136 -30 c0 -14 -2 -25 -4 -25 -2 0 -6 11
-8 25 -3 14 -1 25 3 25 5 0 9 -11 9 -25z m-953 -37 c-2 -13 -4 -5 -4 17 -1 22
1 32 4 23 2 -10 2 -28 0 -40z m-917 38 c0 -2 -7 -6 -15 -10 -8 -3 -15 -1 -15
4 0 6 7 10 15 10 8 0 15 -2 15 -4z m2627 -2 c-3 -3 -12 -4 -19 -1 -8 3 -5 6 6
6 11 1 17 -2 13 -5z m-2763 -13 c3 -5 -1 -11 -9 -15 -9 -3 -15 0 -15 9 0 16
16 20 24 6z m2179 -16 c-3 -9 -8 -14 -10 -11 -3 3 -2 9 2 15 9 16 15 13 8 -4z
m-53 -5 c0 -5 -5 -10 -11 -10 -5 0 -7 5 -4 10 3 6 8 10 11 10 2 0 4 -4 4 -10z
m-2120 -26 c0 -2 -7 -4 -15 -4 -8 0 -15 4 -15 10 0 5 7 7 15 4 8 -4 15 -8 15
-10z m2150 12 c0 -2 -8 -10 -17 -17 -16 -13 -17 -12 -4 4 13 16 21 21 21 13z
m-2040 -16 c0 -5 -5 -10 -11 -10 -5 0 -7 5 -4 10 3 6 8 10 11 10 2 0 4 -4 4
-10z m-218 -32 c-8 -8 -9 -4 -5 13 4 13 8 18 11 10 2 -7 -1 -18 -6 -23z m3003
22 c-3 -5 -14 -10 -23 -9 -14 0 -13 2 3 9 27 11 27 11 20 0z m-2934 -19 c-7
-5 -10 -14 -7 -20 4 -6 2 -11 -3 -11 -6 0 -11 6 -11 13 0 16 21 39 29 31 3 -3
-1 -9 -8 -13z m3046 -21 c-1 -12 -5 -16 -10 -11 -5 5 -6 14 -3 20 11 16 15 13
13 -9z m-1452 0 c-3 -5 -12 -10 -18 -10 -7 0 -6 4 3 10 19 12 23 12 15 0z
m1394 -55 c0 -5 -4 -2 -10 8 -6 9 -14 15 -19 12 -4 -3 -6 5 -3 16 6 21 6 21
19 -2 7 -13 13 -28 13 -34z m-1904 35 c-3 -5 -12 -10 -18 -10 -7 0 -6 4 3 10
19 12 23 12 15 0z m1935 0 c0 -5 -7 -10 -16 -10 -8 0 -12 5 -9 10 3 6 10 10
16 10 5 0 9 -4 9 -10z m-3055 -10 c-3 -5 -12 -10 -18 -10 -7 0 -6 4 3 10 19
12 23 12 15 0z m35 -15 c-6 -8 -8 -19 -4 -26 4 -8 11 -4 20 12 16 29 18 20 3
-18 -8 -22 -12 -24 -19 -13 -10 16 -41 20 -51 7 -4 -5 -15 -7 -25 -5 -14 3 -8
9 24 23 23 10 42 22 42 27 0 4 5 8 11 8 8 0 8 -4 -1 -15z m685 5 c-27 -12 -43
-12 -25 0 8 5 22 9 30 9 10 0 8 -3 -5 -9z m905 -20 c0 -16 -2 -30 -4 -30 -2 0
-6 14 -8 30 -3 17 -1 30 4 30 4 0 8 -13 8 -30z m653 -38 c-3 -12 -9 -22 -14
-22 -5 0 -3 11 3 25 13 30 20 28 11 -3z m-2236 -59 c-3 -10 -5 -2 -5 17 0 19
2 27 5 18 2 -10 2 -26 0 -35z m-123 -11 c-8 -17 -20 -35 -26 -38 -6 -4 -1 12
12 34 27 48 38 51 14 4z m2386 -6 c0 -3 -4 -8 -10 -11 -5 -3 -10 -1 -10 4 0 6
5 11 10 11 6 0 10 -2 10 -4z m620 -6 c0 -5 -2 -10 -4 -10 -3 0 -8 5 -11 10 -3
6 -1 10 4 10 6 0 11 -4 11 -10z m-496 -25 c3 -8 1 -15 -4 -15 -6 0 -10 7 -10
15 0 8 2 15 4 15 2 0 6 -7 10 -15z m-2377 -37 c-3 -8 -6 -5 -6 6 -1 11 2 17 5
13 3 -3 4 -12 1 -19z m49 0 c4 -7 4 -10 -1 -6 -4 4 -14 3 -22 -3 -13 -11 -19
2 -6 14 10 11 21 8 29 -5z m-132 -28 c-22 -9 -29 -6 -20 9 4 6 14 7 23 4 15
-6 14 -7 -3 -13z m2976 0 c0 -5 -2 -10 -4 -10 -3 0 -8 5 -11 10 -3 6 -1 10 4
10 6 0 11 -4 11 -10z m-2925 -20 c-27 -12 -43 -12 -25 0 8 5 22 9 30 9 10 0 8
-3 -5 -9z m60 -8 c-3 -3 -11 0 -18 7 -9 10 -8 11 6 5 10 -3 15 -9 12 -12z
m2485 -22 c-6 -11 -12 -20 -14 -20 -3 0 -1 23 3 38 1 1 6 2 11 2 7 0 7 -6 0
-20z m38 -45 c0 -21 -3 -23 -15 -14 -10 9 -11 14 -2 19 6 5 8 13 4 20 -5 8 -4
11 2 7 6 -4 11 -18 11 -32z m52 10 c0 -2 -9 -3 -19 -2 -11 0 -18 5 -15 9 4 6
34 0 34 -7z m-5 -24 c-3 -5 3 -12 12 -14 14 -4 13 -5 -4 -6 -23 -1 -30 9 -16
22 9 10 15 8 8 -2z m140 -21 c3 -5 1 -10 -4 -10 -6 0 -11 5 -11 10 0 6 2 10 4
10 3 0 8 -4 11 -10z m-1175 -10 c0 -5 -4 -10 -10 -10 -5 0 -10 5 -10 10 0 6 5
10 10 10 6 0 10 -4 10 -10z m5 -30 c-3 -5 -12 -10 -18 -10 -7 0 -6 4 3 10 19
12 23 12 15 0z m5 -48 c0 -15 -2 -15 -10 -2 -13 20 -13 33 0 25 6 -3 10 -14
10 -23z m-15 -52 c3 -5 -1 -10 -9 -10 -9 0 -16 5 -16 10 0 6 4 10 9 10 6 0 13
-4 16 -10z m580 -70 c-3 -5 -11 -10 -16 -10 -6 0 -7 5 -4 10 3 6 11 10 16 10
6 0 7 -4 4 -10z m-541 -25 c3 -8 0 -15 -6 -15 -7 0 -6 -5 2 -15 9 -10 9 -15 1
-15 -6 0 -11 3 -12 8 0 4 -2 17 -3 30 -3 25 9 30 18 7z m6 -95 c-5 -22 -8 -27
-9 -13 -1 21 9 56 14 51 2 -2 0 -19 -5 -38z m-1315 -72 c-3 -13 -14 -88 -25
-168 -45 -317 -62 -351 -137 -280 -31 29 -31 31 -19 63 7 17 11 37 9 44 -7 18
51 131 101 197 40 53 50 86 25 86 -5 0 1 18 13 40 25 44 41 52 33 18z m1865
-63 c0 -12 -19 -12 -23 0 -4 9 -1 12 9 8 7 -3 14 -7 14 -8z m-2002 -60 c-23
-30 -43 -53 -45 -51 -5 5 24 75 38 93 6 7 20 13 30 13 15 0 11 -10 -23 -55z
m1444 -7 c-7 -7 -12 -8 -12 -2 0 6 3 14 7 17 3 4 9 5 12 2 2 -3 -1 -11 -7 -17z
m-28 -54 c3 -8 2 -12 -4 -9 -6 3 -10 10 -10 16 0 14 7 11 14 -7z m27 -17 c-10
-9 -11 -8 -5 6 3 10 9 15 12 12 3 -3 0 -11 -7 -18z m-2071 -37 c0 -5 -2 -10
-4 -10 -3 0 -8 5 -11 10 -3 6 -1 10 4 10 6 0 11 -4 11 -10z m88 -25 c-3 -3 -9
2 -12 12 -6 14 -5 15 5 6 7 -7 10 -15 7 -18z m2569 -27 c-3 -7 -5 -2 -5 12 0
14 2 19 5 13 2 -7 2 -19 0 -25z m-1224 -8 c-3 -12 -8 -19 -11 -16 -5 6 5 36
12 36 2 0 2 -9 -1 -20z m-936 -27 c-3 -10 -5 -4 -5 12 0 17 2 24 5 18 2 -7 2
-21 0 -30z m2160 -20 c-3 -10 -5 -4 -5 12 0 17 2 24 5 18 2 -7 2 -21 0 -30z
m-2502 17 c3 -5 1 -10 -4 -10 -6 0 -11 5 -11 10 0 6 2 10 4 10 3 0 8 -4 11
-10z m354 -62 c-7 -13 -14 -18 -16 -11 -3 7 1 22 8 35 7 13 14 18 16 11 3 -7
-1 -22 -8 -35z m913 -30 c-8 -8 -9 -4 -5 13 4 13 8 18 11 10 2 -7 -1 -18 -6
-23z m-947 -8 c-3 -5 -12 -10 -18 -10 -7 0 -6 4 3 10 19 12 23 12 15 0z m-395
-20 c0 -5 -7 -7 -15 -4 -8 4 -15 8 -15 10 0 2 7 4 15 4 8 0 15 -4 15 -10z
m-66 -19 c3 -5 -1 -11 -9 -14 -9 -4 -12 -1 -8 9 6 16 10 17 17 5z m446 -30 c0
-10 -7 -22 -16 -25 -8 -3 -13 -2 -11 2 2 4 7 15 10 25 8 23 17 22 17 -2z
m-190 -66 c0 -8 -2 -15 -4 -15 -2 0 -6 7 -10 15 -3 8 -1 15 4 15 6 0 10 -7 10
-15z m-325 -58 c-6 -24 -40 -43 -49 -28 -3 4 4 22 15 41 23 37 44 29 34 -13z
m1475 39 c0 -3 -4 -8 -10 -11 -5 -3 -10 -1 -10 4 0 6 5 11 10 11 6 0 10 -2 10
-4z m598 -41 c-3 -3 -9 2 -12 12 -6 14 -5 15 5 6 7 -7 10 -15 7 -18z m-2151
-17 c-3 -7 -5 -2 -5 12 0 14 2 19 5 13 2 -7 2 -19 0 -25z m563 22 c0 -5 -5
-10 -11 -10 -5 0 -7 5 -4 10 3 6 8 10 11 10 2 0 4 -4 4 -10z m-600 -88 c0 -15
-2 -15 -10 -2 -13 20 -13 33 0 25 6 -3 10 -14 10 -23z m520 -96 c0 -3 -4 -8
-10 -11 -5 -3 -10 -1 -10 4 0 6 5 11 10 11 6 0 10 -2 10 -4z m-20 -41 c0 -8
-4 -15 -10 -15 -5 0 -7 7 -4 15 4 8 8 15 10 15 2 0 4 -7 4 -15z m3960 -19 c0
-3 -4 -8 -10 -11 -5 -3 -10 -1 -10 4 0 6 5 11 10 11 6 0 10 -2 10 -4z m-20
-30 c0 -3 -4 -8 -10 -11 -5 -3 -10 -1 -10 4 0 6 5 11 10 11 6 0 10 -2 10 -4z
m-2957 -66 c-5 -19 -23 -39 -23 -25 0 9 20 45 24 45 2 0 2 -9 -1 -20z m-933
-56 c0 -8 -5 -12 -10 -9 -6 4 -8 11 -5 16 9 14 15 11 15 -7z m3800 -4 c0 -5
-5 -10 -11 -10 -5 0 -7 5 -4 10 3 6 8 10 11 10 2 0 4 -4 4 -10z m-2895 -40 c3
-5 1 -10 -4 -10 -6 0 -11 5 -11 10 0 6 2 10 4 10 3 0 8 -4 11 -10z m-968 -22
c-3 -8 -6 -5 -6 6 -1 11 2 17 5 13 3 -3 4 -12 1 -19z m41 -2 c0 -14 -6 -27
-14 -30 -8 -3 -11 1 -8 10 2 7 6 21 9 29 7 22 13 18 13 -9z m4032 -6 c0 -5 -4
-10 -10 -10 -5 0 -10 5 -10 10 0 6 5 10 10 10 6 0 10 -4 10 -10z m55 -40 c3
-6 -1 -7 -9 -4 -18 7 -21 14 -7 14 6 0 13 -4 16 -10z m-4433 -126 c2 -19 0
-37 -4 -40 -4 -3 -8 13 -8 35 0 51 6 53 12 5z m-191 -271 c13 -16 12 -17 -3
-4 -10 7 -18 15 -18 17 0 8 8 3 21 -13z"/>
<path d="M3985 8140 c-3 -5 1 -10 9 -10 9 0 16 5 16 10 0 6 -4 10 -9 10 -6 0
-13 -4 -16 -10z"/>
<path d="M3955 8007 c-20 -20 -20 -20 8 -15 18 4 27 1 27 -8 0 -8 5 -14 10
-14 6 0 10 4 10 10 0 5 7 7 15 4 8 -4 15 -1 15 5 0 6 5 10 12 9 6 -2 13 6 15
17 1 11 0 15 -3 9 -3 -7 -14 -10 -24 -7 -12 3 -20 0 -20 -7 0 -9 -6 -8 -22 2
-21 13 -25 13 -43 -5z"/>
<path d="M3640 7935 c-14 -16 -5 -35 16 -35 15 0 20 35 5 44 -5 3 -14 -1 -21
-9z"/>
<path d="M4550 7761 c0 -11 26 -22 34 -14 3 3 3 10 0 14 -7 12 -34 11 -34 0z"/>
<path d="M4525 7709 c-4 -6 -5 -12 -2 -15 2 -3 7 2 10 11 7 17 1 20 -8 4z"/>
<path d="M4250 8865 c0 -12 -5 -26 -11 -32 -17 -17 -7 -59 14 -55 9 2 17 -2
17 -8 0 -6 -4 -9 -9 -6 -5 3 -11 -3 -14 -13 -5 -19 18 -38 27 -23 8 14 -1 118
-12 137 -11 20 -11 20 -12 0z"/>
<path d="M4686 7837 c3 -10 9 -15 12 -12 3 3 0 11 -7 18 -10 9 -11 8 -5 -6z"/>
<path d="M4750 7820 c8 -5 20 -10 25 -10 6 0 3 5 -5 10 -8 5 -19 10 -25 10 -5
0 -3 -5 5 -10z"/>
<path d="M6373 1750 c4 -14 7 -38 7 -53 0 -16 4 -26 9 -23 9 6 -2 83 -14 94
-4 4 -5 -4 -2 -18z"/>
</g>
</svg>
