<?xml version="1.0" standalone="no"?>
<!DOCTYPE svg PUBLIC "-//W3C//DTD SVG 20010904//EN"
 "http://www.w3.org/TR/2001/REC-SVG-20010904/DTD/svg10.dtd">
<svg version="1.0" xmlns="http://www.w3.org/2000/svg"
 width="900.000000pt" height="600.000000pt" viewBox="0 0 900.000000 600.000000"
 preserveAspectRatio="xMidYMid meet">

<g transform="translate(0.000000,600.000000) scale(0.100000,-0.100000)"
fill="#000000" stroke="none">
<path d="M4547 5838 c-40 -59 -69 -167 -102 -386 -7 -45 -28 -62 -80 -62 -13
0 -35 -13 -52 -32 -16 -18 -46 -42 -67 -53 -69 -35 -76 -40 -76 -47 0 -5 7 -8
15 -8 8 0 15 -6 15 -12 0 -27 17 -40 36 -30 57 28 79 42 77 51 -1 5 5 15 15
23 15 12 16 11 3 -4 -12 -16 -11 -18 8 -18 28 0 28 -43 0 -71 -17 -17 -23 -19
-30 -8 -6 11 -9 10 -13 -4 -4 -9 -8 -25 -11 -34 -3 -9 0 -20 7 -25 9 -5 5 -8
-12 -8 -14 0 -34 -3 -46 -6 -18 -5 -24 4 -48 70 -33 91 -51 110 -66 71 -5 -14
-10 -32 -10 -39 0 -24 -70 -106 -90 -106 -11 0 -20 -5 -20 -12 0 -24 -52 -144
-69 -158 -18 -16 -33 -97 -35 -187 0 -24 -4 -43 -8 -43 -10 0 0 -262 13 -350
6 -39 19 -77 32 -95 17 -24 22 -44 22 -95 0 -58 -2 -65 -25 -77 -14 -7 -24
-18 -22 -24 5 -18 -48 -68 -65 -62 -12 5 -14 0 -9 -24 7 -29 5 -31 -34 -37
-29 -4 -39 -10 -34 -19 5 -7 2 -7 -9 2 -10 8 -20 11 -24 7 -3 -3 -2 -6 3 -6 5
0 10 -9 11 -20 2 -19 -12 -25 -47 -20 -12 1 -12 -1 -3 -10 6 -7 9 -19 6 -27
-3 -8 0 -18 6 -23 16 -9 -56 -53 -75 -46 -27 10 -21 -23 8 -44 27 -20 29 -24
14 -32 -20 -11 -12 -28 15 -28 11 0 18 4 15 9 -5 8 34 24 41 18 1 -2 -11 -18
-27 -35 -20 -22 -24 -32 -14 -32 12 0 11 -6 -6 -30 -12 -16 -19 -30 -15 -30 3
0 1 -9 -6 -21 -9 -17 -17 -20 -41 -15 -35 7 -108 -10 -108 -25 0 -6 8 -8 18
-5 59 18 72 18 72 2 0 -9 -8 -16 -19 -16 -24 0 -52 -31 -33 -37 13 -5 7 -23
-9 -23 -6 0 -7 5 -4 10 3 6 2 10 -4 10 -6 0 -17 -13 -25 -28 -8 -16 -32 -40
-53 -54 -36 -24 -39 -24 -40 -7 -1 11 8 24 20 30 36 19 56 63 32 73 -17 6 -55
-4 -55 -15 0 -5 -10 -9 -23 -9 -13 0 -28 -5 -34 -11 -9 -9 -18 -8 -38 5 -30
20 -44 14 -25 -9 8 -9 8 -15 2 -15 -6 0 -20 14 -32 30 -12 17 -26 30 -31 30
-6 0 -1 -14 11 -31 24 -32 21 -50 -4 -29 -9 6 -21 10 -28 7 -8 -4 -7 -6 5 -6
9 -1 17 -5 17 -10 0 -5 15 -19 33 -30 l32 -22 -29 7 c-23 6 -27 4 -21 -7 7
-11 5 -11 -11 1 -10 8 -25 22 -32 30 -12 13 -13 12 -7 -5 26 -75 29 -109 5
-66 -6 12 -16 21 -22 21 -7 0 -6 -5 2 -15 19 -23 3 -31 -20 -10 -22 20 -27 9
-7 -16 17 -22 66 -37 107 -33 20 2 12 -2 -20 -9 -30 -7 -56 -9 -58 -5 -2 4 -9
8 -16 8 -7 0 -23 9 -36 20 -25 22 -43 18 -33 -7 4 -11 3 -14 -5 -9 -7 4 -19 3
-28 -2 -15 -8 -14 -11 6 -30 l22 -20 -38 0 c-25 0 -48 8 -68 25 -43 33 -49 33
-51 -4 -1 -21 4 -34 14 -38 12 -5 9 -10 -14 -20 -16 -7 -24 -14 -17 -14 6 -1
12 -10 12 -21 0 -23 -17 -25 -44 -5 -26 20 -40 19 -32 -1 14 -35 -20 -5 -41
37 l-22 44 0 -32 c-1 -27 -4 -30 -23 -25 -14 3 -19 2 -14 -6 4 -7 3 -12 -3
-12 -6 0 -10 -10 -9 -22 2 -41 -2 -48 -22 -48 -11 0 -20 -5 -20 -10 0 -6 6
-10 13 -9 34 4 39 -2 18 -20 -25 -22 -19 -45 9 -36 10 3 21 1 25 -5 3 -6 -4
-10 -17 -10 -29 -1 -82 -29 -55 -30 9 0 17 -5 17 -11 0 -7 -11 -9 -28 -6 -22
4 -31 1 -41 -16 -14 -22 -13 -22 7 -4 12 12 22 14 26 8 4 -6 21 -8 39 -6 28 5
25 2 -18 -19 l-50 -23 65 -7 c36 -4 79 -8 95 -9 26 -1 30 -4 30 -29 0 -23 -4
-28 -20 -26 -13 2 -19 9 -17 22 2 11 -1 15 -8 11 -6 -4 -8 -15 -5 -26 5 -13 2
-19 -10 -19 -12 0 -15 5 -10 21 7 20 4 21 -21 15 -24 -6 -26 -5 -15 8 8 9 12
16 10 17 -38 7 -49 7 -49 0 0 -5 6 -12 13 -15 6 -3 -4 -4 -23 -1 -72 11 -75
11 -75 -10 0 -11 -5 -20 -10 -21 -6 0 -27 -8 -49 -17 -33 -15 -38 -21 -33 -43
6 -33 -6 -37 -76 -26 -31 5 -59 7 -62 4 -3 -3 -21 -11 -39 -17 l-35 -12 16 23
c8 13 12 24 7 24 -4 0 -3 5 2 10 6 6 30 13 55 16 24 3 46 8 48 9 9 10 -14 25
-37 25 -19 0 -23 3 -13 9 7 5 22 6 32 4 33 -9 21 14 -12 23 -28 8 -35 5 -63
-21 -19 -18 -43 -30 -59 -30 -15 0 -27 1 -27 2 0 1 15 10 33 19 17 9 45 27 60
40 23 20 25 24 10 24 -14 0 -12 4 10 18 15 9 27 20 27 24 0 5 13 8 29 8 35 0
91 19 91 31 0 5 12 9 28 9 l27 1 -28 24 c-17 15 -34 22 -45 18 -9 -3 -14 -3
-10 2 4 4 0 14 -10 21 -15 12 -14 13 10 14 15 0 29 -4 33 -9 3 -6 20 -17 38
-26 18 -9 26 -10 19 -3 -20 20 -14 31 17 25 16 -3 31 -4 34 -1 8 8 -51 64 -68
64 -7 0 -21 7 -30 16 -8 9 -27 17 -40 18 -14 0 -25 5 -25 9 0 5 -4 5 -10 2
-12 -8 -50 12 -50 27 0 6 9 3 20 -7 14 -13 23 -15 32 -7 7 5 21 11 30 13 15 4
14 7 -4 29 -20 24 -20 24 -14 3 9 -28 -13 -23 -32 7 -10 17 -10 20 3 20 8 0
15 4 15 10 0 6 15 8 36 4 34 -5 35 -4 24 16 -14 27 -6 37 15 20 11 -9 19 -10
26 -3 8 8 2 13 -20 18 -17 4 -31 11 -31 16 0 6 9 7 20 4 11 -4 34 -4 50 0 22
5 30 14 35 36 5 21 11 29 21 25 8 -3 14 -2 14 3 0 5 13 14 30 21 16 7 27 16
24 21 -3 5 4 9 15 9 10 0 27 3 36 6 14 6 13 8 -5 21 -17 12 -24 12 -36 2 -8
-6 -17 -9 -20 -6 -9 8 13 43 42 66 l26 21 -28 11 -29 12 25 7 c18 5 24 12 23
28 -2 15 2 20 12 16 8 -4 15 -1 15 5 0 17 59 73 70 66 6 -3 10 1 10 10 0 9 5
13 10 10 6 -3 10 0 10 7 0 18 33 45 48 40 7 -2 12 5 12 17 0 14 -6 21 -18 21
-10 0 -23 5 -29 11 -8 8 -14 1 -23 -26 -7 -20 -19 -39 -26 -42 -8 -3 -23 -22
-34 -43 -19 -37 -67 -80 -114 -101 -14 -7 -29 -24 -35 -40 -6 -17 -18 -29 -33
-31 -17 -2 -24 -11 -28 -33 -3 -16 -16 -43 -30 -58 -14 -16 -24 -31 -22 -34 2
-4 -19 -17 -46 -30 -40 -19 -51 -30 -62 -63 -7 -22 -17 -40 -21 -40 -4 0 -9
-12 -11 -27 -3 -26 -6 -28 -42 -25 -35 4 -38 2 -31 -15 16 -34 11 -97 -9 -126
-17 -23 -25 -26 -53 -21 -26 5 -33 3 -33 -10 0 -9 -4 -16 -9 -16 -18 0 -60
-49 -56 -66 2 -11 6 -31 9 -46 4 -16 20 -35 41 -48 44 -27 44 -43 3 -55 l-33
-10 -5 -117 c-5 -113 -6 -117 -37 -156 -18 -23 -33 -49 -33 -59 0 -11 -5 -24
-12 -31 -9 -9 -7 -16 6 -31 12 -14 16 -26 11 -38 -5 -10 -9 -40 -10 -66 -1
-27 -6 -52 -12 -55 -5 -4 -13 -31 -17 -61 -4 -30 -12 -63 -17 -73 -5 -10 -11
-49 -14 -87 -3 -56 -11 -83 -40 -138 -20 -37 -46 -78 -58 -91 -17 -18 -19 -25
-8 -31 9 -6 12 -19 7 -42 -13 -66 -12 -74 9 -74 11 0 24 10 31 23 6 12 28 57
48 100 54 111 70 137 91 141 11 2 41 25 67 52 26 27 55 49 63 49 19 0 19 -30
1 -72 -42 -96 -79 -273 -96 -458 -4 -47 -12 -114 -19 -150 -24 -130 -31 -177
-42 -275 -11 -102 -32 -156 -69 -182 -22 -16 -36 -58 -45 -133 -6 -61 -11 -70
-39 -86 -28 -15 -39 -63 -21 -91 8 -12 15 -43 15 -69 0 -66 -28 -340 -40 -391
-22 -92 -58 -83 350 -83 288 0 360 3 360 13 0 19 80 92 127 116 55 27 60 37
34 72 -11 15 -21 31 -21 34 0 4 20 40 45 81 25 41 59 104 76 141 29 63 31 74
34 217 2 83 8 171 14 196 5 25 10 63 11 85 0 23 4 45 10 51 5 5 16 39 24 74
16 71 39 143 66 205 30 68 43 109 44 137 1 16 10 34 23 43 21 15 22 14 33 -27
5 -24 37 -127 70 -229 33 -102 60 -199 60 -216 0 -17 7 -36 15 -43 8 -7 15
-18 15 -24 0 -6 14 -28 30 -48 29 -35 30 -39 17 -65 -8 -17 -12 -46 -9 -72 3
-32 0 -48 -10 -55 -9 -6 -17 -36 -21 -71 -9 -81 -61 -233 -92 -265 -27 -29
-32 -50 -12 -50 20 0 47 -33 47 -59 0 -14 -11 -28 -30 -39 -21 -12 -30 -25
-30 -43 0 -15 -7 -32 -15 -39 -8 -7 -15 -18 -15 -25 0 -7 -7 -18 -15 -25 -8
-7 -15 -25 -15 -41 l0 -29 1461 0 c1389 0 1461 1 1454 17 -4 10 -11 29 -15 43
-28 89 -216 447 -241 461 -10 5 -61 12 -113 16 l-95 6 -26 38 c-21 32 -25 50
-25 109 0 82 40 220 75 260 39 44 45 61 28 87 -22 33 -13 73 47 210 65 149
138 347 149 408 5 25 11 49 15 52 14 14 106 -119 106 -154 0 -5 -11 -20 -25
-33 -30 -29 -31 -33 -3 -70 15 -20 30 -30 48 -30 21 0 35 -12 63 -53 42 -61
46 -96 16 -138 -20 -28 -20 -31 -4 -55 13 -20 22 -24 41 -20 16 4 36 0 55 -11
39 -23 109 -125 109 -158 0 -45 31 -150 55 -191 14 -21 34 -58 46 -81 l22 -42
-21 -65 c-16 -47 -22 -91 -22 -150 0 -78 2 -86 25 -104 19 -15 25 -29 25 -58
0 -22 12 -70 26 -109 14 -38 32 -96 41 -127 l15 -58 121 0 c94 0 118 3 109 12
-7 7 -11 23 -11 38 2 24 2 24 6 2 4 -19 9 -23 26 -17 12 4 34 9 50 12 15 3 27
12 27 20 0 8 -4 11 -10 8 -5 -3 -7 0 -4 9 9 24 34 28 34 5 0 -11 5 -17 10 -14
6 4 8 11 5 16 -4 5 -2 9 4 9 6 0 17 -12 26 -27 41 -76 31 -73 258 -73 l204 0
7 77 c11 137 7 222 -18 331 -13 59 -27 127 -31 152 -4 25 -12 51 -18 58 -12
15 -41 100 -52 150 -4 22 -23 46 -56 74 -33 28 -49 49 -49 65 0 30 30 31 102
2 54 -21 98 -19 98 6 0 8 7 18 16 23 14 8 14 12 3 30 -7 11 -22 25 -33 30 -41
19 -166 145 -212 213 -25 39 -63 81 -83 94 -37 23 -37 23 -33 82 2 32 0 75 -6
95 -7 27 -7 47 4 75 18 52 17 98 -3 140 -13 27 -13 37 -4 43 9 5 5 9 -11 13
-17 5 -30 20 -43 52 -11 25 -23 45 -28 45 -4 0 -13 12 -20 28 -7 15 -26 47
-42 72 l-30 45 -10 321 c-7 239 -13 325 -23 337 -11 12 -11 20 -2 38 9 17 9
23 0 29 -7 5 -10 15 -7 24 5 12 0 16 -17 16 -17 0 -39 20 -81 72 -55 69 -57
74 -51 117 8 60 -10 114 -53 155 -54 51 -71 77 -71 108 0 22 -5 28 -21 28 -11
0 -28 7 -36 16 -12 12 -27 14 -60 9 -50 -7 -74 5 -68 37 4 16 2 18 -10 8 -15
-12 -16 -11 -19 13 -1 15 -59 15 -104 -1 -48 -17 -32 -39 34 -48 29 -3 61 -3
70 0 14 5 15 4 4 -9 -7 -8 -23 -15 -36 -15 -12 0 -26 -4 -29 -10 -3 -5 -15
-10 -26 -10 -29 0 -18 -25 12 -27 13 0 29 -1 34 -2 13 -1 113 -91 101 -91 -4
0 3 -15 18 -34 14 -19 26 -37 26 -41 0 -7 17 -29 46 -58 22 -22 33 -49 38 -90
2 -12 7 -34 11 -49 5 -20 1 -39 -13 -66 -24 -47 -35 -112 -22 -132 8 -12 10
-10 10 9 0 32 22 91 33 91 5 0 6 -19 3 -42 -4 -24 -8 -55 -9 -70 -1 -14 -5
-24 -10 -21 -4 2 -15 -13 -23 -34 -9 -21 -24 -47 -34 -58 -10 -11 -32 -45 -49
-75 -25 -45 -31 -50 -31 -30 0 14 6 34 13 45 12 18 37 92 37 109 0 15 -30 4
-44 -16 -20 -28 -30 -19 -17 16 13 32 8 33 -19 4 l-22 -23 13 28 c11 24 10 30
-2 37 -20 13 -38 -43 -28 -94 4 -22 5 -46 2 -53 -3 -8 3 -20 13 -28 11 -7 15
-17 11 -21 -4 -5 -12 -3 -16 5 -6 9 -10 7 -14 -8 -3 -13 -1 -19 5 -14 7 3 8 1
4 -5 -11 -18 -36 -14 -36 4 0 10 -6 14 -14 11 -18 -7 -8 34 12 49 10 7 14 24
12 45 -2 19 -3 55 -4 82 -1 26 -4 47 -7 47 -14 0 -131 -231 -126 -250 3 -13 0
-20 -8 -20 -19 0 -23 18 -17 83 5 60 0 67 -30 40 -18 -16 -17 -13 2 32 l21 50
-22 -22 c-12 -11 -23 -32 -24 -45 -4 -42 -5 -43 -19 -25 -9 12 -24 17 -42 15
-21 -2 -29 1 -28 13 2 20 -46 13 -63 -10 -11 -14 -12 -14 -13 0 0 8 16 31 36
50 20 18 48 56 62 83 15 27 35 63 44 80 12 22 17 26 18 13 0 -11 -8 -31 -19
-45 -23 -34 -43 -72 -37 -72 2 0 19 21 36 46 31 47 53 113 33 101 -14 -9 -25
35 -13 47 13 13 13 49 0 41 -16 -10 -11 18 11 59 11 21 18 40 16 42 -5 5 -50
-36 -63 -57 -5 -7 -24 -22 -42 -31 -40 -21 -62 -24 -44 -6 23 23 12 31 -12 9
-15 -14 -30 -20 -37 -16 -7 5 -10 4 -6 -2 3 -5 -9 -16 -28 -25 -30 -13 -33
-13 -27 1 3 9 16 30 29 47 40 54 25 48 -29 -12 -29 -31 -59 -70 -66 -87 -12
-28 -11 -29 12 -25 18 4 23 1 19 -10 -5 -12 -2 -12 15 -3 12 7 22 16 22 20 0
5 7 12 16 15 12 4 15 2 10 -9 -20 -50 -20 -48 3 -35 22 11 22 11 6 -20 -24
-47 -12 -47 34 0 41 42 50 45 32 11 -5 -9 -6 -23 -2 -30 6 -10 12 -7 25 10 22
32 20 17 -4 -33 -21 -43 -26 -64 -11 -39 5 8 17 16 26 17 13 2 9 -6 -13 -29
-16 -18 -37 -46 -45 -63 -9 -17 -29 -45 -46 -63 -17 -18 -31 -37 -31 -43 0 -5
-5 -6 -10 -3 -6 3 -13 0 -16 -9 -3 -8 -20 -20 -37 -26 -35 -12 -44 -11 -39 5
11 29 12 56 2 50 -5 -3 -10 -12 -10 -19 0 -8 -8 -16 -18 -19 -11 -2 -22 -17
-25 -36 -4 -17 -11 -31 -17 -31 -6 0 -8 11 -4 27 10 41 -12 17 -28 -32 -8 -23
-20 -39 -27 -37 -7 1 -19 -5 -27 -15 -11 -15 -14 -15 -14 -3 -1 8 -10 -5 -21
-29 -15 -35 -22 -41 -33 -32 -11 9 -15 5 -20 -24 -9 -47 -26 -35 -26 18 l-1
42 -21 -45 c-11 -25 -24 -47 -27 -50 -4 -3 -12 -17 -18 -33 -21 -45 -39 -31
-35 25 2 26 -17 22 -28 -4 -7 -19 -9 -14 -9 25 -1 26 -5 47 -11 47 -5 0 -10 7
-10 16 0 8 -5 12 -11 9 -6 -4 -8 -20 -4 -38 l6 -32 -20 25 c-19 23 -21 24 -22
5 -1 -14 -4 -10 -11 13 -6 17 -15 32 -19 32 -5 0 -9 5 -9 11 0 6 -11 24 -24
39 -16 20 -22 37 -19 54 8 41 19 39 16 -2 -1 -20 0 -28 4 -17 3 11 9 22 13 25
14 10 44 75 43 95 -1 16 -1 17 3 2 7 -21 18 -22 34 -2 13 16 30 20 30 8 0 -5
-23 -32 -50 -62 -28 -29 -50 -58 -50 -63 0 -23 142 141 154 177 3 11 16 25 28
30 13 6 25 19 27 30 2 11 20 39 39 63 22 27 37 57 38 76 2 17 6 41 9 54 6 17
4 21 -7 17 -8 -3 -24 -36 -37 -72 -14 -44 -33 -78 -56 -100 -36 -35 -47 -25
-19 15 23 33 12 37 -22 9 -32 -26 -84 -41 -84 -24 0 6 14 26 32 44 21 22 27
33 17 33 -8 0 -20 -5 -27 -12 -6 -6 -14 -9 -18 -6 -3 4 6 14 20 23 14 10 26
23 26 30 0 7 18 32 40 56 41 45 56 42 20 -4 -24 -30 -25 -37 -5 -37 8 0 15 6
15 14 0 8 11 27 24 43 14 16 28 41 31 56 7 26 8 26 37 11 33 -17 47 -12 29 9
-6 8 -10 23 -10 33 4 41 -2 64 -16 64 -8 0 -15 7 -15 16 0 8 -4 13 -9 10 -10
-6 -35 20 -44 47 -4 9 -11 17 -16 17 -6 0 -3 -16 5 -36 l15 -36 -25 6 c-15 4
-26 1 -29 -7 -3 -6 -4 3 -3 21 3 23 -2 35 -15 42 -24 13 -29 13 -29 -5 0 -20
-16 -19 -24 2 -5 12 -9 14 -18 5 -19 -19 -29 -14 -22 12 9 39 -29 45 -61 9
-38 -42 -22 -92 35 -108 20 -6 23 -5 13 6 -20 20 -15 31 7 19 28 -15 24 -51
-7 -74 -14 -11 -23 -14 -19 -7 9 14 -20 40 -44 41 -8 0 -30 -9 -48 -20 -28
-17 -32 -23 -21 -36 10 -12 9 -13 -5 -8 -9 3 -16 7 -16 9 0 12 32 60 55 81 28
26 28 47 0 24 -21 -17 -20 2 1 43 35 66 35 67 19 67 -9 0 -25 9 -37 20 l-22
20 40 0 39 1 -35 18 c-19 10 -41 16 -49 13 -9 -3 -12 -1 -7 6 4 7 16 12 26 12
10 0 22 5 25 10 3 6 1 10 -6 10 -7 0 -9 3 -5 7 11 12 89 3 113 -13 12 -8 32
-14 43 -14 11 0 23 -6 26 -14 3 -8 12 -12 20 -9 25 9 15 22 -23 29 -21 4 -43
11 -50 16 -30 24 -89 47 -105 42 -21 -6 -25 14 -4 22 23 9 50 55 37 63 -12 8
-3 51 10 51 13 0 11 37 -2 45 -6 4 -8 13 -5 21 3 8 -1 14 -9 14 -8 0 -15 5
-15 12 0 6 -3 8 -7 5 -3 -4 -12 2 -20 13 -8 11 -20 20 -26 20 -7 0 -23 9 -37
20 -37 29 -4 26 66 -5 67 -30 61 -29 61 -7 0 9 -13 35 -28 56 -33 46 -35 56
-13 56 17 0 44 -23 44 -38 0 -5 12 -14 28 -21 15 -8 34 -17 42 -21 10 -5 21 0
33 13 17 20 17 20 17 -11 0 -34 17 -52 26 -28 3 9 10 13 15 10 12 -7 1 -73
-15 -93 -9 -12 -8 -13 7 -8 10 4 20 7 22 7 9 0 26 73 18 79 -15 10 -53 63 -53
74 0 5 11 -2 25 -17 14 -15 25 -31 25 -37 0 -5 5 -9 11 -9 6 0 9 6 6 14 -3 7
0 19 6 25 9 10 8 15 -5 25 -10 7 -18 26 -18 41 0 28 0 28 18 9 10 -10 31 -36
46 -57 21 -27 31 -34 37 -25 5 8 1 21 -10 33 -10 11 -33 48 -52 82 -18 34 -36
60 -40 57 -4 -2 -9 5 -12 16 -3 10 -21 26 -41 34 -22 9 -36 22 -36 32 0 10
-10 28 -22 41 -15 16 -19 26 -12 31 7 4 9 21 7 40 -5 33 -17 42 -26 20 -5 -12
-11 17 -8 35 1 5 -3 5 -10 2 -12 -8 -51 29 -41 40 4 3 7 21 8 38 1 34 38 237
53 296 6 20 12 59 15 87 3 28 8 59 11 70 6 18 5 18 -7 1 -77 -109 -114 -157
-136 -181 -26 -27 -95 -76 -108 -76 -14 0 51 67 85 86 71 41 209 273 195 329
-4 15 -12 24 -19 21 -9 -3 -12 12 -11 54 1 32 -2 56 -6 54 -4 -2 -10 1 -13 7
-4 6 2 13 14 16 29 7 27 43 -4 89 -14 20 -25 47 -25 60 0 32 -16 30 -28 -3 -7
-18 -11 -22 -11 -10 -1 26 -18 20 -24 -9 -3 -15 0 -28 8 -30 22 -9 40 -81 26
-106 -11 -22 -11 -22 -8 5 3 21 0 27 -14 27 -13 0 -19 -7 -19 -22 -1 -21 -2
-21 -11 -5 -10 17 -29 15 -29 -4 0 -6 5 -7 10 -4 6 4 10 -5 10 -20 0 -15 -4
-24 -10 -20 -6 3 -15 -6 -20 -21 -13 -35 -49 -79 -63 -79 -7 -1 -15 4 -19 10
-4 5 -8 0 -8 -12 0 -27 -8 -29 -25 -6 -11 15 -15 15 -29 4 -13 -11 -16 -11
-16 2 0 8 8 18 17 21 14 6 15 9 4 16 -24 14 -51 -11 -51 -47 0 -25 -4 -33 -18
-33 -10 0 -33 -11 -52 -25 -31 -23 -35 -23 -51 -9 -10 9 -20 11 -23 6 -3 -6 1
-12 9 -16 19 -7 20 -26 1 -26 -8 0 -17 10 -21 23 -3 12 -12 33 -18 46 -10 19
-9 25 1 29 10 3 10 7 1 18 -19 23 -29 16 -22 -18 5 -27 4 -30 -11 -25 -10 4
-21 7 -24 7 -10 0 -13 62 -3 74 9 12 8 48 -4 111 -8 41 8 41 18 0 3 -13 5 -9
6 13 1 19 -4 32 -11 32 -10 0 -13 24 -14 88 0 123 -6 154 -31 181 -17 19 -19
28 -11 38 8 11 7 12 -6 7 -9 -3 -16 -10 -16 -14 0 -15 -84 -57 -127 -65 l-41
-6 -4 61 c-3 69 7 90 18 35 6 -32 24 -50 24 -24 0 5 5 7 10 4 6 -3 10 -1 10 6
0 6 8 9 20 6 11 -3 18 -1 14 4 -3 5 7 10 23 11 15 1 36 2 45 3 9 0 20 4 24 8
9 9 15 59 6 53 -4 -2 -7 36 -7 85 0 49 3 89 6 89 8 0 19 -89 19 -152 0 -27 5
-48 10 -48 6 0 10 -13 10 -29 0 -17 5 -33 10 -36 15 -9 24 23 12 38 -8 10 -42
214 -42 253 0 2 7 4 15 4 9 0 15 6 13 13 -1 6 1 44 5 83 8 69 9 71 32 66 25
-4 25 -4 25 72 0 54 4 76 13 76 6 0 4 5 -6 11 -9 6 -25 9 -35 8 -9 -1 -36 -1
-59 0 -35 1 -42 5 -45 24 -3 22 -3 22 -21 -5z m68 -178 c3 -5 1 -10 -4 -10 -6
0 -11 5 -11 10 0 6 2 10 4 10 3 0 8 -4 11 -10z m-112 -283 c-4 -6 -10 -27 -13
-47 -4 -26 -10 -34 -23 -32 -9 2 -17 -3 -17 -10 0 -21 -20 6 -30 41 -8 30 -7
33 20 45 39 16 72 18 63 3z m-116 -19 c-3 -8 -6 -5 -6 6 -1 11 2 17 5 13 3 -3
4 -12 1 -19z m10 -80 c-2 -13 -4 -3 -4 22 0 25 2 35 4 23 2 -13 2 -33 0 -45z
m173 32 c0 -5 -4 -10 -10 -10 -5 0 -10 5 -10 10 0 6 5 10 10 10 6 0 10 -4 10
-10z m-216 -179 c3 -5 -5 -11 -19 -13 -28 -6 -35 8 -7 15 9 3 18 5 19 6 1 0 4
-3 7 -8z m250 -7 c9 -24 7 -122 -3 -128 -5 -3 -7 -16 -4 -29 5 -18 3 -20 -8
-9 -21 19 -31 14 -18 -9 8 -16 8 -23 0 -29 -7 -3 -9 -15 -6 -26 4 -13 2 -12
-6 4 -7 12 -20 22 -30 22 -10 0 -20 9 -22 23 -3 12 -3 1 -1 -25 1 -26 10 -60
20 -75 l16 -28 -21 25 c-11 14 -24 41 -27 60 -10 51 -28 83 -68 118 -41 36
-44 42 -16 42 11 0 20 6 20 14 0 16 21 26 53 26 12 0 40 9 62 19 50 24 52 24
59 5z m-544 -75 c0 -16 1 -18 16 -54 8 -19 13 -35 11 -35 -5 0 -77 116 -77
124 0 4 11 -1 25 -10 14 -9 25 -20 25 -25z m110 22 c0 -20 -27 -48 -37 -37 -9
8 14 56 27 56 5 0 10 -8 10 -19z m-54 -18 c-10 -10 -19 5 -10 18 6 11 8 11 12
0 2 -7 1 -15 -2 -18z m274 20 c0 -2 -5 -13 -10 -23 -9 -16 -5 -22 24 -35 38
-18 66 -67 65 -112 0 -15 -3 -23 -5 -16 -3 7 -11 10 -19 7 -7 -3 -22 -1 -33 5
-32 17 -36 -15 -6 -47 15 -17 22 -21 18 -9 -4 11 -1 17 9 17 9 0 22 3 30 6 8
3 17 -1 20 -9 4 -10 -2 -13 -19 -11 -13 1 -24 -2 -24 -7 0 -5 5 -9 10 -9 6 0
10 -4 10 -9 0 -9 -35 -7 -70 4 -18 6 -19 9 -8 23 11 13 10 15 -9 10 -16 -4
-23 -2 -23 8 0 8 -4 14 -10 14 -5 0 -10 -4 -10 -10 0 -5 -7 -7 -16 -3 -13 5
-13 7 -2 14 11 7 10 11 -2 18 -12 9 -12 11 3 17 25 9 12 22 -18 16 -18 -3 -25
0 -25 11 0 9 5 19 10 22 8 5 8 11 1 19 -6 7 -8 16 -5 19 4 3 -2 14 -12 24 -17
17 -17 17 -11 1 4 -12 2 -18 -7 -18 -7 0 -13 12 -13 30 0 30 11 40 20 18 3 -9
7 -8 12 4 5 13 19 17 66 16 32 0 59 -3 59 -5z m-160 -33 c0 -5 -5 -10 -11 -10
-5 0 -7 5 -4 10 3 6 8 10 11 10 2 0 4 -4 4 -10z m-127 -25 c-3 -8 -9 -15 -14
-15 -10 0 -12 24 -3 33 11 11 24 -3 17 -18z m103 -23 c0 -10 8 -18 20 -20 19
-3 21 -7 14 -38 -5 -20 -12 -39 -16 -42 -4 -4 -4 2 0 13 6 16 5 18 -5 8 -19
-19 -36 -16 -42 7 -3 11 -9 20 -14 19 -21 -4 -44 2 -39 9 3 5 18 7 34 4 17 -2
33 1 37 9 6 9 2 11 -13 7 -22 -6 -30 6 -12 17 17 10 11 25 -7 19 -14 -5 -15
-4 -4 4 19 14 49 3 47 -16z m-76 -2 c0 -5 -4 -10 -10 -10 -5 0 -10 5 -10 10 0
6 5 10 10 10 6 0 10 -4 10 -10z m-26 -80 c-6 -6 -10 -2 -11 12 -2 16 1 18 10
9 7 -7 8 -14 1 -21z m36 -25 c0 -8 -2 -15 -4 -15 -2 0 -6 7 -10 15 -3 8 -1 15
4 15 6 0 10 -7 10 -15z m-27 -66 c-5 -18 -14 -34 -21 -37 -7 -2 -10 2 -7 10
20 56 26 70 31 65 3 -2 1 -20 -3 -38z m222 20 c11 -17 -1 -21 -15 -4 -8 9 -8
15 -2 15 6 0 14 -5 17 -11z m-55 -104 c4 2 15 -4 25 -15 23 -25 14 -25 -33 -1
-37 19 -62 55 -62 88 0 9 14 -5 31 -30 17 -26 34 -45 39 -42z m225 75 c3 -5
-1 -10 -9 -10 -8 0 -18 5 -21 10 -3 6 1 10 9 10 8 0 18 -4 21 -10z m-65 -20
c0 -5 -12 -10 -28 -10 -15 0 -42 -4 -60 -9 -41 -12 -41 -5 1 13 38 17 87 20
87 6z m45 -6 c14 -9 22 -20 19 -25 -5 -9 -53 20 -54 34 0 11 8 9 35 -9z m85
-19 c9 -10 9 -15 1 -15 -6 0 -11 4 -11 9 0 5 -8 12 -17 14 -15 4 -15 5 -2 6 9
0 22 -6 29 -14z m-460 -15 c0 -5 -5 -10 -11 -10 -5 0 -7 5 -4 10 3 6 8 10 11
10 2 0 4 -4 4 -10z m980 1 c0 -5 -7 -14 -15 -21 -16 -14 -18 -10 -9 14 6 17
24 22 24 7z m6 -46 c-17 -26 -79 -51 -98 -39 -7 4 8 13 36 21 39 11 50 20 60
45 7 20 12 25 14 14 2 -10 -3 -28 -12 -41z m-756 -45 c0 -5 -2 -10 -4 -10 -3
0 -8 5 -11 10 -3 6 -1 10 4 10 6 0 11 -4 11 -10z m600 6 c0 -3 -4 -8 -10 -11
-5 -3 -10 -1 -10 4 0 6 5 11 10 11 6 0 10 -2 10 -4z m-973 -28 c-3 -8 -6 -5
-6 6 -1 11 2 17 5 13 3 -3 4 -12 1 -19z m1019 -5 c19 -26 18 -28 -22 -29 -25
0 -31 2 -20 8 9 5 16 16 16 23 0 20 10 19 26 -2z m-961 -141 c-8 -8 -20 9 -32
48 -24 75 -22 82 7 21 17 -35 28 -66 25 -69z m705 63 c0 -3 -11 1 -25 7 -14 6
-25 19 -25 29 0 16 4 15 25 -7 14 -14 25 -27 25 -29z m-281 27 c0 -10 -3 -12
-5 -6 -3 6 -15 9 -28 7 -13 -3 -26 -1 -29 4 -3 5 10 10 29 10 26 1 34 -3 33
-15z m211 -34 c0 -39 -6 -34 -13 10 -3 18 -1 30 4 26 5 -3 9 -19 9 -36z m-63
10 c-3 -8 -6 -5 -6 6 -1 11 2 17 5 13 3 -3 4 -12 1 -19z m138 -18 c19 -8 19
-9 -2 -9 -12 -1 -25 4 -28 9 -7 12 2 12 30 0z m-319 -15 c-10 -8 -24 -11 -30
-8 -6 4 0 10 14 14 36 10 37 10 16 -6z m184 -15 c22 -11 40 -24 40 -28 0 -4
23 -16 51 -27 56 -22 72 -35 37 -31 -40 4 -106 39 -111 58 -3 10 -14 18 -25
18 -11 0 -25 7 -32 15 -17 20 -7 19 40 -5z m240 -1 c0 -6 -4 -7 -10 -4 -5 3
-10 1 -10 -5 0 -6 -5 -8 -11 -4 -6 3 -23 -6 -38 -20 -18 -17 -34 -24 -44 -20
-25 9 -20 24 7 24 13 0 26 3 28 8 5 12 62 41 70 36 5 -3 8 -10 8 -15z m-127 4
c-7 -2 -21 -2 -30 0 -10 3 -4 5 12 5 17 0 24 -2 18 -5z m212 -13 c3 -6 -4 -10
-17 -10 -18 0 -20 2 -8 10 19 12 18 12 25 0z m-122 -40 c-5 -19 -23 -29 -23
-12 0 7 20 32 26 32 1 0 0 -9 -3 -20z m-396 -12 c-3 -8 -6 -5 -6 6 -1 11 2 17
5 13 3 -3 4 -12 1 -19z m453 -13 c-14 -17 -30 -20 -30 -4 0 5 4 8 9 5 5 -3 12
1 15 10 4 9 9 14 13 11 3 -4 0 -13 -7 -22z m-82 -23 c-11 -2 -15 -9 -11 -20 6
-15 5 -15 -10 -3 -16 13 -16 14 0 26 10 7 22 10 28 7 6 -4 2 -8 -7 -10z m-148
-2 c0 -5 -7 -10 -15 -10 -8 0 -15 5 -15 10 0 6 7 10 15 10 8 0 15 -4 15 -10z
m521 -41 c-5 -13 -10 -19 -10 -12 -1 15 10 45 15 40 3 -2 0 -15 -5 -28z m-495
8 c17 6 18 5 4 -11 -13 -17 -12 -18 5 -14 12 2 19 10 17 21 -2 9 2 17 8 17 5
0 10 -8 10 -18 0 -10 11 -25 25 -32 17 -9 22 -17 15 -25 -6 -7 -3 -17 11 -28
19 -17 20 -17 17 0 -2 11 4 18 17 20 11 1 14 0 8 -3 -16 -7 -17 -41 -1 -46 17
-6 0 -28 -21 -28 -19 0 -63 29 -44 30 8 0 7 9 -3 30 -9 16 -12 35 -8 41 4 8 3
9 -4 5 -7 -4 -12 -1 -12 6 0 10 -3 9 -9 -1 -7 -10 -4 -19 7 -27 9 -7 14 -15
11 -18 -3 -3 -15 3 -26 14 -12 10 -23 16 -26 13 -3 -3 -12 4 -19 16 -7 12 -19
21 -27 21 -11 0 -11 3 -1 15 9 11 15 12 20 5 4 -6 15 -8 26 -3z m-80 -44 c-10
-10 -19 5 -10 18 6 11 8 11 12 0 2 -7 1 -15 -2 -18z m24 -28 c11 -13 10 -14
-4 -9 -9 3 -16 10 -16 15 0 13 6 11 20 -6z m275 -5 c3 -5 1 -10 -4 -10 -6 0
-11 5 -11 10 0 6 2 10 4 10 3 0 8 -4 11 -10z m-198 -6 c-3 -3 -12 -4 -19 -1
-8 3 -5 6 6 6 11 1 17 -2 13 -5z m63 -74 c0 -5 -4 -10 -9 -10 -5 0 -16 -3 -25
-6 -9 -3 -16 -1 -16 4 0 9 16 17 43 21 4 0 7 -3 7 -9z m120 -10 c0 -5 -8 -10
-17 -10 -15 0 -16 2 -3 10 19 12 20 12 20 0z m-45 -30 c8 0 17 -4 20 -10 4 -6
-6 -8 -24 -6 -21 2 -31 -1 -31 -10 0 -8 -9 -14 -20 -14 -11 0 -20 4 -20 10 0
6 -9 6 -26 0 -39 -15 -118 -12 -140 6 -18 15 -18 15 3 5 12 -6 40 -11 62 -11
35 0 41 3 41 22 0 19 2 20 18 6 15 -14 21 -14 57 2 22 9 42 13 43 9 2 -5 10
-9 17 -9z m-315 -25 c11 -13 10 -14 -4 -9 -9 3 -16 10 -16 15 0 13 6 11 20 -6z
m514 -76 c-10 -11 -28 -26 -39 -31 -14 -8 -12 -2 9 21 33 34 61 44 30 10z
m-529 -29 c3 -6 -1 -7 -9 -4 -18 7 -21 14 -7 14 6 0 13 -4 16 -10z m76 -46
c13 -16 12 -16 -7 -6 -11 6 -27 19 -35 28 -13 16 -12 16 7 6 11 -6 27 -19 35
-28z m205 27 c-9 -14 -76 -51 -76 -43 0 5 17 18 38 30 42 24 45 26 38 13z
m-86 -161 c0 -10 -4 -21 -8 -24 -5 -3 -9 8 -9 24 0 16 4 27 9 24 4 -3 8 -14 8
-24z m80 -44 c0 -3 -4 -8 -10 -11 -5 -3 -10 -1 -10 4 0 6 5 11 10 11 6 0 10
-2 10 -4z m7 -76 c1 -11 -2 -18 -8 -15 -11 7 -12 35 -1 35 4 0 8 -9 9 -20z
m-2167 -385 c-13 -14 -26 -22 -29 -19 -3 3 5 14 18 25 33 27 39 24 11 -6z
m1020 15 c13 -8 13 -10 -2 -10 -9 0 -20 5 -23 10 -8 13 5 13 25 0z m1387 -47
c-3 -10 -5 -4 -5 12 0 17 2 24 5 18 2 -7 2 -21 0 -30z m-1664 6 c-8 -8 -16 -8
-30 0 -16 9 -14 10 12 11 21 0 26 -3 18 -11z m200 -62 c-3 -5 -10 -4 -15 1 -6
6 -7 16 -3 22 6 9 9 9 16 -1 4 -7 5 -17 2 -22z m1504 7 c-7 -7 -37 7 -37 17 0
6 9 5 21 -1 11 -7 19 -14 16 -16z m-1667 -29 c-23 -25 -40 -32 -40 -17 0 7 49
41 59 42 3 0 -6 -11 -19 -25z m2990 -55 c0 -5 -2 -10 -4 -10 -3 0 -8 5 -11 10
-3 6 -1 10 4 10 6 0 11 -4 11 -10z m-3186 -14 c-21 -15 -30 -14 -19 3 3 6 14
11 23 11 13 0 13 -2 -4 -14z m1842 -27 c3 -6 -1 -18 -10 -27 -15 -15 -18 -15
-26 -2 -5 9 -5 19 2 27 13 16 25 17 34 2z m-1576 -29 c0 -6 -7 -13 -15 -16 -8
-3 -31 -29 -51 -57 -21 -29 -39 -46 -42 -39 -2 6 11 26 28 44 17 17 38 42 47
55 16 24 33 31 33 13z m-1045 -11 c11 -17 -1 -21 -15 -4 -8 9 -8 15 -2 15 6 0
14 -5 17 -11z m1185 -22 c0 -5 -4 -5 -10 -2 -5 3 -10 14 -10 23 0 15 2 15 10
2 5 -8 10 -19 10 -23z m-220 20 c0 -2 -10 -12 -22 -23 l-23 -19 19 23 c18 21
26 27 26 19z m1660 -27 c0 -5 -6 -10 -14 -10 -7 0 -20 -7 -27 -16 -12 -15 -11
-19 9 -32 22 -14 30 -42 13 -42 -21 0 -59 89 -44 104 10 10 63 7 63 -4z
m-1875 -30 c3 -5 1 -10 -4 -10 -6 0 -11 5 -11 10 0 6 2 10 4 10 3 0 8 -4 11
-10z m449 -8 c9 -16 -10 -31 -32 -25 -21 5 -21 6 -5 19 21 16 30 17 37 6z
m1664 -92 c-3 -23 -32 -49 -43 -38 -3 3 2 21 12 41 19 37 37 35 31 -3z m-1158
-4 c-38 -14 -46 -13 -35 3 3 6 21 11 38 10 l32 -1 -35 -12z m-590 -36 c0 -13
-11 -13 -30 0 -12 8 -11 10 8 10 12 0 22 -4 22 -10z m140 -19 c0 -20 -67 -61
-99 -61 -21 0 -30 4 -25 11 3 6 0 15 -7 20 -11 7 -11 9 -1 9 7 0 10 5 6 12 -4
7 -3 8 5 4 6 -4 9 -12 6 -17 -4 -5 6 -14 21 -20 24 -9 31 -7 46 13 10 13 18
26 18 31 0 11 30 9 30 -2z m-860 -27 c0 -2 -13 -4 -30 -4 -16 0 -30 4 -30 8 0
5 14 7 30 4 17 -2 30 -6 30 -8z m2510 -7 c0 -8 -9 -22 -20 -32 -19 -17 -19
-17 -7 14 12 32 27 42 27 18z m1151 -4 c13 -16 12 -17 -3 -4 -10 7 -18 15 -18
17 0 8 8 3 21 -13z m-1241 -7 c0 -7 -9 -16 -21 -19 -20 -5 -20 -5 -3 14 20 23
24 23 24 5z m-1715 -5 c-19 -8 -19 -8 0 -19 20 -11 20 -11 0 -26 -11 -8 -32
-16 -46 -16 -29 0 -68 25 -56 37 5 4 13 0 18 -10 11 -19 54 -23 64 -7 4 6 2
17 -5 24 -12 15 0 24 30 25 9 0 8 -3 -5 -8z m-530 -11 c-3 -5 -11 -10 -16 -10
-6 0 -7 5 -4 10 3 6 11 10 16 10 6 0 7 -4 4 -10z m-94 -33 c-13 -13 -26 -3
-16 12 3 6 11 8 17 5 6 -4 6 -10 -1 -17z m3619 2 c0 -6 -4 -7 -10 -4 -5 3 -10
11 -10 16 0 6 5 7 10 4 6 -3 10 -11 10 -16z m-2897 -7 c-3 -13 -13 -19 -30
-18 -31 1 -42 22 -16 29 39 10 51 7 46 -11z m857 3 c0 -8 3 -15 6 -15 3 0 12
7 20 15 9 8 28 15 44 15 25 0 29 -4 35 -39 5 -29 11 -38 21 -34 8 3 14 0 14
-6 0 -6 -8 -11 -17 -11 -21 -1 -68 -47 -77 -75 -3 -11 -2 -33 3 -50 l9 -30 1
38 c1 40 1 40 25 31 11 -4 13 -12 7 -27 -5 -12 -6 -27 -4 -34 2 -6 -3 -25 -12
-42 -15 -30 -15 -31 5 -31 21 0 23 -4 11 -34 -6 -17 -9 -16 -26 10 -34 52
-113 124 -129 118 -19 -7 -19 -4 -5 -42 6 -17 14 -30 18 -29 11 3 56 -36 75
-65 10 -16 14 -28 10 -28 -5 0 -3 -4 5 -9 10 -7 11 -13 2 -30 -11 -20 -10 -21
13 -15 21 5 26 3 26 -14 0 -29 -24 -46 -40 -27 -7 8 -17 12 -22 9 -5 -4 -20
-1 -33 6 -13 7 -32 9 -42 6 -17 -7 -17 -8 2 -21 11 -8 26 -19 33 -26 7 -6 16
-8 19 -5 10 10 42 -14 37 -28 -3 -8 -1 -17 5 -21 17 -10 13 -55 -5 -55 -8 0
-12 -5 -9 -10 4 -6 10 -8 14 -6 4 3 8 -9 9 -25 2 -27 0 -30 -19 -24 -14 5 -19
3 -15 -3 7 -12 -11 -27 -34 -27 -8 0 -20 -4 -27 -8 -6 -4 -14 -3 -18 3 -4 6
-10 8 -15 5 -4 -3 -6 5 -2 17 4 15 2 19 -8 13 -8 -5 -11 -3 -8 6 4 11 18 19
64 34 1 0 5 11 8 25 4 14 4 21 -1 15 -4 -5 -24 -11 -43 -11 -19 -1 -36 -6 -38
-13 -3 -8 -9 -8 -25 1 -12 6 -24 9 -27 7 -7 -6 -49 74 -43 84 3 4 -2 16 -11
25 -49 54 -56 64 -51 72 4 6 0 10 -8 10 -20 0 -31 31 -15 42 20 12 23 10 41
-27 22 -47 51 -47 87 -1 14 18 14 19 -7 8 -31 -17 -34 -15 -28 16 3 15 2 21
-1 15 -7 -15 -34 -17 -34 -3 0 6 6 10 13 10 9 0 9 2 -1 9 -8 4 -16 25 -19 45
l-5 37 38 -7 c34 -6 37 -5 31 15 -3 12 -1 19 4 15 16 -9 38 16 32 34 -6 15 -5
15 10 3 10 -8 17 -9 17 -3 0 20 -20 23 -51 8 -16 -8 -36 -13 -43 -10 -7 3 -18
-5 -24 -18 l-12 -23 6 23 c3 14 1 22 -8 22 -9 1 -7 5 5 14 17 13 21 66 4 66
-5 0 -7 6 -4 14 3 8 1 16 -5 18 -25 9 4 27 33 21 22 -4 33 -1 43 12 15 21 37
12 30 -13 -2 -9 1 -7 7 5 7 13 25 24 46 28 19 3 42 9 50 12 11 4 14 2 9 -5
-11 -18 21 -26 50 -14 13 7 24 20 24 29 -1 17 -1 17 -11 1 -12 -22 -45 -23
-53 -3 -4 12 -11 13 -31 5 -15 -6 -36 -10 -48 -9 -17 0 -14 4 13 14 48 18 80
18 80 0z m-1770 -10 c-22 -27 -5 -45 36 -38 27 4 35 3 30 -5 -4 -7 -14 -12
-22 -12 -8 0 -12 -4 -9 -10 3 -5 -2 -10 -11 -10 -16 0 -16 -1 2 -15 12 -9 14
-14 5 -15 -7 0 -11 -6 -8 -15 4 -8 2 -17 -2 -20 -5 -2 -11 8 -14 24 -3 16 -13
31 -23 35 -12 4 -15 2 -10 -9 3 -9 0 -15 -9 -15 -8 0 -14 -5 -12 -11 1 -6 -4
-14 -11 -16 -10 -4 -10 1 -1 21 14 31 6 44 -16 26 -29 -24 -15 2 28 50 23 27
46 49 51 50 5 0 3 -7 -4 -15z m540 6 c0 -10 -24 -21 -43 -21 -7 0 -3 7 7 15
22 17 36 19 36 6z m1672 -43 c-7 -7 -12 -8 -12 -2 0 6 3 14 7 17 3 4 9 5 12 2
2 -3 -1 -11 -7 -17z m285 -10 c-7 -4 -19 -8 -28 -8 -9 0 -22 -7 -29 -15 -7 -8
-20 -15 -29 -15 -16 0 -3 9 57 41 12 7 22 17 22 23 0 6 4 4 10 -4 6 -9 5 -17
-3 -22z m-1957 13 c0 -8 -69 -41 -117 -56 -33 -9 -29 13 3 26 15 5 29 7 32 5
2 -3 16 4 30 14 26 21 52 26 52 11z m1050 -7 c0 -2 -7 -4 -15 -4 -8 0 -15 4
-15 10 0 5 7 7 15 4 8 -4 15 -8 15 -10z m-586 -15 c-6 -11 -24 -2 -24 11 0 5
7 7 15 4 8 -4 12 -10 9 -15z m1144 -11 c-11 -34 -34 -65 -42 -57 -7 7 33 89
44 89 5 0 4 -14 -2 -32z m-1573 -17 c2 -19 0 -31 -6 -29 -6 2 -10 7 -10 11 1
4 1 19 1 34 0 35 10 24 15 -16z m1825 30 c0 -5 -7 -12 -16 -15 -14 -5 -15 -4
-4 9 14 17 20 19 20 6z m1415 -29 c5 -18 12 -32 16 -32 4 0 -4 -22 -17 -50
-13 -27 -24 -57 -24 -65 0 -8 -7 -15 -14 -15 -12 0 -13 6 -4 33 7 17 18 38 25
45 19 19 16 82 -4 105 -14 16 -15 19 -3 15 8 -2 19 -19 25 -36z m-2855 18 c0
-11 -22 -18 -37 -12 -22 7 -14 20 12 20 14 0 25 -4 25 -8z m1231 -17 c-8 -15
-10 -15 -11 -2 0 17 10 32 18 25 2 -3 -1 -13 -7 -23z m-2049 -8 c-2 -14 -11
-25 -18 -25 -8 0 -17 -7 -20 -15 -8 -19 -34 -20 -34 0 0 10 64 65 76 65 1 0
-1 -11 -4 -25z m1353 8 c-4 -10 -9 -35 -12 -56 -6 -37 -23 -62 -23 -33 0 9 -6
16 -12 16 -7 0 -5 5 5 11 9 5 17 19 17 31 0 17 -2 18 -15 8 -9 -7 -15 -8 -15
-2 0 5 7 13 16 16 8 3 12 10 9 16 -3 6 3 10 15 10 17 0 21 -4 15 -17z m-485
-7 c0 -3 -4 -8 -10 -11 -5 -3 -10 -1 -10 4 0 6 5 11 10 11 6 0 10 -2 10 -4z
m1198 -56 c-7 -10 -14 -17 -17 -15 -4 4 18 35 25 35 2 0 -1 -9 -8 -20z m-2494
-27 c-6 -23 -5 -26 7 -17 8 6 22 14 33 18 14 5 17 2 12 -9 -3 -8 -1 -15 4 -15
6 0 10 3 10 8 0 4 9 13 21 20 42 26 1 -26 -46 -58 -26 -18 -43 -36 -39 -42 5
-7 0 -9 -12 -6 -11 3 -25 -1 -32 -9 -11 -11 -7 -13 18 -13 27 0 30 -2 20 -19
-13 -25 -13 -31 1 -31 19 0 41 30 36 50 -3 11 -1 20 5 20 5 0 6 5 3 10 -3 6 0
10 7 10 19 0 43 -18 43 -31 0 -7 11 -14 24 -16 14 -2 30 -8 38 -15 10 -8 18
-6 33 7 11 10 17 22 14 26 -3 5 0 9 6 9 7 0 10 6 7 14 -3 8 3 22 14 32 10 9
19 12 19 6 0 -6 9 -14 20 -17 11 -3 20 -11 20 -17 0 -6 -6 -6 -15 2 -9 8 -15
8 -15 2 0 -6 -9 -14 -20 -17 -11 -4 -18 -10 -15 -15 3 -5 -8 -23 -24 -39 -18
-18 -28 -37 -25 -46 4 -8 1 -15 -5 -15 -6 0 -11 5 -11 11 0 7 -10 9 -25 5 -37
-10 -30 12 8 22 l32 9 -28 12 c-16 6 -36 11 -45 11 -15 -1 -15 -3 2 -15 19
-15 19 -15 -2 -15 -12 0 -22 5 -22 12 0 6 -11 -1 -24 -17 -13 -15 -28 -25 -34
-21 -6 3 -13 2 -17 -4 -3 -5 -17 -10 -31 -10 -14 0 -23 4 -19 10 3 6 -2 13
-12 17 -10 4 -24 13 -32 21 -12 12 -12 18 3 44 10 16 15 32 12 35 -3 3 5 18
17 34 12 15 30 39 40 53 23 33 29 33 21 -1z m866 23 c0 -2 -8 -10 -17 -17 -16
-13 -17 -12 -4 4 13 16 21 21 21 13z m-930 -25 c0 -6 -12 -23 -26 -38 -25 -28
-23 -19 6 25 16 24 20 27 20 13z m893 -15 c7 3 3 -2 -7 -10 -11 -9 -23 -16
-28 -16 -12 0 -10 24 5 39 10 10 13 9 15 -4 2 -8 9 -13 15 -9z m-345 3 c-2 -3
4 -14 12 -25 14 -19 14 -19 -8 0 -23 20 -30 40 -11 34 6 -2 9 -6 7 -9z m1903
-42 c-13 -13 -15 11 -4 40 7 16 8 15 11 -6 2 -13 -1 -28 -7 -34z m299 38 c0
-8 -7 -15 -15 -15 -8 0 -19 -9 -26 -21 -8 -15 -14 -18 -22 -10 -6 6 -20 11
-31 11 -17 0 -18 2 -6 10 11 7 7 10 -18 10 -18 0 -31 4 -28 8 3 5 27 6 53 1
36 -5 52 -4 63 7 19 18 30 18 30 -1z m35 5 c-3 -5 -11 -10 -16 -10 -6 0 -7 5
-4 10 3 6 11 10 16 10 6 0 7 -4 4 -10z m-2331 -25 c-4 -8 -11 -15 -16 -15 -6
0 -5 6 2 15 7 8 14 15 16 15 2 0 1 -7 -2 -15z m-289 -5 c-3 -5 -12 -10 -18
-10 -7 0 -6 4 3 10 19 12 23 12 15 0z m1655 -9 c0 -4 -7 -8 -15 -8 -8 0 -15 6
-15 13 0 8 6 11 15 8 8 -4 15 -9 15 -13z m-1570 5 c0 -11 -19 -15 -25 -6 -3 5
1 10 9 10 9 0 16 -2 16 -4z m187 -22 c-3 -3 -12 -4 -19 -1 -8 3 -5 6 6 6 11 1
17 -2 13 -5z m488 -13 c-3 -6 -15 -16 -26 -22 -18 -9 -19 -9 -10 9 10 19 32
33 40 26 1 -1 0 -7 -4 -13z m1519 -13 c-7 -25 -54 -85 -54 -70 0 5 9 21 20 35
11 14 20 32 20 41 0 9 5 16 11 16 6 0 8 -9 3 -22z m-669 -8 c3 -5 1 -10 -4
-10 -6 0 -11 5 -11 10 0 6 2 10 4 10 3 0 8 -4 11 -10z m905 -1 c0 -6 7 -8 16
-5 10 4 14 1 12 -6 -3 -7 -19 -14 -37 -16 -30 -3 -32 -2 -21 17 11 22 30 28
30 10z m-1334 -27 c-4 -3 -14 2 -24 12 -16 18 -16 18 6 6 13 -6 21 -14 18 -18z
m2586 6 c-7 -7 -12 -8 -12 -2 0 14 12 26 19 19 2 -3 -1 -11 -7 -17z m218 -3
c0 -14 -4 -25 -9 -25 -4 0 -6 11 -3 25 2 14 6 25 8 25 2 0 4 -11 4 -25z
m-3629 -8 c-10 -9 -11 -8 -5 6 3 10 9 15 12 12 3 -3 0 -11 -7 -18z m3706 -9
c-3 -7 -5 -2 -5 12 0 14 2 19 5 13 2 -7 2 -19 0 -25z m-2445 -10 c-8 -8 -9 -4
-5 13 4 13 8 18 11 10 2 -7 -1 -18 -6 -23z m-1372 -13 c0 -14 -4 -25 -10 -25
-11 0 -14 33 -3 43 11 11 13 8 13 -18z m2241 -11 c-17 -14 -39 -24 -48 -22
-13 3 -7 10 22 25 55 28 62 28 26 -3z m1024 6 c9 -14 -4 -52 -16 -45 -12 8
-12 55 0 55 6 0 13 -5 16 -10z m-3398 -6 c-3 -3 -12 -4 -19 -1 -8 3 -5 6 6 6
11 1 17 -2 13 -5z m3790 -51 c-3 -10 -5 -2 -5 17 0 19 2 27 5 18 2 -10 2 -26
0 -35z m-3467 23 c0 -3 -4 -8 -10 -11 -5 -3 -10 -1 -10 4 0 6 5 11 10 11 6 0
10 -2 10 -4z m-477 -14 c3 -4 -6 -20 -19 -35 -23 -27 -24 -27 -21 -5 3 35 28
60 40 40z m1237 -12 c6 -11 9 -20 7 -20 -2 0 -12 9 -22 20 -10 11 -13 20 -7
20 6 0 16 -9 22 -20z m385 6 c-22 -7 -44 -10 -49 -8 -14 8 24 21 59 21 28 -1
27 -1 -10 -13z m-1778 -43 c-21 -19 -42 -32 -45 -28 -4 4 10 22 31 42 21 19
42 32 45 28 4 -4 -10 -22 -31 -42z m1603 32 c20 -24 6 -28 -15 -5 -10 11 -13
20 -8 20 6 0 16 -7 23 -15z m-1286 -10 c-2 -5 -28 -9 -57 -8 -66 2 -70 4 -27
13 48 9 88 7 84 -5z m1557 -23 c19 -21 51 -65 71 -98 20 -32 55 -88 78 -124
28 -43 34 -57 19 -43 -13 12 -49 61 -79 108 -30 48 -74 111 -98 141 -48 62
-42 74 9 16z m-1680 -5 c-13 -13 -26 -3 -16 12 3 6 11 8 17 5 6 -4 6 -10 -1
-17z m364 13 c-3 -5 -12 -10 -18 -10 -7 0 -6 4 3 10 19 12 23 12 15 0z m1145
-4 c0 -2 -7 -7 -16 -10 -8 -3 -12 -2 -9 4 6 10 25 14 25 6z m937 -18 c-3 -8
-6 -5 -6 6 -1 11 2 17 5 13 3 -3 4 -12 1 -19z m-1007 -8 c0 -5 -5 -10 -11 -10
-5 0 -7 5 -4 10 3 6 8 10 11 10 2 0 4 -4 4 -10z m2490 0 c0 -5 -4 -10 -10 -10
-5 0 -10 5 -10 10 0 6 5 10 10 10 6 0 10 -4 10 -10z m-1377 -47 c-3 -23 -10
-41 -16 -40 -5 1 -12 -4 -15 -12 -3 -10 0 -12 11 -8 11 4 14 2 10 -8 -3 -8 -9
-12 -14 -9 -5 3 -9 -10 -9 -28 0 -25 3 -29 10 -18 8 12 10 11 10 -7 0 -33 -16
-28 -29 8 -14 42 6 162 26 155 7 -3 13 0 13 6 0 6 2 9 4 7 3 -2 2 -23 -1 -46z
m-1153 22 c7 -8 8 -15 2 -15 -5 0 -15 7 -22 15 -7 8 -8 15 -2 15 5 0 15 -7 22
-15z m2228 -2 c-10 -2 -18 -9 -18 -14 0 -5 -4 -9 -10 -9 -5 0 -7 7 -4 15 4 8
16 14 28 14 16 -1 17 -2 4 -6z m46 -1 c19 -31 -65 -51 -144 -33 l-45 10 56 -5
c66 -6 109 3 109 22 0 15 16 19 24 6z m-161 -9 c-7 -2 -21 -2 -30 0 -10 3 -4
5 12 5 17 0 24 -2 18 -5z m377 -14 c17 -11 -105 -3 -160 11 -24 6 -6 7 55 3
50 -2 97 -9 105 -14z m70 11 c0 -5 -4 -10 -10 -10 -5 0 -10 5 -10 10 0 6 5 10
10 10 6 0 10 -4 10 -10z m-1483 -42 c-3 -7 -5 -2 -5 12 0 14 2 19 5 13 2 -7 2
-19 0 -25z m-1050 4 c9 2 18 -2 20 -8 2 -7 -9 -9 -33 -5 -21 3 -39 12 -42 20
-3 10 0 11 17 2 12 -7 29 -11 38 -9z m2271 1 c-10 -2 -26 -2 -35 0 -10 3 -2 5
17 5 19 0 27 -2 18 -5z m309 -25 c-3 -8 -6 -5 -6 6 -1 11 2 17 5 13 3 -3 4
-12 1 -19z m59 -28 c8 0 19 -12 24 -26 17 -43 11 -51 -11 -15 -19 32 -21 32
-34 15 -13 -17 -14 -16 -14 21 0 32 2 36 10 23 5 -10 17 -18 25 -18z m-2585
-2 c21 -26 24 -38 9 -38 -5 0 -16 14 -25 30 -18 35 -11 39 16 8z m-1761 -2 c0
-3 -4 -8 -10 -11 -5 -3 -10 -1 -10 4 0 6 5 11 10 11 6 0 10 -2 10 -4z m106
-51 c-7 -26 -35 -65 -47 -65 -6 0 14 45 34 78 13 20 20 14 13 -13z m188 -21
c3 -8 2 -12 -4 -9 -6 3 -10 10 -10 16 0 14 7 11 14 -7z m3896 -8 c5 -13 14
-27 19 -31 6 -3 11 -15 11 -25 0 -10 9 -22 21 -25 16 -5 18 -10 8 -21 -8 -10
-8 -14 -1 -14 6 0 18 12 25 26 9 17 17 23 21 16 4 -7 2 -21 -5 -33 -9 -18 -8
-24 4 -30 27 -16 9 -56 -34 -73 -22 -9 -47 -16 -57 -16 -9 -1 -41 -9 -70 -19
-48 -17 -53 -17 -62 -2 -7 13 -11 14 -21 4 -10 -10 -10 -13 -1 -13 7 0 12 -7
12 -15 0 -19 -14 -19 -34 0 -14 14 -19 14 -56 -5 -23 -12 -49 -19 -58 -17 -13
4 -11 5 4 6 12 0 28 8 35 18 13 14 11 16 -11 11 -14 -3 -34 -9 -44 -13 -13 -6
-17 -5 -13 2 4 6 19 14 34 18 15 3 34 12 41 18 16 12 38 17 100 21 31 2 47 9
58 24 8 12 23 22 32 23 10 0 12 3 5 5 -7 3 -21 0 -33 -6 -18 -10 -25 -7 -48
16 -15 15 -21 24 -14 20 6 -4 12 -2 12 3 0 6 -7 11 -15 11 -8 0 -15 5 -15 10
0 6 -7 10 -15 10 -8 0 -15 7 -15 15 0 23 -38 18 -51 -7 -16 -30 -39 -52 -46
-44 -3 3 0 12 7 21 16 20 6 45 -20 45 -23 0 -24 -4 -10 -29 7 -14 5 -23 -10
-36 -15 -14 -20 -15 -20 -4 0 8 -7 27 -15 43 -14 27 -14 30 7 45 22 15 84 41
101 41 5 0 5 -4 2 -10 -3 -5 -4 -10 -1 -10 2 0 11 -3 20 -6 10 -4 16 -1 16 8
0 11 13 12 63 7 65 -6 97 2 97 26 0 24 30 17 40 -9z m243 -113 c5 -8 3 -11 -5
-8 -17 7 -59 71 -51 79 5 4 28 -25 56 -71z m-4074 41 c14 -12 -19 -1 -35 12
-18 14 -18 14 6 3 14 -6 27 -13 29 -15z m3996 -19 c6 0 12 -11 13 -25 2 -14 8
-30 14 -37 5 -7 6 -18 2 -24 -4 -8 -3 -9 4 -5 7 4 12 3 12 -2 0 -17 -30 -23
-31 -7 -1 8 -3 20 -4 25 -1 6 -4 20 -5 33 -2 18 -3 17 -9 -8 -4 -16 -4 -31 0
-33 10 -5 -2 -50 -17 -63 -11 -9 -14 -7 -14 12 0 13 5 41 9 63 6 23 6 48 0 63
-7 18 -6 22 4 16 6 -4 17 -8 22 -8z m-425 -70 c-7 -8 -22 -14 -34 -14 -20 1
-20 2 -1 6 11 3 24 9 30 14 15 14 19 10 5 -6z m-3765 -5 c-3 -5 -11 -10 -16
-10 -6 0 -7 5 -4 10 3 6 11 10 16 10 6 0 7 -4 4 -10z m193 3 c-10 -2 -28 -2
-40 0 -13 2 -5 4 17 4 22 1 32 -1 23 -4z m3592 -23 c0 -5 -4 -10 -10 -10 -5 0
-10 5 -10 10 0 6 5 10 10 10 6 0 10 -4 10 -10z m-225 -10 c-3 -5 -12 -10 -18
-10 -7 0 -6 4 3 10 19 12 23 12 15 0z m-3525 -9 c0 -12 -37 -24 -50 -16 -18
11 -10 21 20 23 17 1 30 -2 30 -7z m4248 -38 c16 -35 15 -41 -5 -52 -16 -8
-18 -4 -18 35 0 51 5 55 23 17z m-2268 -23 c-19 -16 -39 -29 -45 -29 -5 0 6
13 25 29 19 16 40 29 45 29 6 0 -6 -13 -25 -29z m2200 -5 c0 -21 -3 -23 -22
-16 -29 10 -36 31 -9 24 12 -3 21 -1 21 6 0 6 2 11 5 11 3 0 5 -11 5 -25z
m-380 -15 c0 -5 -5 -10 -11 -10 -5 0 -7 5 -4 10 3 6 8 10 11 10 2 0 4 -4 4
-10z m402 -30 c-5 -34 -32 -42 -32 -9 0 13 -4 18 -12 13 -7 -4 -8 -3 -4 5 4 6
11 9 15 7 4 -3 13 -1 21 5 8 5 15 9 16 9 0 0 -1 -13 -4 -30z m89 -33 c-10 -9
-11 -8 -5 6 3 10 9 15 12 12 3 -3 0 -11 -7 -18z m-171 -2 c0 -8 -4 -15 -10
-15 -5 0 -10 7 -10 15 0 8 5 15 10 15 6 0 10 -7 10 -15z m146 0 c-3 -8 -1 -15
4 -15 5 0 4 -13 -2 -30 -9 -28 -11 -29 -23 -13 -9 13 -10 23 -3 37 7 13 6 21
-3 27 -10 6 -7 9 10 9 16 0 22 -4 17 -15z m-2396 1 c0 -2 -7 -7 -16 -10 -8 -3
-12 -2 -9 4 6 10 25 14 25 6z m-1750 -16 c0 -5 -5 -10 -11 -10 -5 0 -7 5 -4
10 3 6 8 10 11 10 2 0 4 -4 4 -10z m3975 -10 c3 -6 -5 -10 -19 -10 -13 0 -26
-5 -28 -12 -2 -6 -20 -12 -40 -12 -20 -1 -34 -4 -31 -8 2 -5 -3 -8 -12 -8 -9
0 -26 -7 -39 -15 -13 -9 -47 -17 -75 -19 -49 -4 -51 -3 -31 11 11 8 27 12 35
9 8 -3 17 -1 20 4 3 5 20 14 38 19 18 6 57 19 87 30 62 23 86 26 95 11z m-325
-62 c21 -45 24 -58 12 -58 -4 0 -12 15 -18 33 -6 17 -14 40 -19 50 -15 36 5
15 25 -25z m530 -17 c0 -5 -6 -12 -12 -15 -10 -5 -10 -7 0 -12 10 -5 10 -9 1
-20 -16 -20 -35 -17 -35 5 0 11 3 18 7 15 4 -2 10 5 14 16 6 20 25 28 25 11z
m-137 -98 c-7 -2 -19 -2 -25 0 -7 3 -2 5 12 5 14 0 19 -2 13 -5z m-55 -10
c-10 -2 -18 -9 -18 -14 0 -6 -5 -7 -11 -3 -14 8 8 24 31 23 11 -1 10 -3 -2 -6z
m109 -78 c21 -22 9 -30 -16 -13 -12 8 -18 18 -14 21 9 10 13 9 30 -8z m179
-13 c-8 -9 -18 -13 -22 -10 -8 9 19 37 29 31 5 -3 2 -12 -7 -21z m-547 -31
c-3 -7 -13 3 -23 21 l-19 33 23 -21 c12 -12 21 -27 19 -33z m329 12 c-16 -15
-48 -8 -48 11 0 8 11 11 31 8 26 -4 29 -6 17 -19z m-61 3 c11 -10 -10 -27 -30
-24 -13 2 -21 -2 -20 -9 4 -16 -79 -15 -89 1 -5 8 -11 7 -20 -2 -9 -9 -9 -12
0 -12 7 0 12 -5 12 -10 0 -7 -6 -7 -18 -1 -14 7 -25 6 -40 -5 -11 -8 -23 -10
-26 -5 -9 13 37 39 91 52 26 6 57 15 68 19 20 8 63 6 72 -4z m-247 -64 c0 -15
-2 -15 -10 -2 -13 20 -13 33 0 25 6 -3 10 -14 10 -23z m-30 -12 c0 -5 -8 -10
-17 -10 -15 0 -16 2 -3 10 19 12 20 12 20 0z m363 -220 c8 0 8 -3 0 -11 -13
-13 -43 -5 -43 12 0 6 7 8 16 5 9 -3 21 -6 27 -6z m7 -52 c0 -5 21 -7 48 -4
26 3 52 2 58 -2 13 -9 26 -54 13 -46 -5 3 -9 0 -9 -5 0 -6 5 -11 12 -11 6 0 3
-10 -8 -22 -18 -20 -18 -21 -1 -15 10 4 23 7 28 7 6 0 7 5 3 11 -4 7 -3 10 2
7 47 -21 63 -33 67 -49 3 -11 10 -19 17 -19 7 0 9 8 5 19 -4 12 0 21 11 25 14
5 15 4 5 -8 -9 -10 -9 -16 -1 -21 8 -5 8 -11 -1 -21 -6 -7 -15 -11 -21 -8 -16
10 -35 -15 -30 -41 3 -19 0 -25 -13 -25 -13 0 -16 -6 -13 -25 3 -13 1 -22 -3
-19 -5 3 -9 14 -9 25 0 11 -7 19 -16 19 -11 0 -15 -6 -11 -20 3 -12 1 -17 -5
-14 -10 6 -48 -23 -48 -38 0 -5 3 -7 8 -4 4 2 13 -7 19 -21 10 -21 10 -23 -2
-13 -11 9 -18 8 -30 -4 -18 -17 -51 -21 -59 -7 -4 5 -2 20 3 33 10 23 10 23
10 -4 1 -16 4 -28 8 -28 15 0 41 33 36 47 -3 8 4 21 17 30 13 9 20 22 17 33
-3 13 0 17 10 13 9 -4 14 0 13 8 -6 39 0 50 20 39 19 -10 24 -6 21 13 -1 4 5
10 13 13 22 8 7 44 -18 43 -11 0 -15 -3 -8 -6 22 -9 13 -32 -15 -39 -15 -4
-36 -16 -48 -27 -11 -11 -14 -17 -7 -13 15 9 15 5 2 -28 -5 -14 -17 -26 -26
-26 -12 0 -15 -6 -10 -26 5 -17 3 -23 -4 -19 -5 3 -10 11 -10 16 0 18 -38 51
-51 44 -7 -5 -10 -3 -7 6 3 8 15 13 29 11 23 -2 23 -2 5 12 -10 8 -19 25 -20
37 -1 15 -9 23 -26 26 -13 2 -29 8 -34 13 -6 6 -18 10 -28 10 -10 0 -18 4 -18
9 0 5 -10 11 -22 14 -40 11 -11 19 80 22 73 2 89 0 85 -11 -5 -12 14 -19 40
-15 13 2 8 -11 -10 -26 -10 -8 -13 -12 -7 -9 7 3 14 -1 18 -9 11 -29 25 -15
19 19 -3 19 -1 36 5 40 13 8 4 36 -11 36 -6 0 -18 7 -27 15 -20 18 -51 10 -43
-11 8 -22 -47 -18 -71 5 -14 13 -41 21 -76 25 -77 7 -76 9 10 15 115 9 120 9
120 -1z m296 -122 c8 -8 14 -19 14 -25 0 -5 8 -12 18 -14 13 -4 12 -5 -5 -6
-12 0 -24 -7 -26 -13 -3 -8 -6 -4 -8 7 -1 11 -3 25 -3 30 -1 6 -5 16 -9 23
-11 16 1 15 19 -2z m-4676 -6 c0 -5 -2 -10 -4 -10 -3 0 -8 5 -11 10 -3 6 -1
10 4 10 6 0 11 -4 11 -10z m-58 -42 c-8 -8 -9 -4 -5 13 4 13 8 18 11 10 2 -7
-1 -18 -6 -23z m4418 -2 c0 -2 -7 -9 -15 -16 -13 -11 -14 -10 -9 4 5 14 24 23
24 12z m273 -37 c-6 -23 -16 -17 -18 10 -1 11 4 17 11 14 6 -2 9 -13 7 -24z
m-4703 11 c0 -5 -4 -10 -10 -10 -5 0 -10 5 -10 10 0 6 5 10 10 10 6 0 10 -4
10 -10z m250 -21 c0 -6 -4 -7 -10 -4 -5 3 -10 11 -10 16 0 6 5 7 10 4 6 -3 10
-11 10 -16z m4164 -14 c-5 -13 21 -45 37 -45 14 0 11 -17 -5 -23 -10 -4 -13
-1 -9 9 7 20 -3 18 -27 -6 -22 -22 -40 -26 -40 -9 0 5 5 7 10 4 6 -3 15 6 20
20 12 32 12 38 1 31 -4 -3 -17 4 -27 17 -16 18 -16 19 -1 8 15 -12 17 -11 17
2 0 10 6 14 14 11 8 -3 13 -11 10 -19z m272 -19 c1 -8 -7 -17 -18 -19 -15 -4
-18 -11 -13 -28 7 -22 -7 -39 -35 -39 -10 0 -7 5 7 15 14 10 20 22 16 32 -4 9
1 19 10 25 10 5 17 16 17 25 0 19 13 9 16 -11z m-4756 -1 c7 -9 8 -15 2 -15
-5 0 -12 7 -16 15 -3 8 -4 15 -2 15 2 0 9 -7 16 -15z m266 -32 c-7 -7 -26 7
-26 19 0 6 6 6 15 -2 9 -7 13 -15 11 -17z m-171 7 c3 -5 -1 -10 -9 -10 -9 0
-16 5 -16 10 0 6 4 10 9 10 6 0 13 -4 16 -10z m-135 -4 c0 -3 -4 -8 -10 -11
-5 -3 -10 -1 -10 4 0 6 5 11 10 11 6 0 10 -2 10 -4z m4710 -32 c0 -8 -4 -12
-10 -9 -5 3 -10 10 -10 16 0 5 5 9 10 9 6 0 10 -7 10 -16z m107 -16 c-3 -8 -6
-5 -6 6 -1 11 2 17 5 13 3 -3 4 -12 1 -19z m-4822 2 c3 -5 1 -10 -4 -10 -6 0
-11 5 -11 10 0 6 2 10 4 10 3 0 8 -4 11 -10z m4533 -17 c4 3 14 -4 21 -15 11
-18 11 -20 -4 -14 -10 3 -23 2 -30 -4 -11 -9 -12 -7 -8 9 3 12 1 21 -6 21 -6
0 -11 5 -11 11 0 8 4 8 15 -1 8 -6 18 -9 23 -7z m332 7 c-20 -13 -33 -13 -25
0 3 6 14 10 23 10 15 0 15 -2 2 -10z m-4765 -10 c3 -6 -1 -7 -9 -4 -18 7 -21
14 -7 14 6 0 13 -4 16 -10z m4395 -20 c0 -19 -18 -19 -23 -1 -3 14 -1 18 9 14
8 -3 14 -9 14 -13z m196 -12 c5 -7 3 -8 -5 -3 -8 4 -25 -1 -42 -14 -17 -13
-26 -16 -23 -7 5 12 38 34 56 35 4 1 10 -4 14 -11z m74 -2 c0 -2 -8 -10 -17
-17 -16 -13 -17 -12 -4 4 13 16 21 21 21 13z m-4775 -34 c-3 -3 -11 0 -18 7
-9 10 -8 11 6 5 10 -3 15 -9 12 -12z m4595 8 c0 -12 -8 -12 -35 0 -18 8 -17 9
8 9 15 1 27 -3 27 -9z m-132 -25 c-3 -3 -9 2 -12 12 -6 14 -5 15 5 6 7 -7 10
-15 7 -18z m302 6 c0 -5 -8 -12 -17 -15 -10 -2 7 -2 37 1 30 3 62 5 70 4 8 -1
28 -1 43 -1 32 0 67 -16 67 -31 0 -6 -9 -7 -22 -3 -33 10 -141 11 -155 1 -7
-5 -13 -6 -13 -3 0 4 -10 2 -21 -5 -15 -8 -19 -8 -15 0 10 15 1 14 -16 -2 -46
-43 -83 -67 -106 -67 -15 0 -36 -7 -46 -15 -11 -8 -28 -15 -37 -15 -10 0 -19
-5 -21 -12 -2 -6 -14 -13 -27 -15 -21 -3 -21 -2 6 20 15 13 38 29 51 36 26 14
28 28 5 35 -10 3 -6 4 9 2 19 -2 33 4 49 22 16 19 17 23 5 19 -25 -10 -19 11
9 29 22 14 26 14 47 -1 l23 -17 -27 6 c-17 4 -28 2 -28 -4 0 -15 68 -12 77 3
4 8 17 19 28 25 25 14 25 14 25 3z m-4785 -21 c3 -5 1 -10 -4 -10 -6 0 -11 5
-11 10 0 6 2 10 4 10 3 0 8 -4 11 -10z m4500 -10 c3 -5 2 -10 -4 -10 -5 0 -13
5 -16 10 -3 6 -2 10 4 10 5 0 13 -4 16 -10z m60 -10 c3 -5 -1 -10 -10 -10 -9
0 -13 5 -10 10 3 6 8 10 10 10 2 0 7 -4 10 -10z m-4426 -96 c3 -16 1 -17 -13
-5 -19 16 -21 34 -3 29 6 -3 14 -13 16 -24z m1868 0 c-3 -3 -12 -4 -19 -1 -8
3 -5 6 6 6 11 1 17 -2 13 -5z m66 -1 c-7 -2 -21 -2 -30 0 -10 3 -4 5 12 5 17
0 24 -2 18 -5z m2767 -108 c0 -8 -4 -15 -10 -15 -5 0 -10 7 -10 15 0 8 5 15
10 15 6 0 10 -7 10 -15z m26 -4 c0 -11 -4 -17 -8 -15 -4 3 -8 12 -8 20 0 8 4
14 8 14 4 0 8 -9 8 -19z m-54 -26 c2 3 5 -2 5 -10 0 -8 -4 -15 -9 -15 -4 0 -8
-4 -8 -9 0 -5 11 -8 25 -8 14 0 25 3 25 8 0 5 8 9 18 9 16 -1 16 -1 0 -11 -27
-15 -12 -36 23 -31 29 4 30 3 18 -17 -20 -31 -33 -32 -63 -4 -15 14 -29 23
-31 21 -3 -2 0 -21 6 -42 9 -33 13 -37 35 -32 17 5 24 2 24 -8 0 -18 -23 -27
-41 -16 -8 5 -19 4 -28 -3 -12 -10 -14 -9 -8 6 3 9 2 17 -4 17 -6 0 -8 9 -4
20 5 14 2 20 -10 20 -9 0 -13 -4 -10 -10 11 -17 -5 -32 -20 -20 -10 9 -20 7
-40 -6 -20 -13 -25 -14 -23 -3 2 8 9 19 17 25 11 9 11 15 -4 37 -10 16 -13 27
-6 27 6 0 11 7 11 15 0 20 9 19 33 -2 19 -18 20 -17 14 12 -6 36 21 64 39 40
6 -8 13 -13 16 -10z m-82 -6 c0 -5 -9 -9 -20 -9 -13 0 -18 5 -14 14 6 15 34
11 34 -5z m-2230 -34 c52 -6 169 -68 151 -79 -6 -4 -26 1 -44 12 -106 62 -284
57 -382 -11 -21 -15 -26 -16 -17 -5 41 52 160 101 222 93 14 -2 45 -6 70 -10z
m2211 -217 c39 -22 43 -38 8 -38 -13 0 -19 7 -19 21 0 11 -4 18 -9 15 -5 -3
-14 1 -21 9 -17 21 -4 19 41 -7z m-3264 -70 c-3 -7 -5 -2 -5 12 0 14 2 19 5
13 2 -7 2 -19 0 -25z m-1417 -22 c0 -3 -4 -8 -10 -11 -5 -3 -10 -1 -10 4 0 6
5 11 10 11 6 0 10 -2 10 -4z"/>
<path d="M4535 4940 c3 -5 8 -10 11 -10 2 0 4 5 4 10 0 6 -5 10 -11 10 -5 0
-7 -4 -4 -10z"/>
<path d="M4280 5040 c0 -5 5 -10 11 -10 5 0 7 5 4 10 -3 6 -8 10 -11 10 -2 0
-4 -4 -4 -10z"/>
<path d="M4326 5025 c4 -8 12 -15 20 -15 20 0 17 7 -6 20 -16 9 -18 8 -14 -5z"/>
<path d="M4290 4990 c20 -13 33 -13 25 0 -3 6 -14 10 -23 10 -15 0 -15 -2 -2
-10z"/>
<path d="M4325 4960 c-2 -4 14 -7 36 -8 22 -1 38 2 34 7 -6 11 -64 12 -70 1z"/>
<path d="M4750 4160 c0 -5 5 -10 11 -10 5 0 7 5 4 10 -3 6 -8 10 -11 10 -2 0
-4 -4 -4 -10z"/>
<path d="M4535 2790 c3 -5 8 -10 11 -10 2 0 4 5 4 10 0 6 -5 10 -11 10 -5 0
-7 -4 -4 -10z"/>
<path d="M4410 2750 c0 -5 5 -10 11 -10 5 0 7 5 4 10 -3 6 -8 10 -11 10 -2 0
-4 -4 -4 -10z"/>
<path d="M4477 2747 c-20 -6 -36 -15 -34 -21 5 -14 59 -8 68 6 4 6 12 7 19 3
8 -5 11 -3 8 5 -6 18 -16 19 -61 7z"/>
<path d="M4340 2660 c0 -5 5 -10 10 -10 6 0 10 5 10 10 0 6 -4 10 -10 10 -5 0
-10 -4 -10 -10z"/>
<path d="M4340 2575 c-8 -9 -8 -15 -2 -15 12 0 26 19 19 26 -2 2 -10 -2 -17
-11z"/>
<path d="M4275 2490 c-3 -5 -2 -10 4 -10 5 0 13 5 16 10 3 6 2 10 -4 10 -5 0
-13 -4 -16 -10z"/>
<path d="M4397 2422 c-16 -7 -16 -9 3 -25 27 -23 30 -22 30 8 0 26 -4 28 -33
17z"/>
<path d="M4256 2353 c-12 -12 -5 -23 14 -23 11 0 20 4 20 9 0 11 -26 22 -34
14z"/>
<path d="M4310 2334 c0 -8 5 -12 10 -9 6 4 8 11 5 16 -9 14 -15 11 -15 -7z"/>
<path d="M4402 2299 c2 -7 10 -15 17 -17 8 -3 12 1 9 9 -2 7 -10 15 -17 17 -8
3 -12 -1 -9 -9z"/>
<path d="M4280 2290 c20 -13 33 -13 25 0 -3 6 -14 10 -23 10 -15 0 -15 -2 -2
-10z"/>
<path d="M6225 2080 c-3 -5 -1 -10 4 -10 6 0 11 5 11 10 0 6 -2 10 -4 10 -3 0
-8 -4 -11 -10z"/>
<path d="M6340 2071 c0 -12 6 -21 15 -21 8 0 15 4 15 9 0 5 -7 14 -15 21 -13
10 -15 9 -15 -9z"/>
<path d="M6310 2064 c0 -8 5 -12 10 -9 6 3 10 10 10 16 0 5 -4 9 -10 9 -5 0
-10 -7 -10 -16z"/>
<path d="M6068 2043 c7 -3 16 -2 19 1 4 3 -2 6 -13 5 -11 0 -14 -3 -6 -6z"/>
<path d="M6395 2030 c-3 -5 -1 -10 4 -10 6 0 11 5 11 10 0 6 -2 10 -4 10 -3 0
-8 -4 -11 -10z"/>
<path d="M6625 990 c-3 -5 -1 -10 4 -10 6 0 11 5 11 10 0 6 -2 10 -4 10 -3 0
-8 -4 -11 -10z"/>
<path d="M6652 978 c-15 -15 -16 -28 -2 -28 6 0 10 6 10 14 0 8 6 17 13 19 6
3 7 6 2 6 -6 1 -16 -4 -23 -11z"/>
<path d="M6740 960 c0 -5 4 -10 9 -10 6 0 13 5 16 10 3 6 -1 10 -9 10 -9 0
-16 -4 -16 -10z"/>
<path d="M6678 918 c-10 -9 -13 -20 -9 -23 10 -6 34 21 29 33 -1 4 -11 0 -20
-10z"/>
<path d="M6775 890 c3 -5 10 -10 16 -10 5 0 9 5 9 10 0 6 -7 10 -16 10 -8 0
-12 -4 -9 -10z"/>
<path d="M6662 869 c2 -6 8 -10 13 -10 5 0 11 4 13 10 2 6 -4 11 -13 11 -9 0
-15 -5 -13 -11z"/>
<path d="M4680 5412 c0 -25 6 -35 25 -44 18 -8 29 -8 36 -1 8 8 6 13 -8 17
-10 3 -26 18 -35 33 l-17 28 -1 -33z"/>
<path d="M4803 5381 c-17 -5 -20 -10 -13 -21 9 -13 10 -13 10 0 2 34 18 -30
25 -96 10 -112 28 -106 23 8 -2 54 -8 102 -13 106 -6 5 -20 6 -32 3z"/>
<path d="M4980 5252 c0 -11 22 -32 32 -32 5 0 4 9 -2 20 -11 20 -30 28 -30 12z"/>
<path d="M5046 5201 c-5 -7 -6 -15 -3 -17 2 -3 1 -21 -3 -40 -4 -19 -4 -34 1
-34 5 0 9 11 9 25 0 28 9 31 30 13 12 -11 12 -10 2 3 -6 8 -15 26 -20 39 -6
16 -11 20 -16 11z"/>
<path d="M4210 5157 c0 -33 20 -49 42 -33 16 12 16 13 0 27 -35 30 -42 31 -42
6z"/>
<path d="M4697 5163 c-15 -14 -6 -29 28 -47 45 -25 51 -17 18 22 -26 33 -35
37 -46 25z"/>
<path d="M5130 5090 c0 -5 5 -10 11 -10 5 0 7 5 4 10 -3 6 -8 10 -11 10 -2 0
-4 -4 -4 -10z"/>
<path d="M5058 4945 c-10 -13 -18 -27 -18 -32 0 -4 -9 -14 -20 -21 -11 -7 -20
-20 -20 -30 0 -12 14 -2 45 32 25 27 45 55 45 63 0 20 -13 15 -32 -12z"/>
<path d="M4679 4925 c-15 -153 -12 -214 12 -200 5 4 9 1 9 -5 0 -6 5 -8 10 -5
15 9 12 25 -5 25 -29 0 -14 25 21 36 33 11 37 10 41 -7 3 -10 9 -16 14 -13 5
3 4 14 -2 26 -9 18 -9 20 4 15 11 -4 15 0 15 11 -1 9 2 28 6 42 7 23 5 22 -19
-8 -15 -17 -36 -37 -48 -43 l-22 -10 21 18 c26 22 54 75 53 100 0 14 -3 12
-12 -7 -6 -14 -14 -27 -17 -30 -4 -3 -9 -12 -12 -21 -4 -9 -17 -16 -31 -16
-26 0 -25 -1 -15 56 1 3 -4 17 -10 31 -10 22 -11 23 -13 5z"/>
<path d="M4860 4776 c-5 -13 -21 -30 -37 -38 -27 -13 -45 -48 -24 -48 6 0 11
7 11 15 0 8 8 15 18 15 25 0 56 35 47 52 -6 10 -5 11 6 1 7 -7 22 -13 34 -12
18 0 18 1 -4 10 -13 5 -21 12 -18 16 11 10 68 -19 63 -33 -3 -8 0 -11 9 -8 11
5 12 10 3 24 -7 10 -15 17 -19 14 -4 -2 -10 0 -14 6 -3 5 -20 10 -36 10 -22 0
-32 -6 -39 -24z"/>
<path d="M5030 4787 c0 -10 -5 -14 -15 -11 -8 4 -15 2 -15 -4 0 -6 -3 -18 -7
-27 -5 -15 -3 -16 15 -6 21 11 39 48 28 58 -3 4 -6 -1 -6 -10z"/>
<path d="M4771 4674 c0 -11 3 -14 6 -6 3 7 2 16 -1 19 -3 4 -6 -2 -5 -13z"/>
<path d="M4745 4650 c-3 -5 -1 -10 4 -10 6 0 11 5 11 10 0 6 -2 10 -4 10 -3 0
-8 -4 -11 -10z"/>
<path d="M3480 4059 c-7 -11 -9 -23 -6 -27 3 -3 6 0 6 6 0 7 10 8 30 2 36 -10
39 2 5 24 -23 15 -25 15 -35 -5z"/>
<path d="M3822 4054 c-7 -13 -17 -15 -41 -11 -17 4 -31 2 -31 -3 0 -17 -40
-22 -56 -6 -9 10 -32 16 -57 16 -31 0 -38 -3 -27 -10 8 -5 23 -7 33 -4 19 6
50 -19 39 -31 -4 -5 -2 -5 5 -2 6 4 18 0 26 -8 9 -8 20 -15 25 -15 5 0 15 -6
21 -14 9 -11 9 -15 -1 -19 -8 -3 -6 -6 5 -6 37 -2 67 52 39 69 -15 9 -14 10 5
5 16 -4 23 -1 28 15 4 14 12 19 22 16 9 -4 13 -1 11 6 -7 20 -35 21 -46 2z"/>
<path d="M5150 4042 c0 -4 9 -8 20 -8 11 0 20 4 20 8 0 4 -9 8 -20 8 -11 0
-20 -4 -20 -8z"/>
<path d="M3451 4024 c0 -11 3 -14 6 -6 3 7 2 16 -1 19 -3 4 -6 -2 -5 -13z"/>
<path d="M5205 4010 c3 -5 8 -10 11 -10 2 0 4 5 4 10 0 6 -5 10 -11 10 -5 0
-7 -4 -4 -10z"/>
<path d="M5340 4000 c0 -5 9 -10 21 -10 11 0 17 5 14 10 -3 6 -13 10 -21 10
-8 0 -14 -4 -14 -10z"/>
<path d="M5448 3993 c-44 -5 -51 -23 -9 -23 16 0 31 -6 35 -15 9 -23 21 -18
33 15 10 26 9 30 -5 28 -10 -1 -34 -3 -54 -5z"/>
<path d="M3359 3983 c-20 -3 -26 -10 -26 -27 0 -21 1 -22 16 -10 9 7 25 20 36
28 11 9 16 15 10 14 -5 0 -22 -3 -36 -5z"/>
<path d="M3680 3971 c0 -11 29 -35 35 -29 10 9 -7 38 -21 38 -8 0 -14 -4 -14
-9z"/>
<path d="M3624 3958 c-4 -6 1 -17 11 -25 20 -14 45 -17 45 -5 -1 24 -45 48
-56 30z"/>
<path d="M3200 3940 c-8 -12 -30 -29 -49 -37 -19 -9 -36 -25 -38 -34 -3 -10
-16 -19 -31 -21 -14 -2 -27 -9 -30 -16 -3 -11 0 -12 16 -3 11 6 30 11 41 11
14 0 19 5 15 15 -4 8 -2 15 2 16 33 3 50 11 71 33 22 24 36 31 56 27 5 -1 7 4
5 11 -7 22 -42 20 -58 -2z"/>
<path d="M5262 3938 c-15 -15 -16 -38 -2 -38 12 0 23 25 18 40 -2 7 -7 7 -16
-2z"/>
<path d="M5503 3892 c3 -52 18 -70 38 -46 12 16 12 17 -1 9 -13 -8 -13 -7 0
11 8 10 20 22 25 26 6 4 1 8 -9 8 -11 0 -28 7 -38 16 -17 16 -18 15 -15 -24z"/>
<path d="M5610 3870 c0 -6 7 -13 15 -16 10 -4 12 -11 6 -22 -10 -20 -4 -42 12
-42 15 0 16 72 2 82 -15 11 -35 10 -35 -2z"/>
<path d="M2993 3806 c-13 -6 -23 -16 -23 -23 0 -6 -6 -14 -12 -16 -9 -4 -8 -5
2 -6 8 0 25 13 38 30 13 16 22 28 20 28 -2 -1 -13 -6 -25 -13z"/>
<path d="M3522 3790 c0 -14 2 -19 5 -12 2 6 2 18 0 25 -3 6 -5 1 -5 -13z"/>
<path d="M3570 3786 c0 -14 5 -28 10 -31 6 -4 10 7 10 24 0 17 -4 31 -10 31
-5 0 -10 -11 -10 -24z"/>
<path d="M5650 3770 c0 -5 5 -10 10 -10 6 0 10 5 10 10 0 6 -4 10 -10 10 -5 0
-10 -4 -10 -10z"/>
<path d="M3546 3719 c-10 -50 -7 -76 9 -89 12 -10 15 -10 15 4 0 8 11 18 25
22 29 7 31 16 10 34 -11 9 -15 9 -15 1 0 -7 -4 -9 -10 -6 -5 3 -10 17 -10 30
0 36 -17 39 -24 4z"/>
<path d="M5390 3701 c0 -6 4 -13 10 -16 6 -3 7 1 4 9 -7 18 -14 21 -14 7z"/>
<path d="M5809 3688 c-4 -9 -7 -58 -4 -58 2 0 15 4 29 10 35 13 36 50 1 50
-14 0 -26 -1 -26 -2z"/>
<path d="M3415 3640 c3 -5 11 -10 16 -10 6 0 7 5 4 10 -3 6 -11 10 -16 10 -6
0 -7 -4 -4 -10z"/>
<path d="M2900 3636 c0 -2 7 -7 16 -10 8 -3 12 -2 9 4 -6 10 -25 14 -25 6z"/>
<path d="M5720 3620 c-8 -5 -10 -10 -5 -10 6 0 17 5 25 10 8 5 11 10 5 10 -5
0 -17 -5 -25 -10z"/>
<path d="M2910 3590 c-9 -6 -2 -11 26 -19 41 -11 71 -14 63 -6 -15 15 -77 32
-89 25z"/>
<path d="M3498 3583 c7 -3 16 -2 19 1 4 3 -2 6 -13 5 -11 0 -14 -3 -6 -6z"/>
<path d="M5150 3562 c0 -4 14 -23 30 -42 26 -31 29 -33 36 -16 4 10 3 26 -3
34 -10 16 -63 36 -63 24z"/>
<path d="M5365 3559 c-4 -6 -5 -13 -2 -16 7 -7 27 6 27 18 0 12 -17 12 -25 -2z"/>
<path d="M5530 3528 c0 -19 2 -20 10 -8 13 19 13 30 0 30 -5 0 -10 -10 -10
-22z"/>
<path d="M5391 3531 l-25 -7 35 -26 34 -27 -18 -31 c-21 -34 -7 -40 23 -10 24
24 28 75 5 66 -11 -4 -15 1 -15 19 0 26 -1 27 -39 16z"/>
<path d="M6050 3510 c0 -5 7 -10 16 -10 8 0 12 5 9 10 -3 6 -10 10 -16 10 -5
0 -9 -4 -9 -10z"/>
<path d="M2777 3503 c-9 -2 -14 -9 -11 -15 4 -6 -1 -17 -10 -24 -16 -12 -16
-13 5 -24 19 -11 21 -10 16 4 -5 12 0 16 22 16 23 0 27 4 26 23 -2 22 -16 29
-48 20z"/>
<path d="M6097 3497 c3 -5 -3 -17 -12 -27 -9 -10 -12 -20 -7 -24 6 -3 20 6 31
21 24 33 28 15 5 -29 -13 -25 -14 -32 -2 -39 8 -5 17 -4 23 5 6 7 21 17 34 21
19 6 23 4 18 -8 -5 -13 2 -15 39 -14 24 1 44 5 44 8 0 3 -20 19 -45 37 -25 17
-45 37 -45 44 0 9 -15 13 -44 13 -24 0 -42 -4 -39 -8z"/>
<path d="M3416 3489 c3 -5 19 -9 36 -9 17 0 28 3 24 7 -11 11 -67 12 -60 2z"/>
<path d="M5356 3464 c-4 -9 -4 -19 -1 -22 2 -3 7 3 11 12 4 9 4 19 1 22 -2 3
-7 -3 -11 -12z"/>
<path d="M5760 3420 c0 -6 7 -10 15 -10 8 0 15 2 15 4 0 2 -7 6 -15 10 -8 3
-15 1 -15 -4z"/>
<path d="M3066 3402 c-3 -5 6 -22 20 -38 26 -29 26 -29 19 -4 -9 31 -31 55
-39 42z"/>
<path d="M3110 3406 c0 -2 8 -10 18 -17 15 -13 16 -12 3 4 -13 16 -21 21 -21
13z"/>
<path d="M5445 3390 c-3 -5 3 -10 14 -10 11 0 23 5 26 10 3 6 -3 10 -14 10
-11 0 -23 -4 -26 -10z"/>
<path d="M5504 3384 c-18 -14 -18 -15 4 -4 12 6 22 13 22 15 0 8 -5 6 -26 -11z"/>
<path d="M5605 3380 c4 -6 11 -8 16 -5 14 9 11 15 -7 15 -8 0 -12 -5 -9 -10z"/>
<path d="M6161 3370 c-25 -3 -46 -10 -48 -17 -5 -13 76 -6 91 8 14 13 5 15
-43 9z"/>
<path d="M5334 3355 c-10 -8 -15 -15 -9 -15 10 0 -36 -35 -47 -35 -4 0 -13 -6
-19 -12 -10 -10 -10 -13 -1 -13 7 0 12 6 12 13 0 8 3 8 9 -2 8 -12 14 -13 35
-3 14 6 26 16 26 21 0 5 6 16 14 24 22 21 5 41 -20 22z"/>
<path d="M5755 3359 c-22 -3 -34 -7 -27 -9 23 -5 27 -6 51 -14 12 -4 27 -4 31
1 16 16 -15 28 -55 22z"/>
<path d="M5439 3348 c-7 -24 -5 -38 4 -35 15 5 22 37 8 37 -6 0 -11 -1 -12 -2z"/>
<path d="M5151 3321 c-15 -27 -14 -34 3 -28 8 3 17 1 20 -6 3 -9 7 -8 14 2 8
11 10 11 14 0 2 -7 7 -9 10 -4 3 6 1 21 -4 35 -6 15 -12 20 -15 12 -4 -10 -8
-10 -18 -2 -10 9 -16 7 -24 -9z"/>
<path d="M5657 3303 c3 -7 16 -13 30 -13 30 0 22 16 -11 22 -17 4 -23 1 -19
-9z"/>
<path d="M3050 3302 c0 -12 19 -26 26 -19 2 2 -2 10 -11 17 -9 8 -15 8 -15 2z"/>
<path d="M6000 3290 c0 -5 5 -10 11 -10 5 0 7 5 4 10 -3 6 -8 10 -11 10 -2 0
-4 -4 -4 -10z"/>
<path d="M6380 3284 c0 -8 5 -12 10 -9 6 3 10 10 10 16 0 5 -4 9 -10 9 -5 0
-10 -7 -10 -16z"/>
<path d="M5360 3255 c-10 -12 -7 -20 16 -45 30 -32 41 -35 63 -21 10 7 11 13
1 31 -15 27 2 52 22 32 16 -16 28 -15 28 3 0 21 -112 21 -130 0z"/>
<path d="M5702 3259 c2 -6 14 -16 27 -20 27 -11 19 6 -11 22 -16 8 -19 8 -16
-2z"/>
<path d="M3000 3245 c0 -8 4 -15 10 -15 5 0 7 7 4 15 -4 8 -8 15 -10 15 -2 0
-4 -7 -4 -15z"/>
<path d="M6138 3253 c7 -3 16 -2 19 1 4 3 -2 6 -13 5 -11 0 -14 -3 -6 -6z"/>
<path d="M5510 3230 c0 -5 6 -10 14 -10 8 0 18 5 21 10 3 6 -3 10 -14 10 -12
0 -21 -4 -21 -10z"/>
<path d="M5915 3211 c-8 -14 4 -33 16 -26 5 4 8 -4 6 -17 -1 -15 3 -23 13 -23
8 0 18 -8 22 -17 14 -34 34 -21 30 18 -3 25 -7 32 -13 23 -7 -11 -9 -10 -9 4
0 9 -7 17 -15 17 -8 0 -14 5 -12 12 3 15 -29 23 -38 9z"/>
<path d="M5097 3199 c13 -13 67 -23 60 -12 -4 6 -20 13 -37 15 -17 3 -27 1
-23 -3z"/>
<path d="M5610 3200 c0 -5 5 -10 10 -10 6 0 10 5 10 10 0 6 -4 10 -10 10 -5 0
-10 -4 -10 -10z"/>
<path d="M2866 3179 c12 -13 20 -16 22 -9 3 7 -2 16 -9 21 -25 16 -32 9 -13
-12z"/>
<path d="M5553 3184 c-13 -6 -2 -46 18 -71 15 -18 37 5 31 32 -9 38 -23 49
-49 39z"/>
<path d="M6047 3170 c-3 -13 0 -20 9 -20 15 0 19 26 5 34 -5 3 -11 -3 -14 -14z"/>
<path d="M6095 3169 c-5 -15 -2 -25 9 -31 9 -5 16 -16 16 -23 0 -8 5 -15 11
-15 6 0 9 -7 6 -15 -7 -17 9 -30 18 -15 9 14 24 3 35 -26 5 -13 17 -24 25 -24
13 0 14 4 4 21 -6 12 -23 32 -38 45 -17 15 -21 23 -12 24 11 0 10 4 -5 16 -10
8 -14 13 -9 11 68 -30 93 -43 108 -55 25 -22 21 -1 -8 32 -30 34 -89 68 -109
60 -8 -3 -17 -1 -21 5 -10 17 -23 13 -30 -10z"/>
<path d="M5457 3166 c-4 -10 2 -16 16 -18 12 -2 28 -15 35 -31 8 -16 18 -25
25 -20 8 5 8 8 -1 11 -7 2 -12 10 -12 18 0 15 -35 54 -49 54 -5 0 -11 -6 -14
-14z"/>
<path d="M5200 3161 c0 -5 5 -13 10 -16 6 -3 10 -2 10 4 0 5 -4 13 -10 16 -5
3 -10 2 -10 -4z"/>
<path d="M5630 3144 c0 -16 7 -38 15 -48 14 -19 15 -18 15 16 0 19 -7 41 -15
48 -13 11 -15 8 -15 -16z"/>
<path d="M6065 3110 c3 -5 11 -10 16 -10 6 0 7 5 4 10 -3 6 -11 10 -16 10 -6
0 -7 -4 -4 -10z"/>
<path d="M5890 3101 c0 -5 5 -13 10 -16 6 -3 10 -2 10 4 0 5 -4 13 -10 16 -5
3 -10 2 -10 -4z"/>
<path d="M6023 3056 c-7 -33 -11 -61 -9 -63 9 -9 27 58 24 88 -3 30 -4 27 -15
-25z"/>
<path d="M5550 3091 c0 -5 9 -19 20 -32 19 -23 19 -23 20 -3 0 20 -17 44 -32
44 -4 0 -8 -4 -8 -9z"/>
<path d="M5987 3094 c-8 -14 -6 -84 3 -89 10 -6 18 72 9 87 -4 5 -9 6 -12 2z"/>
<path d="M6078 3056 c9 -20 17 -34 19 -33 6 7 -14 61 -24 64 -7 3 -4 -10 5
-31z"/>
<path d="M6260 3050 c0 -5 6 -10 13 -10 8 0 7 -4 -3 -10 -13 -9 -13 -11 0 -20
8 -5 18 -10 21 -10 9 0 7 34 -4 48 -11 14 -27 16 -27 2z"/>
<path d="M6123 3035 c-7 -8 -13 -19 -13 -25 0 -5 -7 -10 -15 -10 -19 0 -38
-46 -29 -72 3 -11 -3 -34 -15 -54 -26 -44 -27 -62 -1 -39 17 15 39 64 44 98 1
7 5 13 9 15 4 1 17 12 28 23 17 17 20 27 13 49 -8 23 -11 26 -21 15z"/>
<path d="M5764 3016 c-3 -14 -2 -32 4 -42 7 -13 9 -7 9 25 0 47 -4 52 -13 17z"/>
<path d="M6200 2995 c7 -8 16 -12 21 -9 13 8 1 24 -18 24 -13 0 -13 -3 -3 -15z"/>
<path d="M6037 2972 c-10 -10 -17 -25 -17 -34 0 -8 -7 -29 -16 -47 -9 -18 -13
-35 -10 -38 12 -12 36 20 41 56 4 20 10 46 15 59 12 27 8 28 -13 4z"/>
<path d="M6267 2938 c-34 -118 -31 -151 6 -88 10 17 15 30 11 30 -5 0 -3 5 4
12 14 14 16 84 3 93 -5 3 -16 -18 -24 -47z"/>
<path d="M6380 2925 c5 -21 13 -42 19 -48 17 -17 2 54 -15 72 -10 11 -11 7 -4
-24z"/>
<path d="M5155 2940 c3 -5 8 -10 11 -10 2 0 4 5 4 10 0 6 -5 10 -11 10 -5 0
-7 -4 -4 -10z"/>
<path d="M5736 2934 c-4 -9 -4 -19 -1 -22 2 -3 7 3 11 12 4 9 4 19 1 22 -2 3
-7 -3 -11 -12z"/>
<path d="M5807 2943 c-4 -3 -7 -13 -7 -22 1 -13 3 -13 11 2 11 19 8 33 -4 20z"/>
<path d="M5866 2924 c-4 -9 -4 -19 -1 -22 2 -3 7 3 11 12 4 9 4 19 1 22 -2 3
-7 -3 -11 -12z"/>
<path d="M6130 2899 c0 -11 5 -17 10 -14 6 3 10 13 10 21 0 8 -4 14 -10 14 -5
0 -10 -9 -10 -21z"/>
<path d="M6168 2875 c-16 -25 -28 -48 -28 -52 0 -3 -13 -21 -30 -40 -32 -36
-40 -66 -15 -57 8 4 15 1 15 -5 0 -6 5 -11 10 -11 6 0 10 8 10 18 0 9 16 48
36 86 42 84 44 132 2 61z"/>
<path d="M6342 2900 c0 -14 2 -19 5 -12 2 6 2 18 0 25 -3 6 -5 1 -5 -13z"/>
<path d="M5521 2857 c-7 -21 -10 -41 -7 -44 8 -8 28 47 23 66 -2 9 -9 -1 -16
-22z"/>
<path d="M5680 2850 c-49 -54 -51 -73 -1 -23 22 23 41 47 41 53 0 13 0 14 -40
-30z"/>
<path d="M6082 2848 c-34 -44 -37 -54 -23 -62 11 -7 35 21 51 62 19 47 8 47
-28 0z"/>
<path d="M6335 2832 c-6 -4 -17 -20 -25 -37 -8 -16 -21 -38 -29 -48 -19 -23
-7 -34 15 -13 9 10 23 15 31 12 8 -3 11 -2 8 4 -3 5 1 26 10 46 8 20 15 38 15
40 0 6 -14 4 -25 -4z"/>
<path d="M6382 2801 c-30 -60 -28 -74 4 -28 14 21 24 46 22 55 -3 12 -11 3
-26 -27z"/>
<path d="M5400 2799 c0 -5 5 -7 10 -4 6 3 10 8 10 11 0 2 -4 4 -10 4 -5 0 -10
-5 -10 -11z"/>
<path d="M5471 2769 c-22 -29 -23 -48 -3 -35 9 5 35 66 28 66 -1 0 -12 -14
-25 -31z"/>
<path d="M5440 2625 c-19 -19 -30 -35 -26 -35 5 0 3 -7 -4 -15 -7 -8 -8 -15
-2 -15 5 0 15 13 22 29 15 38 45 65 61 55 8 -4 10 -3 5 4 -11 18 -19 15 -56
-23z"/>
<path d="M5420 2640 c-9 -6 -10 -10 -3 -10 6 0 15 5 18 10 8 12 4 12 -15 0z"/>
<path d="M5575 2640 c-3 -6 1 -7 9 -4 18 7 21 14 7 14 -6 0 -13 -4 -16 -10z"/>
<path d="M6361 2617 c-7 -20 -11 -43 -8 -50 7 -17 29 42 25 67 -3 16 -7 12
-17 -17z"/>
<path d="M5480 2615 c-7 -9 -11 -17 -9 -20 3 -2 10 5 17 15 14 24 10 26 -8 5z"/>
<path d="M5380 2610 c-9 -6 -10 -10 -3 -10 6 0 15 5 18 10 8 12 4 12 -15 0z"/>
<path d="M5985 2611 c-6 -11 9 -23 19 -14 9 9 7 23 -3 23 -6 0 -12 -4 -16 -9z"/>
<path d="M5953 2593 c-7 -2 -13 -19 -13 -35 0 -17 2 -29 5 -26 5 5 26 69 22
67 -1 0 -8 -3 -14 -6z"/>
<path d="M5360 2547 c-14 -7 -26 -23 -28 -35 -2 -12 -9 -22 -15 -22 -7 0 -24
-20 -40 -45 -23 -39 -24 -44 -8 -35 11 5 23 19 26 30 3 11 12 20 19 20 17 0
62 51 69 78 3 12 4 22 4 22 -1 0 -13 -6 -27 -13z"/>
<path d="M5290 2509 c0 -5 5 -7 10 -4 6 3 10 8 10 11 0 2 -4 4 -10 4 -5 0 -10
-5 -10 -11z"/>
<path d="M5395 2475 c-20 -20 -34 -39 -30 -43 5 -6 75 63 75 74 0 9 -9 2 -45
-31z"/>
<path d="M5711 2461 c-10 -6 -10 -10 -1 -16 7 -4 19 0 28 9 14 13 14 16 2 16
-8 0 -21 -4 -29 -9z"/>
<path d="M5522 2411 c-39 -36 -42 -49 -4 -23 15 10 32 17 38 15 6 -2 17 4 25
14 11 15 11 16 -1 6 -19 -17 -31 -16 -24 2 9 21 3 19 -34 -14z"/>
<path d="M5458 2413 c-23 -28 -30 -43 -19 -43 12 0 46 48 39 55 -3 3 -12 -3
-20 -12z"/>
<path d="M5210 2385 c-7 -9 -8 -15 -2 -15 5 0 12 7 16 15 3 8 4 15 2 15 -2 0
-9 -7 -16 -15z"/>
<path d="M5223 2348 c-19 -24 -23 -47 -8 -42 14 6 31 42 22 50 -2 2 -9 -1 -14
-8z"/>
<path d="M5237 2301 c-9 -16 -17 -33 -17 -38 0 -10 49 49 50 60 0 17 -17 5
-33 -22z"/>
<path d="M5337 2283 c-15 -14 -6 -31 13 -26 11 3 20 12 20 19 0 14 -22 19 -33
7z"/>
</g>
</svg>
