<?xml version="1.0" standalone="no"?>
<!DOCTYPE svg PUBLIC "-//W3C//DTD SVG 20010904//EN"
 "http://www.w3.org/TR/2001/REC-SVG-20010904/DTD/svg10.dtd">
<svg version="1.0" xmlns="http://www.w3.org/2000/svg"
 width="300.000000pt" height="425.000000pt" viewBox="0 0 300.000000 425.000000"
 preserveAspectRatio="xMidYMid meet">

<g transform="translate(0.000000,425.000000) scale(0.100000,-0.100000)"
fill="#FFF" stroke="none">
<path d="M1792 4065 c-15 -19 -18 -35 -15 -69 4 -29 -6 -96 -26 -193 -18 -81
-49 -229 -69 -328 l-37 -180 -35 0 c-19 0 -49 4 -67 7 -31 7 -33 6 -43 -34 -9
-30 -8 -48 1 -69 13 -33 73 -89 94 -89 19 0 19 -26 0 -115 -16 -79 -81 -421
-96 -504 -12 -69 -8 -193 7 -198 7 -2 27 34 47 81 33 80 75 256 140 594 l22
114 45 -8 c25 -4 60 -7 79 -8 31 -1 35 2 43 33 6 23 5 43 -3 62 -17 43 -74 89
-109 89 -34 0 -35 3 -20 81 6 30 26 144 45 254 49 288 70 383 89 404 20 22 20
50 0 79 -21 31 -67 29 -92 -3z"/>
<path d="M1122 3079 c-75 -162 -112 -303 -112 -428 0 -96 17 -170 64 -279 47
-107 59 -155 59 -247 0 -147 -44 -234 -141 -274 -43 -18 -40 -31 7 -31 37 0
39 -2 51 -45 15 -55 26 -64 41 -32 6 13 44 54 83 90 57 51 83 84 116 148 76
146 60 216 -85 385 -105 123 -138 193 -143 310 -5 97 11 174 77 384 17 52 28
96 26 99 -3 2 -22 -34 -43 -80z"/>
<path d="M1376 3058 c-14 -53 -5 -153 18 -209 25 -62 62 -119 77 -119 19 0 9
91 -17 141 -14 28 -34 85 -45 127 -22 87 -24 91 -33 60z"/>
<path d="M1776 2598 c-5 -26 2 -50 35 -118 89 -181 90 -255 7 -333 -19 -17
-28 -34 -24 -43 3 -9 6 -21 6 -27 1 -22 27 -47 43 -41 25 9 94 115 113 174 35
108 -10 263 -107 365 -29 30 -55 55 -59 55 -4 0 -10 -14 -14 -32z"/>
<path d="M1409 2483 c-10 -21 -14 -78 -16 -213 -3 -198 -10 -242 -55 -333 -28
-57 -57 -130 -104 -261 -13 -38 -40 -93 -60 -121 -58 -85 -63 -146 -19 -263
21 -60 11 -103 -35 -151 -27 -28 -52 -42 -89 -51 -28 -6 -51 -17 -51 -24 0
-18 60 -73 93 -85 16 -6 56 -11 91 -11 35 0 67 -5 74 -12 15 -15 258 -19 317
-5 80 18 134 86 135 169 0 71 22 137 66 205 39 60 44 73 43 123 l0 55 -16 -32
c-28 -55 -68 -54 -79 3 -5 27 2 48 41 120 44 81 46 86 24 79 -13 -5 -45 -9
-70 -9 -39 -1 -53 5 -91 36 -71 58 -84 93 -79 218 9 240 8 256 -16 287 -67 84
-78 113 -78 210 0 51 -3 93 -6 93 -3 0 -12 -12 -20 -27z"/>
<path d="M1695 2254 c-57 -127 -80 -303 -54 -399 13 -47 96 -135 127 -135 27
0 62 45 62 81 0 37 -23 93 -76 186 -53 93 -62 150 -40 247 9 38 14 71 12 74
-3 2 -17 -22 -31 -54z"/>
<path d="M886 2130 c-19 -48 -21 -155 -3 -190 14 -28 59 -39 82 -20 11 9 7 22
-18 72 -25 48 -32 74 -32 120 0 32 -3 58 -6 58 -4 0 -14 -18 -23 -40z"/>
<path d="M1200 1795 c-8 -10 -30 -50 -50 -89 -30 -60 -39 -71 -63 -74 -36 -4
-61 17 -84 74 -10 24 -21 44 -25 44 -15 0 -38 -60 -38 -99 0 -64 15 -91 49
-91 40 0 45 -12 30 -70 -16 -63 -1 -118 42 -155 40 -33 46 -27 18 19 -30 51
-23 134 13 174 45 48 76 105 103 186 27 84 29 109 5 81z"/>
<path d="M825 1758 c-56 -44 -79 -135 -51 -203 15 -36 67 -75 100 -75 17 0 17
1 2 23 -44 61 -54 122 -32 207 9 34 15 65 13 67 -2 2 -16 -7 -32 -19z"/>
<path d="M1890 1726 c0 -2 7 -23 15 -46 25 -70 20 -153 -12 -207 l-27 -46 35
6 c67 13 110 99 89 178 -11 38 -72 119 -91 119 -5 0 -9 -2 -9 -4z"/>
<path d="M922 1430 c-50 -79 -3 -205 84 -228 42 -11 74 -4 74 17 0 9 -23 39
-51 66 -62 61 -71 78 -79 135 l-6 45 -22 -35z"/>
<path d="M1803 1297 c-67 -70 -67 -68 -63 -138 1 -28 -5 -60 -15 -79 -25 -48
-13 -46 38 8 54 59 80 108 97 182 21 96 13 100 -57 27z"/>
<path d="M2054 1235 c-36 -16 -87 -72 -78 -86 3 -5 36 -9 73 -9 56 0 79 5 129
31 34 17 62 34 62 39 0 36 -123 52 -186 25z"/>
<path d="M1872 1168 c-18 -59 -73 -131 -133 -175 -57 -41 -51 -57 16 -46 79
12 137 65 153 140 8 38 -3 123 -16 123 -4 0 -13 -19 -20 -42z"/>
<path d="M2050 1070 l-25 -7 30 -13 c52 -21 206 -80 315 -119 58 -21 122 -46
144 -55 54 -22 61 -20 40 12 -48 74 -165 152 -269 181 -45 12 -196 13 -235 1z"/>
<path d="M785 1060 c-55 -11 -89 -25 -130 -53 -39 -27 -111 -114 -102 -123 17
-17 246 97 310 154 18 16 18 17 0 23 -22 9 -27 9 -78 -1z"/>
<path d="M1942 1018 c-16 -16 -15 -34 1 -41 27 -12 552 -225 800 -324 75 -31
141 -53 144 -49 19 18 -27 63 -102 101 -152 76 -407 181 -630 259 -186 65
-199 68 -213 54z"/>
<path d="M900 936 c-54 -22 -216 -117 -420 -244 -123 -76 -360 -250 -360 -263
0 -8 21 0 174 69 143 63 450 238 679 385 71 46 77 52 61 64 -26 19 -72 16
-134 -11z"/>
<path d="M1808 928 c-21 -5 -38 -14 -38 -18 0 -4 130 -80 288 -168 158 -88
349 -196 423 -240 168 -101 173 -102 177 -40 2 37 8 50 25 59 28 15 38 31 27
44 -12 15 -130 70 -410 191 -135 58 -272 122 -304 141 -65 40 -124 50 -188 31z"/>
<path d="M935 802 c-99 -66 -210 -144 -246 -174 -92 -76 -222 -202 -211 -206
9 -3 161 74 222 113 160 101 255 170 316 230 69 68 109 125 102 147 -2 6 -85
-44 -183 -110z"/>
<path d="M1172 898 c-5 -7 -24 -41 -41 -76 -48 -96 -214 -277 -408 -446 -95
-82 -173 -174 -173 -204 0 -21 43 -13 85 15 61 40 227 186 336 296 99 98 206
245 249 340 20 46 20 50 4 68 -20 22 -37 24 -52 7z"/>
<path d="M1492 883 c-15 -28 -13 -106 4 -268 8 -83 21 -206 29 -275 7 -69 16
-133 20 -142 11 -27 46 -34 62 -12 16 21 14 71 -13 409 -25 308 -23 299 -61
303 -23 2 -34 -2 -41 -15z"/>
<path d="M1650 893 c1 -24 475 -500 521 -524 34 -17 39 -17 53 -3 9 9 16 32
16 54 0 33 -7 46 -42 81 -48 46 -215 174 -391 298 -64 46 -120 87 -123 92 -6
11 -34 12 -34 2z"/>
<path d="M1342 863 c-14 -27 -110 -332 -121 -383 -14 -71 -24 -270 -13 -270
11 0 60 134 140 380 58 179 76 254 68 275 -8 21 -63 19 -74 -2z"/>
</g>
</svg>
